<svg class="typst-doc" viewBox="0 0 252 180" width="252pt" height="180pt" xmlns="http://www.w3.org/2000/svg" xmlns:xlink="http://www.w3.org/1999/xlink" xmlns:h5="http://www.w3.org/1999/xhtml">
    <path class="typst-shape" fill="#ffffff" fill-rule="nonzero" d="M 0 0 L 0 180 L 252 180 L 252 0 Z "/>
    <g>
        <g transform="translate(12.600000000000005 12.600000000000005)">
            <g class="typst-group">
                <g>
                    <g transform="translate(88.39999999999999 17.399999999999995)">
                        <g class="typst-group">
                            <g transform="matrix(0.9 0 0 0.9 2.5 6)">
                                <g transform="translate(0 0)">
                                    <g class="typst-group">
                                        <g>
                                            <g transform="translate(0 0)">
                                                <g class="typst-group">
                                                    <g>
                                                        <g transform="translate(11 0)">
                                                            <path class="typst-shape" fill="#eeeeee" fill-rule="nonzero" d="M 0 0 L 0 120 L 3 120 L 3 0 Z "/>
                                                        </g>
                                                        <g transform="translate(6.5 -1)">
                                                            <g class="typst-group">
                                                                <g>
                                                                    <g transform="translate(-0 -0)">
                                                                        <path class="typst-shape" fill="#e6e6e6" fill-rule="nonzero" stroke="#000000" stroke-width="0.5" stroke-linecap="butt" stroke-linejoin="miter" stroke-miterlimit="4" d="M 0 6 C 0 2.689296 2.689296 0 6 0 C 9.310704 0 12 2.689296 12 6 C 12 9.310704 9.310704 12 6 12 C 2.689296 12 0 9.310704 0 6 "/>
                                                                    </g>
                                                                </g>
                                                            </g>
                                                        </g>
                                                        <g transform="translate(6.5 34)">
                                                            <g class="typst-group">
                                                                <g>
                                                                    <g transform="translate(-0 -0)">
                                                                        <path class="typst-shape" fill="#000000" fill-rule="nonzero" stroke="#000000" stroke-width="0.5" stroke-linecap="butt" stroke-linejoin="miter" stroke-miterlimit="4" d="M 0 6 C 0 2.689296 2.689296 0 6 0 C 9.310704 0 12 2.689296 12 6 C 12 9.310704 9.310704 12 6 12 C 2.689296 12 0 9.310704 0 6 "/>
                                                                    </g>
                                                                </g>
                                                            </g>
                                                        </g>
                                                        <g transform="translate(6.5 50)">
                                                            <g class="typst-group">
                                                                <g>
                                                                    <g transform="translate(-0 -0)">
                                                                        <path class="typst-shape" fill="#000000" fill-rule="nonzero" stroke="#000000" stroke-width="0.5" stroke-linecap="butt" stroke-linejoin="miter" stroke-miterlimit="4" d="M 0 6 C 0 2.689296 2.689296 0 6 0 C 9.310704 0 12 2.689296 12 6 C 12 9.310704 9.310704 12 6 12 C 2.689296 12 0 9.310704 0 6 "/>
                                                                    </g>
                                                                </g>
                                                            </g>
                                                        </g>
                                                        <g transform="translate(6.5 83)">
                                                            <g class="typst-group">
                                                                <g>
                                                                    <g transform="translate(-0 -0)">
                                                                        <path class="typst-shape" fill="#e6e6e6" fill-rule="nonzero" stroke="#000000" stroke-width="0.5" stroke-linecap="butt" stroke-linejoin="miter" stroke-miterlimit="4" d="M 0 6 C 0 2.689296 2.689296 0 6 0 C 9.310704 0 12 2.689296 12 6 C 12 9.310704 9.310704 12 6 12 C 2.689296 12 0 9.310704 0 6 "/>
                                                                    </g>
                                                                </g>
                                                            </g>
                                                        </g>
                                                        <g transform="translate(6.5 99)">
                                                            <g class="typst-group">
                                                                <g>
                                                                    <g transform="translate(-0 -0)">
                                                                        <path class="typst-shape" fill="#e6e6e6" fill-rule="nonzero" stroke="#000000" stroke-width="0.5" stroke-linecap="butt" stroke-linejoin="miter" stroke-miterlimit="4" d="M 0 6 C 0 2.689296 2.689296 0 6 0 C 9.310704 0 12 2.689296 12 6 C 12 9.310704 9.310704 12 6 12 C 2.689296 12 0 9.310704 0 6 "/>
                                                                    </g>
                                                                </g>
                                                            </g>
                                                        </g>
                                                        <g transform="translate(36 0)">
                                                            <path class="typst-shape" fill="#eeeeee" fill-rule="nonzero" d="M 0 0 L 0 120 L 3 120 L 3 0 Z "/>
                                                        </g>
                                                        <g transform="translate(31.5 17)">
                                                            <g class="typst-group">
                                                                <g>
                                                                    <g transform="translate(-0 -0)">
                                                                        <path class="typst-shape" fill="#000000" fill-rule="nonzero" stroke="#000000" stroke-width="0.5" stroke-linecap="butt" stroke-linejoin="miter" stroke-miterlimit="4" d="M 0 6 C 0 2.689296 2.689296 0 6 0 C 9.310704 0 12 2.689296 12 6 C 12 9.310704 9.310704 12 6 12 C 2.689296 12 0 9.310704 0 6 "/>
                                                                    </g>
                                                                </g>
                                                            </g>
                                                        </g>
                                                        <g transform="translate(31.5 51)">
                                                            <g class="typst-group">
                                                                <g>
                                                                    <g transform="translate(-0 -0)">
                                                                        <path class="typst-shape" fill="#e6e6e6" fill-rule="nonzero" stroke="#000000" stroke-width="0.5" stroke-linecap="butt" stroke-linejoin="miter" stroke-miterlimit="4" d="M 0 6 C 0 2.689296 2.689296 0 6 0 C 9.310704 0 12 2.689296 12 6 C 12 9.310704 9.310704 12 6 12 C 2.689296 12 0 9.310704 0 6 "/>
                                                                    </g>
                                                                </g>
                                                            </g>
                                                        </g>
                                                        <g transform="translate(31.5 67)">
                                                            <g class="typst-group">
                                                                <g>
                                                                    <g transform="translate(-0 -0)">
                                                                        <path class="typst-shape" fill="#e6e6e6" fill-rule="nonzero" stroke="#000000" stroke-width="0.5" stroke-linecap="butt" stroke-linejoin="miter" stroke-miterlimit="4" d="M 0 6 C 0 2.689296 2.689296 0 6 0 C 9.310704 0 12 2.689296 12 6 C 12 9.310704 9.310704 12 6 12 C 2.689296 12 0 9.310704 0 6 "/>
                                                                    </g>
                                                                </g>
                                                            </g>
                                                        </g>
                                                        <g transform="translate(31.5 83)">
                                                            <g class="typst-group">
                                                                <g>
                                                                    <g transform="translate(-0 -0)">
                                                                        <path class="typst-shape" fill="#e6e6e6" fill-rule="nonzero" stroke="#000000" stroke-width="0.5" stroke-linecap="butt" stroke-linejoin="miter" stroke-miterlimit="4" d="M 0 6 C 0 2.689296 2.689296 0 6 0 C 9.310704 0 12 2.689296 12 6 C 12 9.310704 9.310704 12 6 12 C 2.689296 12 0 9.310704 0 6 "/>
                                                                    </g>
                                                                </g>
                                                            </g>
                                                        </g>
                                                        <g transform="translate(31.5 99)">
                                                            <g class="typst-group">
                                                                <g>
                                                                    <g transform="translate(-0 -0)">
                                                                        <path class="typst-shape" fill="#e6e6e6" fill-rule="nonzero" stroke="#000000" stroke-width="0.5" stroke-linecap="butt" stroke-linejoin="miter" stroke-miterlimit="4" d="M 0 6 C 0 2.689296 2.689296 0 6 0 C 9.310704 0 12 2.689296 12 6 C 12 9.310704 9.310704 12 6 12 C 2.689296 12 0 9.310704 0 6 "/>
                                                                    </g>
                                                                </g>
                                                            </g>
                                                        </g>
                                                        <g transform="translate(0 30)">
                                                            <path class="typst-shape" fill="#000000" fill-rule="nonzero" d="M 0 0 L 0 2 L 50 2 L 50 0 Z "/>
                                                        </g>
                                                    </g>
                                                </g>
                                            </g>
                                        </g>
                                    </g>
                                </g>
                            </g>
                        </g>
                    </g>
                </g>
            </g>
        </g>
    </g>
</svg>
