<svg class="typst-doc" viewBox="0 0 252 180" width="252pt" height="180pt" xmlns="http://www.w3.org/2000/svg" xmlns:xlink="http://www.w3.org/1999/xlink" xmlns:h5="http://www.w3.org/1999/xhtml">
    <path class="typst-shape" fill="#ffffff" fill-rule="nonzero" d="M 0 0 L 0 180 L 252 180 L 252 0 Z "/>
    <g>
        <g transform="translate(12.600000000000005 12.600000000000005)">
            <g class="typst-group">
                <g>
                    <g transform="translate(88.39999999999999 17.399999999999995)">
                        <g class="typst-group">
                            <g transform="matrix(0.9 0 0 0.9 2.5 6)">
                                <g transform="translate(0 0)">
                                    <g class="typst-group">
                                        <g>
                                            <g transform="translate(0 0)">
                                                <g class="typst-group">
                                                    <g>
                                                        <g transform="translate(11 10)">
                                                            <path class="typst-shape" fill="#eeeeee" fill-rule="nonzero" d="M 0 0 L 0 80 L 3 80 L 3 0 Z "/>
                                                        </g>
                                                        <g transform="translate(6.5 10)">
                                                            <path class="typst-shape" fill="#e6e6e6" fill-rule="nonzero" d="M 0 0.75 C 0 0.33578643 0.33578643 0 0.75 0 L 11.25 0 C 11.664213 0 12 0.33578643 12 0.75 L 12 11.25 C 12 11.664213 11.664213 12 11.25 12 L 0.75 12 C 0.33578643 12 0 11.664213 0 11.25 Z "/>
                                                        </g>
                                                        <g transform="translate(6.5 10)">
                                                            <path class="typst-shape" fill="none" stroke="#000000" stroke-width="0.5" stroke-linecap="butt" stroke-linejoin="miter" stroke-miterlimit="4" d="M 0.75 0 L 11.25 0 C 11.664213 0 12 0.33578643 12 0.75 L 12 11.25 C 12 11.664213 11.664213 12 11.25 12 L 0.75 12 C 0.33578643 12 0 11.664213 0 11.25 L 0 0.75 C 0 0.33578643 0.33578643 0 0.75 0 "/>
                                                        </g>
                                                        <g transform="translate(6.5 33)">
                                                            <path class="typst-shape" fill="#000000" fill-rule="nonzero" d="M 0 0.75 C 0 0.33578643 0.33578643 0 0.75 0 L 11.25 0 C 11.664213 0 12 0.33578643 12 0.75 L 12 11.25 C 12 11.664213 11.664213 12 11.25 12 L 0.75 12 C 0.33578643 12 0 11.664213 0 11.25 Z "/>
                                                        </g>
                                                        <g transform="translate(6.5 33)">
                                                            <path class="typst-shape" fill="none" stroke="#000000" stroke-width="0.5" stroke-linecap="butt" stroke-linejoin="miter" stroke-miterlimit="4" d="M 0.75 0 L 11.25 0 C 11.664213 0 12 0.33578643 12 0.75 L 12 11.25 C 12 11.664213 11.664213 12 11.25 12 L 0.75 12 C 0.33578643 12 0 11.664213 0 11.25 L 0 0.75 C 0 0.33578643 0.33578643 0 0.75 0 "/>
                                                        </g>
                                                        <g transform="translate(6.5 45.5)">
                                                            <path class="typst-shape" fill="#000000" fill-rule="nonzero" d="M 0 0.75 C 0 0.33578643 0.33578643 0 0.75 0 L 11.25 0 C 11.664213 0 12 0.33578643 12 0.75 L 12 11.25 C 12 11.664213 11.664213 12 11.25 12 L 0.75 12 C 0.33578643 12 0 11.664213 0 11.25 Z "/>
                                                        </g>
                                                        <g transform="translate(6.5 45.5)">
                                                            <path class="typst-shape" fill="none" stroke="#000000" stroke-width="0.5" stroke-linecap="butt" stroke-linejoin="miter" stroke-miterlimit="4" d="M 0.75 0 L 11.25 0 C 11.664213 0 12 0.33578643 12 0.75 L 12 11.25 C 12 11.664213 11.664213 12 11.25 12 L 0.75 12 C 0.33578643 12 0 11.664213 0 11.25 L 0 0.75 C 0 0.33578643 0.33578643 0 0.75 0 "/>
                                                        </g>
                                                        <g transform="translate(6.5 65.5)">
                                                            <path class="typst-shape" fill="#e6e6e6" fill-rule="nonzero" d="M 0 0.75 C 0 0.33578643 0.33578643 0 0.75 0 L 11.25 0 C 11.664213 0 12 0.33578643 12 0.75 L 12 11.25 C 12 11.664213 11.664213 12 11.25 12 L 0.75 12 C 0.33578643 12 0 11.664213 0 11.25 Z "/>
                                                        </g>
                                                        <g transform="translate(6.5 65.5)">
                                                            <path class="typst-shape" fill="none" stroke="#000000" stroke-width="0.5" stroke-linecap="butt" stroke-linejoin="miter" stroke-miterlimit="4" d="M 0.75 0 L 11.25 0 C 11.664213 0 12 0.33578643 12 0.75 L 12 11.25 C 12 11.664213 11.664213 12 11.25 12 L 0.75 12 C 0.33578643 12 0 11.664213 0 11.25 L 0 0.75 C 0 0.33578643 0.33578643 0 0.75 0 "/>
                                                        </g>
                                                        <g transform="translate(6.5 78)">
                                                            <path class="typst-shape" fill="#e6e6e6" fill-rule="nonzero" d="M 0 0.75 C 0 0.33578643 0.33578643 0 0.75 0 L 11.25 0 C 11.664213 0 12 0.33578643 12 0.75 L 12 11.25 C 12 11.664213 11.664213 12 11.25 12 L 0.75 12 C 0.33578643 12 0 11.664213 0 11.25 Z "/>
                                                        </g>
                                                        <g transform="translate(6.5 78)">
                                                            <path class="typst-shape" fill="none" stroke="#000000" stroke-width="0.5" stroke-linecap="butt" stroke-linejoin="miter" stroke-miterlimit="4" d="M 0.75 0 L 11.25 0 C 11.664213 0 12 0.33578643 12 0.75 L 12 11.25 C 12 11.664213 11.664213 12 11.25 12 L 0.75 12 C 0.33578643 12 0 11.664213 0 11.25 L 0 0.75 C 0 0.33578643 0.33578643 0 0.75 0 "/>
                                                        </g>
                                                        <g transform="translate(36 17)">
                                                            <path class="typst-shape" fill="#eeeeee" fill-rule="nonzero" d="M 0 0 L 0 72.5 L 3 72.5 L 3 0 Z "/>
                                                        </g>
                                                        <g transform="translate(31.5 17)">
                                                            <path class="typst-shape" fill="#000000" fill-rule="nonzero" d="M 0 0.75 C 0 0.33578643 0.33578643 0 0.75 0 L 11.25 0 C 11.664213 0 12 0.33578643 12 0.75 L 12 11.25 C 12 11.664213 11.664213 12 11.25 12 L 0.75 12 C 0.33578643 12 0 11.664213 0 11.25 Z "/>
                                                        </g>
                                                        <g transform="translate(31.5 17)">
                                                            <path class="typst-shape" fill="none" stroke="#000000" stroke-width="0.5" stroke-linecap="butt" stroke-linejoin="miter" stroke-miterlimit="4" d="M 0.75 0 L 11.25 0 C 11.664213 0 12 0.33578643 12 0.75 L 12 11.25 C 12 11.664213 11.664213 12 11.25 12 L 0.75 12 C 0.33578643 12 0 11.664213 0 11.25 L 0 0.75 C 0 0.33578643 0.33578643 0 0.75 0 "/>
                                                        </g>
                                                        <g transform="translate(31.5 40)">
                                                            <path class="typst-shape" fill="#e6e6e6" fill-rule="nonzero" d="M 0 0.75 C 0 0.33578643 0.33578643 0 0.75 0 L 11.25 0 C 11.664213 0 12 0.33578643 12 0.75 L 12 11.25 C 12 11.664213 11.664213 12 11.25 12 L 0.75 12 C 0.33578643 12 0 11.664213 0 11.25 Z "/>
                                                        </g>
                                                        <g transform="translate(31.5 40)">
                                                            <path class="typst-shape" fill="none" stroke="#000000" stroke-width="0.5" stroke-linecap="butt" stroke-linejoin="miter" stroke-miterlimit="4" d="M 0.75 0 L 11.25 0 C 11.664213 0 12 0.33578643 12 0.75 L 12 11.25 C 12 11.664213 11.664213 12 11.25 12 L 0.75 12 C 0.33578643 12 0 11.664213 0 11.25 L 0 0.75 C 0 0.33578643 0.33578643 0 0.75 0 "/>
                                                        </g>
                                                        <g transform="translate(31.5 52.5)">
                                                            <path class="typst-shape" fill="#e6e6e6" fill-rule="nonzero" d="M 0 0.75 C 0 0.33578643 0.33578643 0 0.75 0 L 11.25 0 C 11.664213 0 12 0.33578643 12 0.75 L 12 11.25 C 12 11.664213 11.664213 12 11.25 12 L 0.75 12 C 0.33578643 12 0 11.664213 0 11.25 Z "/>
                                                        </g>
                                                        <g transform="translate(31.5 52.5)">
                                                            <path class="typst-shape" fill="none" stroke="#000000" stroke-width="0.5" stroke-linecap="butt" stroke-linejoin="miter" stroke-miterlimit="4" d="M 0.75 0 L 11.25 0 C 11.664213 0 12 0.33578643 12 0.75 L 12 11.25 C 12 11.664213 11.664213 12 11.25 12 L 0.75 12 C 0.33578643 12 0 11.664213 0 11.25 L 0 0.75 C 0 0.33578643 0.33578643 0 0.75 0 "/>
                                                        </g>
                                                        <g transform="translate(31.5 65)">
                                                            <path class="typst-shape" fill="#e6e6e6" fill-rule="nonzero" d="M 0 0.75 C 0 0.33578643 0.33578643 0 0.75 0 L 11.25 0 C 11.664213 0 12 0.33578643 12 0.75 L 12 11.25 C 12 11.664213 11.664213 12 11.25 12 L 0.75 12 C 0.33578643 12 0 11.664213 0 11.25 Z "/>
                                                        </g>
                                                        <g transform="translate(31.5 65)">
                                                            <path class="typst-shape" fill="none" stroke="#000000" stroke-width="0.5" stroke-linecap="butt" stroke-linejoin="miter" stroke-miterlimit="4" d="M 0.75 0 L 11.25 0 C 11.664213 0 12 0.33578643 12 0.75 L 12 11.25 C 12 11.664213 11.664213 12 11.25 12 L 0.75 12 C 0.33578643 12 0 11.664213 0 11.25 L 0 0.75 C 0 0.33578643 0.33578643 0 0.75 0 "/>
                                                        </g>
                                                        <g transform="translate(31.5 77.5)">
                                                            <path class="typst-shape" fill="#e6e6e6" fill-rule="nonzero" d="M 0 0.75 C 0 0.33578643 0.33578643 0 0.75 0 L 11.25 0 C 11.664213 0 12 0.33578643 12 0.75 L 12 11.25 C 12 11.664213 11.664213 12 11.25 12 L 0.75 12 C 0.33578643 12 0 11.664213 0 11.25 Z "/>
                                                        </g>
                                                        <g transform="translate(31.5 77.5)">
                                                            <path class="typst-shape" fill="none" stroke="#000000" stroke-width="0.5" stroke-linecap="butt" stroke-linejoin="miter" stroke-miterlimit="4" d="M 0.75 0 L 11.25 0 C 11.664213 0 12 0.33578643 12 0.75 L 12 11.25 C 12 11.664213 11.664213 12 11.25 12 L 0.75 12 C 0.33578643 12 0 11.664213 0 11.25 L 0 0.75 C 0 0.33578643 0.33578643 0 0.75 0 "/>
                                                        </g>
                                                        <g transform="translate(0 30)">
                                                            <path class="typst-shape" fill="#000000" fill-rule="nonzero" d="M 0 0 L 0 2 L 50 2 L 50 0 Z "/>
                                                        </g>
                                                    </g>
                                                </g>
                                            </g>
                                        </g>
                                    </g>
                                </g>
                            </g>
                        </g>
                    </g>
                </g>
            </g>
        </g>
    </g>
</svg>
