<svg width="1200" height="630" viewBox="0 0 1200 630" xmlns="http://www.w3.org/2000/svg">
  <!-- Gradient background -->
  <defs>
    <linearGradient id="bg-gradient" x1="0%" y1="0%" x2="100%" y2="100%">
      <stop offset="0%" style="stop-color:#fef3c7;stop-opacity:1" />
      <stop offset="100%" style="stop-color:#fcd34d;stop-opacity:1" />
    </linearGradient>
  </defs>

  <!-- Background -->
  <rect width="1200" height="630" fill="url(#bg-gradient)"/>

  <!-- Left side - Abacus from @soroban/abacus-react -->
  <g transform="translate(80, 100) scale(0.9)">
    <div class="abacus-container" style="display:inline-block;text-align:center;position:relative"><svg width="135" height="216" viewBox="0 0 135 216" class="abacus-svg  " style="overflow:visible;display:block"><defs><style>
          /* CSS-based opacity system for hidden inactive beads */
          .abacus-bead {
            transition: opacity 0.2s ease-in-out;
          }

          /* Hidden inactive beads are invisible by default */
          .hide-inactive-mode .abacus-bead.hidden-inactive {
            opacity: 0;
          }

          /* Interactive abacus: When hovering over the abacus, hidden inactive beads become semi-transparent */
          .abacus-svg.hide-inactive-mode.interactive:hover .abacus-bead.hidden-inactive {
            opacity: 0.5;
          }

          /* Interactive abacus: When hovering over a specific hidden inactive bead, it becomes fully visible */
          .hide-inactive-mode.interactive .abacus-bead.hidden-inactive:hover {
            opacity: 1 !important;
          }

          /* Non-interactive abacus: Hidden inactive beads always stay at opacity 0 */
          .abacus-svg.hide-inactive-mode:not(.interactive) .abacus-bead.hidden-inactive {
            opacity: 0 !important;
          }
        </style></defs><rect x="19.8" y="0" width="5.4" height="216" fill="#7c2d12" stroke="#92400e" stroke-width="2" opacity="1"></rect><rect x="64.8" y="0" width="5.4" height="216" fill="#7c2d12" stroke="#92400e" stroke-width="2" opacity="1"></rect><rect x="109.8" y="0" width="5.4" height="216" fill="#7c2d12" stroke="#92400e" stroke-width="2" opacity="1"></rect><rect x="11.7" y="54" width="111.6" height="3.6" fill="#92400e" stroke="#92400e" stroke-width="3" opacity="1"></rect><g class="abacus-bead inactive " transform="translate(7.380000000000001, 18)" style="cursor:default;touch-action:none;transition:opacity 0.2s ease-in-out"><polygon points="15.12,0 30.24,10.8 15.12,21.6 0,10.8" fill="#fbbf24" stroke="#000" stroke-width="0.5"></polygon></g><g class="abacus-bead active " transform="translate(7.380000000000001, 59.400000000000006)" style="cursor:default;touch-action:none;transition:opacity 0.2s ease-in-out"><polygon points="15.12,0 30.24,10.8 15.12,21.6 0,10.8" fill="#fbbf24" stroke="#000" stroke-width="0.5"></polygon></g><g class="abacus-bead inactive " transform="translate(7.380000000000001, 95.4)" style="cursor:default;touch-action:none;transition:opacity 0.2s ease-in-out"><polygon points="15.12,0 30.24,10.8 15.12,21.6 0,10.8" fill="#fbbf24" stroke="#000" stroke-width="0.5"></polygon></g><g class="abacus-bead inactive " transform="translate(7.380000000000001, 117.89999999999999)" style="cursor:default;touch-action:none;transition:opacity 0.2s ease-in-out"><polygon points="15.12,0 30.24,10.8 15.12,21.6 0,10.8" fill="#fbbf24" stroke="#000" stroke-width="0.5"></polygon></g><g class="abacus-bead inactive " transform="translate(7.380000000000001, 140.39999999999998)" style="cursor:default;touch-action:none;transition:opacity 0.2s ease-in-out"><polygon points="15.12,0 30.24,10.8 15.12,21.6 0,10.8" fill="#fbbf24" stroke="#000" stroke-width="0.5"></polygon></g><g class="abacus-bead inactive " transform="translate(52.38, 18)" style="cursor:default;touch-action:none;transition:opacity 0.2s ease-in-out"><polygon points="15.12,0 30.24,10.8 15.12,21.6 0,10.8" fill="#fbbf24" stroke="#000" stroke-width="0.5"></polygon></g><g class="abacus-bead active " transform="translate(52.38, 59.400000000000006)" style="cursor:default;touch-action:none;transition:opacity 0.2s ease-in-out"><polygon points="15.12,0 30.24,10.8 15.12,21.6 0,10.8" fill="#fbbf24" stroke="#000" stroke-width="0.5"></polygon></g><g class="abacus-bead active " transform="translate(52.38, 81.9)" style="cursor:default;touch-action:none;transition:opacity 0.2s ease-in-out"><polygon points="15.12,0 30.24,10.8 15.12,21.6 0,10.8" fill="#fbbf24" stroke="#000" stroke-width="0.5"></polygon></g><g class="abacus-bead inactive " transform="translate(52.38, 117.90000000000002)" style="cursor:default;touch-action:none;transition:opacity 0.2s ease-in-out"><polygon points="15.12,0 30.24,10.8 15.12,21.6 0,10.8" fill="#fbbf24" stroke="#000" stroke-width="0.5"></polygon></g><g class="abacus-bead inactive " transform="translate(52.38, 140.4)" style="cursor:default;touch-action:none;transition:opacity 0.2s ease-in-out"><polygon points="15.12,0 30.24,10.8 15.12,21.6 0,10.8" fill="#fbbf24" stroke="#000" stroke-width="0.5"></polygon></g><g class="abacus-bead inactive " transform="translate(97.38, 18)" style="cursor:default;touch-action:none;transition:opacity 0.2s ease-in-out"><polygon points="15.12,0 30.24,10.8 15.12,21.6 0,10.8" fill="#fbbf24" stroke="#000" stroke-width="0.5"></polygon></g><g class="abacus-bead active " transform="translate(97.38, 59.400000000000006)" style="cursor:default;touch-action:none;transition:opacity 0.2s ease-in-out"><polygon points="15.12,0 30.24,10.8 15.12,21.6 0,10.8" fill="#fbbf24" stroke="#000" stroke-width="0.5"></polygon></g><g class="abacus-bead active " transform="translate(97.38, 81.9)" style="cursor:default;touch-action:none;transition:opacity 0.2s ease-in-out"><polygon points="15.12,0 30.24,10.8 15.12,21.6 0,10.8" fill="#fbbf24" stroke="#000" stroke-width="0.5"></polygon></g><g class="abacus-bead active " transform="translate(97.38, 104.4)" style="cursor:default;touch-action:none;transition:opacity 0.2s ease-in-out"><polygon points="15.12,0 30.24,10.8 15.12,21.6 0,10.8" fill="#fbbf24" stroke="#000" stroke-width="0.5"></polygon></g><g class="abacus-bead inactive " transform="translate(97.38, 140.4)" style="cursor:default;touch-action:none;transition:opacity 0.2s ease-in-out"><polygon points="15.12,0 30.24,10.8 15.12,21.6 0,10.8" fill="#fbbf24" stroke="#000" stroke-width="0.5"></polygon></g><rect x="0" y="0" width="45" height="216" fill="transparent" stroke="none" style="cursor:default;pointer-events:none"></rect><rect x="45" y="0" width="45" height="216" fill="transparent" stroke="none" style="cursor:default;pointer-events:none"></rect><rect x="90" y="0" width="45" height="216" fill="transparent" stroke="none" style="cursor:default;pointer-events:none"></rect></svg></div>
  </g>

  <!-- Right side - Text content -->
  <g transform="translate(550, 180)">
    <!-- Main title -->
    <text x="0" y="0" font-family="Arial, sans-serif" font-size="80" font-weight="bold" fill="#7c2d12">
      Abaci.One
    </text>

    <!-- Subtitle -->
    <text x="0" y="80" font-family="Arial, sans-serif" font-size="36" font-weight="600" fill="#92400e">
      Learn Soroban Through Play
    </text>

    <!-- Features -->
    <text x="0" y="150" font-family="Arial, sans-serif" font-size="28" fill="#78350f">
      • Interactive Games
    </text>
    <text x="0" y="190" font-family="Arial, sans-serif" font-size="28" fill="#78350f">
      • Tutorials
    </text>
    <text x="0" y="230" font-family="Arial, sans-serif" font-size="28" fill="#78350f">
      • Practice Tools
    </text>
  </g>

  <!-- Bottom accent line -->
  <rect x="0" y="610" width="1200" height="20" fill="#92400e" opacity="0.3"/>
</svg>
