<svg viewBox="0 0 200 180" width="200pt" height="180pt" xmlns="http://www.w3.org/2000/svg" xmlns:xlink="http://www.w3.org/1999/xlink" xmlns:h5="http://www.w3.org/1999/xhtml"><path fill="#ffffff" fill-rule="nonzero" d="M 0 0v 180h 200v -180Z "/><g transform="translate(81.25 2.5)"><path fill="#eeeeee" fill-rule="nonzero" transform="translate(16.5 26)" d="M 0 0v 104.25h 4.5v -104.25Z "/><path fill="#000000" fill-rule="nonzero" stroke="#000000" stroke-width="0.5" stroke-linecap="butt" stroke-linejoin="miter" stroke-miterlimit="4" transform="translate(6.15 26)" d="M 0 0m 12.6 0l 12.6 9l -12.6 9l -12.6 -9Z "/><a transform="translate(6.15 26)" href="bead://heaven-col0-active1" xlink:href="bead://heaven-col0-active1"><rect width="25.2" height="18" fill="transparent" stroke="none"/></a><path fill="#e6e6e6" fill-rule="nonzero" stroke="#000000" stroke-width="0.5" stroke-linecap="butt" stroke-linejoin="miter" stroke-miterlimit="4" transform="translate(6.15 56)" d="M 0 0m 12.6 0l 12.6 9l -12.6 9l -12.6 -9Z "/><a transform="translate(6.15 56)" href="bead://earth-col0-pos0-active0" xlink:href="bead://earth-col0-pos0-active0"><rect width="25.2" height="18" fill="transparent" stroke="none"/></a><path fill="#e6e6e6" fill-rule="nonzero" stroke="#000000" stroke-width="0.5" stroke-linecap="butt" stroke-linejoin="miter" stroke-miterlimit="4" transform="translate(6.15 74.75)" d="M 0 0m 12.6 0l 12.6 9l -12.6 9l -12.6 -9Z "/><a transform="translate(6.15 74.75)" href="bead://earth-col0-pos1-active0" xlink:href="bead://earth-col0-pos1-active0"><rect width="25.2" height="18" fill="transparent" stroke="none"/></a><path fill="#e6e6e6" fill-rule="nonzero" stroke="#000000" stroke-width="0.5" stroke-linecap="butt" stroke-linejoin="miter" stroke-miterlimit="4" transform="translate(6.15 93.5)" d="M 0 0m 12.6 0l 12.6 9l -12.6 9l -12.6 -9Z "/><a transform="translate(6.15 93.5)" href="bead://earth-col0-pos2-active0" xlink:href="bead://earth-col0-pos2-active0"><rect width="25.2" height="18" fill="transparent" stroke="none"/></a><path fill="#e6e6e6" fill-rule="nonzero" stroke="#000000" stroke-width="0.5" stroke-linecap="butt" stroke-linejoin="miter" stroke-miterlimit="4" transform="translate(6.15 112.25)" d="M 0 0m 12.6 0l 12.6 9l -12.6 9l -12.6 -9Z "/><a transform="translate(6.15 112.25)" href="bead://earth-col0-pos3-active0" xlink:href="bead://earth-col0-pos3-active0"><rect width="25.2" height="18" fill="transparent" stroke="none"/></a><path fill="#000000" fill-rule="nonzero" transform="translate(0 45)" d="M 0 0v 3h 37.5v -3Z "/></g></svg>