<svg viewBox="0 0 288 216" width="288pt" height="216pt" xmlns="http://www.w3.org/2000/svg" xmlns:xlink="http://www.w3.org/1999/xlink" xmlns:h5="http://www.w3.org/1999/xhtml"><path fill="#ffffff" fill-rule="nonzero" d="M 0 0v 216h 288v -216Z "/><g transform="translate(99 4)"><path fill="#eeeeee" fill-rule="nonzero" transform="translate(19.8 24.4)" d="M 0 0v 123.3h 5.4v -123.3Z "/><g transform="translate(11.7 24.4)"><path fill="#e6e6e6" fill-rule="nonzero" stroke="#000000" stroke-width="0.5" stroke-linecap="butt" stroke-linejoin="miter" stroke-miterlimit="4" d="M 0 0m 0 10.8c 0 -5.9592672 4.8407328 -10.8 10.8 -10.8c 5.9592672 0 10.8 4.8407328 10.8 10.8c 0 5.9592672 -4.8407328 10.8 -10.8 10.8c -5.9592672 0 -10.8 -4.8407328 -10.8 -10.8"/></g><a transform="translate(11.7 24.4)" href="bead://heaven-col1-active0" xlink:href="bead://heaven-col1-active0"><rect width="21.6" height="21.6" fill="transparent" stroke="none"/></a><g transform="translate(11.7 58.6)"><path fill="#2e86ab" fill-rule="nonzero" stroke="#000000" stroke-width="0.5" stroke-linecap="butt" stroke-linejoin="miter" stroke-miterlimit="4" d="M 0 0m 0 10.8c 0 -5.9592672 4.8407328 -10.8 10.8 -10.8c 5.9592672 0 10.8 4.8407328 10.8 10.8c 0 5.9592672 -4.8407328 10.8 -10.8 10.8c -5.9592672 0 -10.8 -4.8407328 -10.8 -10.8"/></g><a transform="translate(11.7 58.6)" href="bead://earth-col1-pos0-active1" xlink:href="bead://earth-col1-pos0-active1"><rect width="21.6" height="21.6" fill="transparent" stroke="none"/></a><g transform="translate(11.7 81.1)"><path fill="#2e86ab" fill-rule="nonzero" stroke="#000000" stroke-width="0.5" stroke-linecap="butt" stroke-linejoin="miter" stroke-miterlimit="4" d="M 0 0m 0 10.8c 0 -5.9592672 4.8407328 -10.8 10.8 -10.8c 5.9592672 0 10.8 4.8407328 10.8 10.8c 0 5.9592672 -4.8407328 10.8 -10.8 10.8c -5.9592672 0 -10.8 -4.8407328 -10.8 -10.8"/></g><a transform="translate(11.7 81.1)" href="bead://earth-col1-pos1-active1" xlink:href="bead://earth-col1-pos1-active1"><rect width="21.6" height="21.6" fill="transparent" stroke="none"/></a><g transform="translate(11.7 103.6)"><path fill="#2e86ab" fill-rule="nonzero" stroke="#000000" stroke-width="0.5" stroke-linecap="butt" stroke-linejoin="miter" stroke-miterlimit="4" d="M 0 0m 0 10.8c 0 -5.9592672 4.8407328 -10.8 10.8 -10.8c 5.9592672 0 10.8 4.8407328 10.8 10.8c 0 5.9592672 -4.8407328 10.8 -10.8 10.8c -5.9592672 0 -10.8 -4.8407328 -10.8 -10.8"/></g><a transform="translate(11.7 103.6)" href="bead://earth-col1-pos2-active1" xlink:href="bead://earth-col1-pos2-active1"><rect width="21.6" height="21.6" fill="transparent" stroke="none"/></a><g transform="translate(11.7 126.1)"><path fill="#2e86ab" fill-rule="nonzero" stroke="#000000" stroke-width="0.5" stroke-linecap="butt" stroke-linejoin="miter" stroke-miterlimit="4" d="M 0 0m 0 10.8c 0 -5.9592672 4.8407328 -10.8 10.8 -10.8c 5.9592672 0 10.8 4.8407328 10.8 10.8c 0 5.9592672 -4.8407328 10.8 -10.8 10.8c -5.9592672 0 -10.8 -4.8407328 -10.8 -10.8"/></g><a transform="translate(11.7 126.1)" href="bead://earth-col1-pos3-active1" xlink:href="bead://earth-col1-pos3-active1"><rect width="21.6" height="21.6" fill="transparent" stroke="none"/></a><path fill="#eeeeee" fill-rule="nonzero" transform="translate(64.8 24.4)" d="M 0 0v 130.4h 5.4v -130.4Z "/><g transform="translate(56.7 24.4)"><path fill="#e6e6e6" fill-rule="nonzero" stroke="#000000" stroke-width="0.5" stroke-linecap="butt" stroke-linejoin="miter" stroke-miterlimit="4" d="M 0 0m 0 10.8c 0 -5.9592672 4.8407328 -10.8 10.8 -10.8c 5.9592672 0 10.8 4.8407328 10.8 10.8c 0 5.9592672 -4.8407328 10.8 -10.8 10.8c -5.9592672 0 -10.8 -4.8407328 -10.8 -10.8"/></g><a transform="translate(56.7 24.4)" href="bead://heaven-col0-active0" xlink:href="bead://heaven-col0-active0"><rect width="21.6" height="21.6" fill="transparent" stroke="none"/></a><g transform="translate(56.7 58.6)"><path fill="#2e86ab" fill-rule="nonzero" stroke="#000000" stroke-width="0.5" stroke-linecap="butt" stroke-linejoin="miter" stroke-miterlimit="4" d="M 0 0m 0 10.8c 0 -5.9592672 4.8407328 -10.8 10.8 -10.8c 5.9592672 0 10.8 4.8407328 10.8 10.8c 0 5.9592672 -4.8407328 10.8 -10.8 10.8c -5.9592672 0 -10.8 -4.8407328 -10.8 -10.8"/></g><a transform="translate(56.7 58.6)" href="bead://earth-col0-pos0-active1" xlink:href="bead://earth-col0-pos0-active1"><rect width="21.6" height="21.6" fill="transparent" stroke="none"/></a><g transform="translate(56.7 81.1)"><path fill="#2e86ab" fill-rule="nonzero" stroke="#000000" stroke-width="0.5" stroke-linecap="butt" stroke-linejoin="miter" stroke-miterlimit="4" d="M 0 0m 0 10.8c 0 -5.9592672 4.8407328 -10.8 10.8 -10.8c 5.9592672 0 10.8 4.8407328 10.8 10.8c 0 5.9592672 -4.8407328 10.8 -10.8 10.8c -5.9592672 0 -10.8 -4.8407328 -10.8 -10.8"/></g><a transform="translate(56.7 81.1)" href="bead://earth-col0-pos1-active1" xlink:href="bead://earth-col0-pos1-active1"><rect width="21.6" height="21.6" fill="transparent" stroke="none"/></a><g transform="translate(56.7 110.7)"><path fill="#e6e6e6" fill-rule="nonzero" stroke="#000000" stroke-width="0.5" stroke-linecap="butt" stroke-linejoin="miter" stroke-miterlimit="4" d="M 0 0m 0 10.8c 0 -5.9592672 4.8407328 -10.8 10.8 -10.8c 5.9592672 0 10.8 4.8407328 10.8 10.8c 0 5.9592672 -4.8407328 10.8 -10.8 10.8c -5.9592672 0 -10.8 -4.8407328 -10.8 -10.8"/></g><a transform="translate(56.7 110.7)" href="bead://earth-col0-pos2-active0" xlink:href="bead://earth-col0-pos2-active0"><rect width="21.6" height="21.6" fill="transparent" stroke="none"/></a><g transform="translate(56.7 133.2)"><path fill="#e6e6e6" fill-rule="nonzero" stroke="#000000" stroke-width="0.5" stroke-linecap="butt" stroke-linejoin="miter" stroke-miterlimit="4" d="M 0 0m 0 10.8c 0 -5.9592672 4.8407328 -10.8 10.8 -10.8c 5.9592672 0 10.8 4.8407328 10.8 10.8c 0 5.9592672 -4.8407328 10.8 -10.8 10.8c -5.9592672 0 -10.8 -4.8407328 -10.8 -10.8"/></g><a transform="translate(56.7 133.2)" href="bead://earth-col0-pos3-active0" xlink:href="bead://earth-col0-pos3-active0"><rect width="21.6" height="21.6" fill="transparent" stroke="none"/></a><path fill="#000000" fill-rule="nonzero" transform="translate(0 54)" d="M 0 0v 3.6h 90v -3.6Z "/></g></svg>