<svg class="typst-doc" viewBox="0 0 288 216" width="288pt" height="216pt" xmlns="http://www.w3.org/2000/svg" xmlns:xlink="http://www.w3.org/1999/xlink" xmlns:h5="http://www.w3.org/1999/xhtml">
    <path class="typst-shape" fill="#ffffff" fill-rule="nonzero" d="M 0 0 L 0 216 L 288 216 L 288 0 Z "/>
    <g>
        <g transform="translate(99 4)">
            <g class="typst-group">
                <g>
                    <g transform="translate(0 0)">
                        <g class="typst-group">
                            <g>
                                <g transform="translate(19.8 24.399999999999995)">
                                    <path class="typst-shape" fill="#eeeeee" fill-rule="nonzero" d="M 0 0 L 0 123.3 L 5.4 123.3 L 5.4 0 Z "/>
                                </g>
                                <g transform="translate(11.7 24.399999999999995)">
                                    <g class="typst-group">
                                        <g>
                                            <g transform="translate(-0 -0)">
                                                <path class="typst-shape" fill="#e6e6e6" fill-rule="nonzero" stroke="#000000" stroke-width="0.5" stroke-linecap="butt" stroke-linejoin="miter" stroke-miterlimit="4" d="M 0 10.8 C 0 4.8407326 4.8407326 0 10.8 0 C 16.759268 0 21.6 4.8407326 21.6 10.8 C 21.6 16.759268 16.759268 21.6 10.8 21.6 C 4.8407326 21.6 0 16.759268 0 10.8 "/>
                                            </g>
                                        </g>
                                    </g>
                                </g>
                                <g transform="translate(11.7 58.599999999999994)">
                                    <g class="typst-group">
                                        <g>
                                            <g transform="translate(-0 -0)">
                                                <path class="typst-shape" fill="#2e86ab" fill-rule="nonzero" stroke="#000000" stroke-width="0.5" stroke-linecap="butt" stroke-linejoin="miter" stroke-miterlimit="4" d="M 0 10.8 C 0 4.8407326 4.8407326 0 10.8 0 C 16.759268 0 21.6 4.8407326 21.6 10.8 C 21.6 16.759268 16.759268 21.6 10.8 21.6 C 4.8407326 21.6 0 16.759268 0 10.8 "/>
                                            </g>
                                        </g>
                                    </g>
                                </g>
                                <g transform="translate(11.7 81.1)">
                                    <g class="typst-group">
                                        <g>
                                            <g transform="translate(-0 -0)">
                                                <path class="typst-shape" fill="#2e86ab" fill-rule="nonzero" stroke="#000000" stroke-width="0.5" stroke-linecap="butt" stroke-linejoin="miter" stroke-miterlimit="4" d="M 0 10.8 C 0 4.8407326 4.8407326 0 10.8 0 C 16.759268 0 21.6 4.8407326 21.6 10.8 C 21.6 16.759268 16.759268 21.6 10.8 21.6 C 4.8407326 21.6 0 16.759268 0 10.8 "/>
                                            </g>
                                        </g>
                                    </g>
                                </g>
                                <g transform="translate(11.7 103.6)">
                                    <g class="typst-group">
                                        <g>
                                            <g transform="translate(-0 -0)">
                                                <path class="typst-shape" fill="#2e86ab" fill-rule="nonzero" stroke="#000000" stroke-width="0.5" stroke-linecap="butt" stroke-linejoin="miter" stroke-miterlimit="4" d="M 0 10.8 C 0 4.8407326 4.8407326 0 10.8 0 C 16.759268 0 21.6 4.8407326 21.6 10.8 C 21.6 16.759268 16.759268 21.6 10.8 21.6 C 4.8407326 21.6 0 16.759268 0 10.8 "/>
                                            </g>
                                        </g>
                                    </g>
                                </g>
                                <g transform="translate(11.7 126.10000000000002)">
                                    <g class="typst-group">
                                        <g>
                                            <g transform="translate(-0 -0)">
                                                <path class="typst-shape" fill="#2e86ab" fill-rule="nonzero" stroke="#000000" stroke-width="0.5" stroke-linecap="butt" stroke-linejoin="miter" stroke-miterlimit="4" d="M 0 10.8 C 0 4.8407326 4.8407326 0 10.8 0 C 16.759268 0 21.6 4.8407326 21.6 10.8 C 21.6 16.759268 16.759268 21.6 10.8 21.6 C 4.8407326 21.6 0 16.759268 0 10.8 "/>
                                            </g>
                                        </g>
                                    </g>
                                </g>
                                <g transform="translate(64.8 24.399999999999995)">
                                    <path class="typst-shape" fill="#eeeeee" fill-rule="nonzero" d="M 0 0 L 0 130.4 L 5.4 130.4 L 5.4 0 Z "/>
                                </g>
                                <g transform="translate(56.699999999999996 24.399999999999995)">
                                    <g class="typst-group">
                                        <g>
                                            <g transform="translate(-0 -0)">
                                                <path class="typst-shape" fill="#e6e6e6" fill-rule="nonzero" stroke="#000000" stroke-width="0.5" stroke-linecap="butt" stroke-linejoin="miter" stroke-miterlimit="4" d="M 0 10.8 C 0 4.8407326 4.8407326 0 10.8 0 C 16.759268 0 21.6 4.8407326 21.6 10.8 C 21.6 16.759268 16.759268 21.6 10.8 21.6 C 4.8407326 21.6 0 16.759268 0 10.8 "/>
                                            </g>
                                        </g>
                                    </g>
                                </g>
                                <g transform="translate(56.699999999999996 58.599999999999994)">
                                    <g class="typst-group">
                                        <g>
                                            <g transform="translate(-0 -0)">
                                                <path class="typst-shape" fill="#2e86ab" fill-rule="nonzero" stroke="#000000" stroke-width="0.5" stroke-linecap="butt" stroke-linejoin="miter" stroke-miterlimit="4" d="M 0 10.8 C 0 4.8407326 4.8407326 0 10.8 0 C 16.759268 0 21.6 4.8407326 21.6 10.8 C 21.6 16.759268 16.759268 21.6 10.8 21.6 C 4.8407326 21.6 0 16.759268 0 10.8 "/>
                                            </g>
                                        </g>
                                    </g>
                                </g>
                                <g transform="translate(56.699999999999996 81.1)">
                                    <g class="typst-group">
                                        <g>
                                            <g transform="translate(-0 -0)">
                                                <path class="typst-shape" fill="#2e86ab" fill-rule="nonzero" stroke="#000000" stroke-width="0.5" stroke-linecap="butt" stroke-linejoin="miter" stroke-miterlimit="4" d="M 0 10.8 C 0 4.8407326 4.8407326 0 10.8 0 C 16.759268 0 21.6 4.8407326 21.6 10.8 C 21.6 16.759268 16.759268 21.6 10.8 21.6 C 4.8407326 21.6 0 16.759268 0 10.8 "/>
                                            </g>
                                        </g>
                                    </g>
                                </g>
                                <g transform="translate(56.699999999999996 110.7)">
                                    <g class="typst-group">
                                        <g>
                                            <g transform="translate(-0 -0)">
                                                <path class="typst-shape" fill="#e6e6e6" fill-rule="nonzero" stroke="#000000" stroke-width="0.5" stroke-linecap="butt" stroke-linejoin="miter" stroke-miterlimit="4" d="M 0 10.8 C 0 4.8407326 4.8407326 0 10.8 0 C 16.759268 0 21.6 4.8407326 21.6 10.8 C 21.6 16.759268 16.759268 21.6 10.8 21.6 C 4.8407326 21.6 0 16.759268 0 10.8 "/>
                                            </g>
                                        </g>
                                    </g>
                                </g>
                                <g transform="translate(56.699999999999996 133.20000000000002)">
                                    <g class="typst-group">
                                        <g>
                                            <g transform="translate(-0 -0)">
                                                <path class="typst-shape" fill="#e6e6e6" fill-rule="nonzero" stroke="#000000" stroke-width="0.5" stroke-linecap="butt" stroke-linejoin="miter" stroke-miterlimit="4" d="M 0 10.8 C 0 4.8407326 4.8407326 0 10.8 0 C 16.759268 0 21.6 4.8407326 21.6 10.8 C 21.6 16.759268 16.759268 21.6 10.8 21.6 C 4.8407326 21.6 0 16.759268 0 10.8 "/>
                                            </g>
                                        </g>
                                    </g>
                                </g>
                                <g transform="translate(0 54)">
                                    <path class="typst-shape" fill="#000000" fill-rule="nonzero" d="M 0 0 L 0 3.6 L 90 3.6 L 90 0 Z "/>
                                </g>
                                <g transform="translate(-10 -114)">
                                    <path class="typst-shape" fill="none" stroke="#000000" stroke-width="0" stroke-linecap="butt" stroke-linejoin="miter" stroke-miterlimit="4" d="M 0 0 L 0 3.6 L 3.6 3.6 L 3.6 0 Z "/>
                                </g>
                                <g transform="translate(96.39999999999999 -114)">
                                    <path class="typst-shape" fill="none" stroke="#000000" stroke-width="0" stroke-linecap="butt" stroke-linejoin="miter" stroke-miterlimit="4" d="M 0 0 L 0 3.6 L 3.6 3.6 L 3.6 0 Z "/>
                                </g>
                                <g transform="translate(-10 110.39999999999999)">
                                    <path class="typst-shape" fill="none" stroke="#000000" stroke-width="0" stroke-linecap="butt" stroke-linejoin="miter" stroke-miterlimit="4" d="M 0 0 L 0 3.6 L 3.6 3.6 L 3.6 0 Z "/>
                                </g>
                                <g transform="translate(96.39999999999999 110.39999999999999)">
                                    <path class="typst-shape" fill="none" stroke="#000000" stroke-width="0" stroke-linecap="butt" stroke-linejoin="miter" stroke-miterlimit="4" d="M 0 0 L 0 3.6 L 3.6 3.6 L 3.6 0 Z "/>
                                </g>
                            </g>
                        </g>
                    </g>
                </g>
            </g>
        </g>
    </g>
</svg>
