<svg viewBox="0 0 288 150" width="288pt" height="150pt" xmlns="http://www.w3.org/2000/svg" xmlns:xlink="http://www.w3.org/1999/xlink" xmlns:h5="http://www.w3.org/1999/xhtml"><path fill="#ffffff" fill-rule="nonzero" d="M 0 0v 150h 288v -150Z "/><g transform="translate(99 4)"><path fill="#eeeeee" fill-rule="nonzero" transform="translate(13.2 13.6)" d="M 0 0v 92.6h 3.6v -92.6Z "/><path fill="#e6e6e6" fill-rule="nonzero" stroke="#000000" stroke-width="0.5" stroke-linecap="butt" stroke-linejoin="miter" stroke-miterlimit="4" transform="translate(4.92 13.6)" d="M 0 0m 10.08 0l 10.08 7.2l -10.08 7.2l -10.08 -7.2Z "/><a transform="translate(4.92 13.6)" href="bead://heaven-col2-active0" xlink:href="bead://heaven-col2-active0"><rect width="20.16" height="14.4" fill="transparent" stroke="none"/></a><path fill="#f18f01" fill-rule="nonzero" stroke="#000000" stroke-width="0.5" stroke-linecap="butt" stroke-linejoin="miter" stroke-miterlimit="4" transform="translate(4.92 39.4)" d="M 0 0m 10.08 0l 10.08 7.2l -10.08 7.2l -10.08 -7.2Z "/><a transform="translate(4.92 39.4)" href="bead://earth-col2-pos0-active1" xlink:href="bead://earth-col2-pos0-active1"><rect width="20.16" height="14.4" fill="transparent" stroke="none"/></a><path fill="#e6e6e6" fill-rule="nonzero" stroke="#000000" stroke-width="0.5" stroke-linecap="butt" stroke-linejoin="miter" stroke-miterlimit="4" transform="translate(4.92 61.8)" d="M 0 0m 10.08 0l 10.08 7.2l -10.08 7.2l -10.08 -7.2Z "/><a transform="translate(4.92 61.8)" href="bead://earth-col2-pos1-active0" xlink:href="bead://earth-col2-pos1-active0"><rect width="20.16" height="14.4" fill="transparent" stroke="none"/></a><path fill="#e6e6e6" fill-rule="nonzero" stroke="#000000" stroke-width="0.5" stroke-linecap="butt" stroke-linejoin="miter" stroke-miterlimit="4" transform="translate(4.92 76.8)" d="M 0 0m 10.08 0l 10.08 7.2l -10.08 7.2l -10.08 -7.2Z "/><a transform="translate(4.92 76.8)" href="bead://earth-col2-pos2-active0" xlink:href="bead://earth-col2-pos2-active0"><rect width="20.16" height="14.4" fill="transparent" stroke="none"/></a><path fill="#e6e6e6" fill-rule="nonzero" stroke="#000000" stroke-width="0.5" stroke-linecap="butt" stroke-linejoin="miter" stroke-miterlimit="4" transform="translate(4.92 91.8)" d="M 0 0m 10.08 0l 10.08 7.2l -10.08 7.2l -10.08 -7.2Z "/><a transform="translate(4.92 91.8)" href="bead://earth-col2-pos3-active0" xlink:href="bead://earth-col2-pos3-active0"><rect width="20.16" height="14.4" fill="transparent" stroke="none"/></a><path fill="#eeeeee" fill-rule="nonzero" transform="translate(43.2 13.6)" d="M 0 0v 92.6h 3.6v -92.6Z "/><path fill="#e6e6e6" fill-rule="nonzero" stroke="#000000" stroke-width="0.5" stroke-linecap="butt" stroke-linejoin="miter" stroke-miterlimit="4" transform="translate(34.92 13.6)" d="M 0 0m 10.08 0l 10.08 7.2l -10.08 7.2l -10.08 -7.2Z "/><a transform="translate(34.92 13.6)" href="bead://heaven-col1-active0" xlink:href="bead://heaven-col1-active0"><rect width="20.16" height="14.4" fill="transparent" stroke="none"/></a><path fill="#a23b72" fill-rule="nonzero" stroke="#000000" stroke-width="0.5" stroke-linecap="butt" stroke-linejoin="miter" stroke-miterlimit="4" transform="translate(34.92 39.4)" d="M 0 0m 10.08 0l 10.08 7.2l -10.08 7.2l -10.08 -7.2Z "/><a transform="translate(34.92 39.4)" href="bead://earth-col1-pos0-active1" xlink:href="bead://earth-col1-pos0-active1"><rect width="20.16" height="14.4" fill="transparent" stroke="none"/></a><path fill="#a23b72" fill-rule="nonzero" stroke="#000000" stroke-width="0.5" stroke-linecap="butt" stroke-linejoin="miter" stroke-miterlimit="4" transform="translate(34.92 54.4)" d="M 0 0m 10.08 0l 10.08 7.2l -10.08 7.2l -10.08 -7.2Z "/><a transform="translate(34.92 54.4)" href="bead://earth-col1-pos1-active1" xlink:href="bead://earth-col1-pos1-active1"><rect width="20.16" height="14.4" fill="transparent" stroke="none"/></a><path fill="#e6e6e6" fill-rule="nonzero" stroke="#000000" stroke-width="0.5" stroke-linecap="butt" stroke-linejoin="miter" stroke-miterlimit="4" transform="translate(34.92 76.8)" d="M 0 0m 10.08 0l 10.08 7.2l -10.08 7.2l -10.08 -7.2Z "/><a transform="translate(34.92 76.8)" href="bead://earth-col1-pos2-active0" xlink:href="bead://earth-col1-pos2-active0"><rect width="20.16" height="14.4" fill="transparent" stroke="none"/></a><path fill="#e6e6e6" fill-rule="nonzero" stroke="#000000" stroke-width="0.5" stroke-linecap="butt" stroke-linejoin="miter" stroke-miterlimit="4" transform="translate(34.92 91.8)" d="M 0 0m 10.08 0l 10.08 7.2l -10.08 7.2l -10.08 -7.2Z "/><a transform="translate(34.92 91.8)" href="bead://earth-col1-pos3-active0" xlink:href="bead://earth-col1-pos3-active0"><rect width="20.16" height="14.4" fill="transparent" stroke="none"/></a><path fill="#eeeeee" fill-rule="nonzero" transform="translate(73.2 13.6)" d="M 0 0v 92.6h 3.6v -92.6Z "/><path fill="#e6e6e6" fill-rule="nonzero" stroke="#000000" stroke-width="0.5" stroke-linecap="butt" stroke-linejoin="miter" stroke-miterlimit="4" transform="translate(64.92 13.6)" d="M 0 0m 10.08 0l 10.08 7.2l -10.08 7.2l -10.08 -7.2Z "/><a transform="translate(64.92 13.6)" href="bead://heaven-col0-active0" xlink:href="bead://heaven-col0-active0"><rect width="20.16" height="14.4" fill="transparent" stroke="none"/></a><path fill="#2e86ab" fill-rule="nonzero" stroke="#000000" stroke-width="0.5" stroke-linecap="butt" stroke-linejoin="miter" stroke-miterlimit="4" transform="translate(64.92 39.4)" d="M 0 0m 10.08 0l 10.08 7.2l -10.08 7.2l -10.08 -7.2Z "/><a transform="translate(64.92 39.4)" href="bead://earth-col0-pos0-active1" xlink:href="bead://earth-col0-pos0-active1"><rect width="20.16" height="14.4" fill="transparent" stroke="none"/></a><path fill="#2e86ab" fill-rule="nonzero" stroke="#000000" stroke-width="0.5" stroke-linecap="butt" stroke-linejoin="miter" stroke-miterlimit="4" transform="translate(64.92 54.4)" d="M 0 0m 10.08 0l 10.08 7.2l -10.08 7.2l -10.08 -7.2Z "/><a transform="translate(64.92 54.4)" href="bead://earth-col0-pos1-active1" xlink:href="bead://earth-col0-pos1-active1"><rect width="20.16" height="14.4" fill="transparent" stroke="none"/></a><path fill="#2e86ab" fill-rule="nonzero" stroke="#000000" stroke-width="0.5" stroke-linecap="butt" stroke-linejoin="miter" stroke-miterlimit="4" transform="translate(64.92 69.4)" d="M 0 0m 10.08 0l 10.08 7.2l -10.08 7.2l -10.08 -7.2Z "/><a transform="translate(64.92 69.4)" href="bead://earth-col0-pos2-active1" xlink:href="bead://earth-col0-pos2-active1"><rect width="20.16" height="14.4" fill="transparent" stroke="none"/></a><path fill="#e6e6e6" fill-rule="nonzero" stroke="#000000" stroke-width="0.5" stroke-linecap="butt" stroke-linejoin="miter" stroke-miterlimit="4" transform="translate(64.92 91.8)" d="M 0 0m 10.08 0l 10.08 7.2l -10.08 7.2l -10.08 -7.2Z "/><a transform="translate(64.92 91.8)" href="bead://earth-col0-pos3-active0" xlink:href="bead://earth-col0-pos3-active0"><rect width="20.16" height="14.4" fill="transparent" stroke="none"/></a><path fill="#000000" fill-rule="nonzero" transform="translate(0 36)" d="M 0 0v 2.4h 90v -2.4Z "/></g></svg>