<svg class="typst-doc" viewBox="0 0 240 150" width="240pt" height="150pt" xmlns="http://www.w3.org/2000/svg" xmlns:xlink="http://www.w3.org/1999/xlink" xmlns:h5="http://www.w3.org/1999/xhtml">
    <path class="typst-shape" fill="#ffffff" fill-rule="nonzero" d="M 0 0 L 0 150 L 240 150 L 240 0 Z "/>
    <g>
        <g transform="translate(82.5 15)">
            <g class="typst-group">
                <g>
                    <g transform="translate(0 0)">
                        <g class="typst-group">
                            <g>
                                <g transform="translate(11 17)">
                                    <path class="typst-shape" fill="#eeeeee" fill-rule="nonzero" d="M 0 0 L 0 65.5 L 3 65.5 L 3 0 Z "/>
                                </g>
                                <g transform="translate(6.5 17)">
                                    <path class="typst-shape" fill="#1e88e5" fill-rule="nonzero" d="M 0 0.75 C 0 0.33578643 0.33578643 0 0.75 0 L 11.25 0 C 11.664213 0 12 0.33578643 12 0.75 L 12 11.25 C 12 11.664213 11.664213 12 11.25 12 L 0.75 12 C 0.33578643 12 0 11.664213 0 11.25 Z "/>
                                </g>
                                <g transform="translate(6.5 17)">
                                    <path class="typst-shape" fill="none" stroke="#000000" stroke-width="0.5" stroke-linecap="butt" stroke-linejoin="miter" stroke-miterlimit="4" d="M 0.75 0 L 11.25 0 C 11.664213 0 12 0.33578643 12 0.75 L 12 11.25 C 12 11.664213 11.664213 12 11.25 12 L 0.75 12 C 0.33578643 12 0 11.664213 0 11.25 L 0 0.75 C 0 0.33578643 0.33578643 0 0.75 0 "/>
                                </g>
                                <g transform="translate(6.5 33)">
                                    <path class="typst-shape" fill="#1e88e5" fill-rule="nonzero" d="M 0 0.75 C 0 0.33578643 0.33578643 0 0.75 0 L 11.25 0 C 11.664213 0 12 0.33578643 12 0.75 L 12 11.25 C 12 11.664213 11.664213 12 11.25 12 L 0.75 12 C 0.33578643 12 0 11.664213 0 11.25 Z "/>
                                </g>
                                <g transform="translate(6.5 33)">
                                    <path class="typst-shape" fill="none" stroke="#000000" stroke-width="0.5" stroke-linecap="butt" stroke-linejoin="miter" stroke-miterlimit="4" d="M 0.75 0 L 11.25 0 C 11.664213 0 12 0.33578643 12 0.75 L 12 11.25 C 12 11.664213 11.664213 12 11.25 12 L 0.75 12 C 0.33578643 12 0 11.664213 0 11.25 L 0 0.75 C 0 0.33578643 0.33578643 0 0.75 0 "/>
                                </g>
                                <g transform="translate(6.5 45.5)">
                                    <path class="typst-shape" fill="#1e88e5" fill-rule="nonzero" d="M 0 0.75 C 0 0.33578643 0.33578643 0 0.75 0 L 11.25 0 C 11.664213 0 12 0.33578643 12 0.75 L 12 11.25 C 12 11.664213 11.664213 12 11.25 12 L 0.75 12 C 0.33578643 12 0 11.664213 0 11.25 Z "/>
                                </g>
                                <g transform="translate(6.5 45.5)">
                                    <path class="typst-shape" fill="none" stroke="#000000" stroke-width="0.5" stroke-linecap="butt" stroke-linejoin="miter" stroke-miterlimit="4" d="M 0.75 0 L 11.25 0 C 11.664213 0 12 0.33578643 12 0.75 L 12 11.25 C 12 11.664213 11.664213 12 11.25 12 L 0.75 12 C 0.33578643 12 0 11.664213 0 11.25 L 0 0.75 C 0 0.33578643 0.33578643 0 0.75 0 "/>
                                </g>
                                <g transform="translate(6.5 58)">
                                    <path class="typst-shape" fill="#1e88e5" fill-rule="nonzero" d="M 0 0.75 C 0 0.33578643 0.33578643 0 0.75 0 L 11.25 0 C 11.664213 0 12 0.33578643 12 0.75 L 12 11.25 C 12 11.664213 11.664213 12 11.25 12 L 0.75 12 C 0.33578643 12 0 11.664213 0 11.25 Z "/>
                                </g>
                                <g transform="translate(6.5 58)">
                                    <path class="typst-shape" fill="none" stroke="#000000" stroke-width="0.5" stroke-linecap="butt" stroke-linejoin="miter" stroke-miterlimit="4" d="M 0.75 0 L 11.25 0 C 11.664213 0 12 0.33578643 12 0.75 L 12 11.25 C 12 11.664213 11.664213 12 11.25 12 L 0.75 12 C 0.33578643 12 0 11.664213 0 11.25 L 0 0.75 C 0 0.33578643 0.33578643 0 0.75 0 "/>
                                </g>
                                <g transform="translate(6.5 70.5)">
                                    <path class="typst-shape" fill="#1e88e5" fill-rule="nonzero" d="M 0 0.75 C 0 0.33578643 0.33578643 0 0.75 0 L 11.25 0 C 11.664213 0 12 0.33578643 12 0.75 L 12 11.25 C 12 11.664213 11.664213 12 11.25 12 L 0.75 12 C 0.33578643 12 0 11.664213 0 11.25 Z "/>
                                </g>
                                <g transform="translate(6.5 70.5)">
                                    <path class="typst-shape" fill="none" stroke="#000000" stroke-width="0.5" stroke-linecap="butt" stroke-linejoin="miter" stroke-miterlimit="4" d="M 0.75 0 L 11.25 0 C 11.664213 0 12 0.33578643 12 0.75 L 12 11.25 C 12 11.664213 11.664213 12 11.25 12 L 0.75 12 C 0.33578643 12 0 11.664213 0 11.25 L 0 0.75 C 0 0.33578643 0.33578643 0 0.75 0 "/>
                                </g>
                                <g transform="translate(36 17)">
                                    <path class="typst-shape" fill="#eeeeee" fill-rule="nonzero" d="M 0 0 L 0 65.5 L 3 65.5 L 3 0 Z "/>
                                </g>
                                <g transform="translate(31.5 17)">
                                    <path class="typst-shape" fill="#43a047" fill-rule="nonzero" d="M 0 0.75 C 0 0.33578643 0.33578643 0 0.75 0 L 11.25 0 C 11.664213 0 12 0.33578643 12 0.75 L 12 11.25 C 12 11.664213 11.664213 12 11.25 12 L 0.75 12 C 0.33578643 12 0 11.664213 0 11.25 Z "/>
                                </g>
                                <g transform="translate(31.5 17)">
                                    <path class="typst-shape" fill="none" stroke="#000000" stroke-width="0.5" stroke-linecap="butt" stroke-linejoin="miter" stroke-miterlimit="4" d="M 0.75 0 L 11.25 0 C 11.664213 0 12 0.33578643 12 0.75 L 12 11.25 C 12 11.664213 11.664213 12 11.25 12 L 0.75 12 C 0.33578643 12 0 11.664213 0 11.25 L 0 0.75 C 0 0.33578643 0.33578643 0 0.75 0 "/>
                                </g>
                                <g transform="translate(31.5 33)">
                                    <path class="typst-shape" fill="#43a047" fill-rule="nonzero" d="M 0 0.75 C 0 0.33578643 0.33578643 0 0.75 0 L 11.25 0 C 11.664213 0 12 0.33578643 12 0.75 L 12 11.25 C 12 11.664213 11.664213 12 11.25 12 L 0.75 12 C 0.33578643 12 0 11.664213 0 11.25 Z "/>
                                </g>
                                <g transform="translate(31.5 33)">
                                    <path class="typst-shape" fill="none" stroke="#000000" stroke-width="0.5" stroke-linecap="butt" stroke-linejoin="miter" stroke-miterlimit="4" d="M 0.75 0 L 11.25 0 C 11.664213 0 12 0.33578643 12 0.75 L 12 11.25 C 12 11.664213 11.664213 12 11.25 12 L 0.75 12 C 0.33578643 12 0 11.664213 0 11.25 L 0 0.75 C 0 0.33578643 0.33578643 0 0.75 0 "/>
                                </g>
                                <g transform="translate(31.5 45.5)">
                                    <path class="typst-shape" fill="#43a047" fill-rule="nonzero" d="M 0 0.75 C 0 0.33578643 0.33578643 0 0.75 0 L 11.25 0 C 11.664213 0 12 0.33578643 12 0.75 L 12 11.25 C 12 11.664213 11.664213 12 11.25 12 L 0.75 12 C 0.33578643 12 0 11.664213 0 11.25 Z "/>
                                </g>
                                <g transform="translate(31.5 45.5)">
                                    <path class="typst-shape" fill="none" stroke="#000000" stroke-width="0.5" stroke-linecap="butt" stroke-linejoin="miter" stroke-miterlimit="4" d="M 0.75 0 L 11.25 0 C 11.664213 0 12 0.33578643 12 0.75 L 12 11.25 C 12 11.664213 11.664213 12 11.25 12 L 0.75 12 C 0.33578643 12 0 11.664213 0 11.25 L 0 0.75 C 0 0.33578643 0.33578643 0 0.75 0 "/>
                                </g>
                                <g transform="translate(31.5 58)">
                                    <path class="typst-shape" fill="#43a047" fill-rule="nonzero" d="M 0 0.75 C 0 0.33578643 0.33578643 0 0.75 0 L 11.25 0 C 11.664213 0 12 0.33578643 12 0.75 L 12 11.25 C 12 11.664213 11.664213 12 11.25 12 L 0.75 12 C 0.33578643 12 0 11.664213 0 11.25 Z "/>
                                </g>
                                <g transform="translate(31.5 58)">
                                    <path class="typst-shape" fill="none" stroke="#000000" stroke-width="0.5" stroke-linecap="butt" stroke-linejoin="miter" stroke-miterlimit="4" d="M 0.75 0 L 11.25 0 C 11.664213 0 12 0.33578643 12 0.75 L 12 11.25 C 12 11.664213 11.664213 12 11.25 12 L 0.75 12 C 0.33578643 12 0 11.664213 0 11.25 L 0 0.75 C 0 0.33578643 0.33578643 0 0.75 0 "/>
                                </g>
                                <g transform="translate(31.5 70.5)">
                                    <path class="typst-shape" fill="#43a047" fill-rule="nonzero" d="M 0 0.75 C 0 0.33578643 0.33578643 0 0.75 0 L 11.25 0 C 11.664213 0 12 0.33578643 12 0.75 L 12 11.25 C 12 11.664213 11.664213 12 11.25 12 L 0.75 12 C 0.33578643 12 0 11.664213 0 11.25 Z "/>
                                </g>
                                <g transform="translate(31.5 70.5)">
                                    <path class="typst-shape" fill="none" stroke="#000000" stroke-width="0.5" stroke-linecap="butt" stroke-linejoin="miter" stroke-miterlimit="4" d="M 0.75 0 L 11.25 0 C 11.664213 0 12 0.33578643 12 0.75 L 12 11.25 C 12 11.664213 11.664213 12 11.25 12 L 0.75 12 C 0.33578643 12 0 11.664213 0 11.25 L 0 0.75 C 0 0.33578643 0.33578643 0 0.75 0 "/>
                                </g>
                                <g transform="translate(61 17)">
                                    <path class="typst-shape" fill="#eeeeee" fill-rule="nonzero" d="M 0 0 L 0 65.5 L 3 65.5 L 3 0 Z "/>
                                </g>
                                <g transform="translate(56.5 17)">
                                    <path class="typst-shape" fill="#1e88e5" fill-rule="nonzero" d="M 0 0.75 C 0 0.33578643 0.33578643 0 0.75 0 L 11.25 0 C 11.664213 0 12 0.33578643 12 0.75 L 12 11.25 C 12 11.664213 11.664213 12 11.25 12 L 0.75 12 C 0.33578643 12 0 11.664213 0 11.25 Z "/>
                                </g>
                                <g transform="translate(56.5 17)">
                                    <path class="typst-shape" fill="none" stroke="#000000" stroke-width="0.5" stroke-linecap="butt" stroke-linejoin="miter" stroke-miterlimit="4" d="M 0.75 0 L 11.25 0 C 11.664213 0 12 0.33578643 12 0.75 L 12 11.25 C 12 11.664213 11.664213 12 11.25 12 L 0.75 12 C 0.33578643 12 0 11.664213 0 11.25 L 0 0.75 C 0 0.33578643 0.33578643 0 0.75 0 "/>
                                </g>
                                <g transform="translate(56.5 33)">
                                    <path class="typst-shape" fill="#1e88e5" fill-rule="nonzero" d="M 0 0.75 C 0 0.33578643 0.33578643 0 0.75 0 L 11.25 0 C 11.664213 0 12 0.33578643 12 0.75 L 12 11.25 C 12 11.664213 11.664213 12 11.25 12 L 0.75 12 C 0.33578643 12 0 11.664213 0 11.25 Z "/>
                                </g>
                                <g transform="translate(56.5 33)">
                                    <path class="typst-shape" fill="none" stroke="#000000" stroke-width="0.5" stroke-linecap="butt" stroke-linejoin="miter" stroke-miterlimit="4" d="M 0.75 0 L 11.25 0 C 11.664213 0 12 0.33578643 12 0.75 L 12 11.25 C 12 11.664213 11.664213 12 11.25 12 L 0.75 12 C 0.33578643 12 0 11.664213 0 11.25 L 0 0.75 C 0 0.33578643 0.33578643 0 0.75 0 "/>
                                </g>
                                <g transform="translate(56.5 45.5)">
                                    <path class="typst-shape" fill="#1e88e5" fill-rule="nonzero" d="M 0 0.75 C 0 0.33578643 0.33578643 0 0.75 0 L 11.25 0 C 11.664213 0 12 0.33578643 12 0.75 L 12 11.25 C 12 11.664213 11.664213 12 11.25 12 L 0.75 12 C 0.33578643 12 0 11.664213 0 11.25 Z "/>
                                </g>
                                <g transform="translate(56.5 45.5)">
                                    <path class="typst-shape" fill="none" stroke="#000000" stroke-width="0.5" stroke-linecap="butt" stroke-linejoin="miter" stroke-miterlimit="4" d="M 0.75 0 L 11.25 0 C 11.664213 0 12 0.33578643 12 0.75 L 12 11.25 C 12 11.664213 11.664213 12 11.25 12 L 0.75 12 C 0.33578643 12 0 11.664213 0 11.25 L 0 0.75 C 0 0.33578643 0.33578643 0 0.75 0 "/>
                                </g>
                                <g transform="translate(56.5 58)">
                                    <path class="typst-shape" fill="#1e88e5" fill-rule="nonzero" d="M 0 0.75 C 0 0.33578643 0.33578643 0 0.75 0 L 11.25 0 C 11.664213 0 12 0.33578643 12 0.75 L 12 11.25 C 12 11.664213 11.664213 12 11.25 12 L 0.75 12 C 0.33578643 12 0 11.664213 0 11.25 Z "/>
                                </g>
                                <g transform="translate(56.5 58)">
                                    <path class="typst-shape" fill="none" stroke="#000000" stroke-width="0.5" stroke-linecap="butt" stroke-linejoin="miter" stroke-miterlimit="4" d="M 0.75 0 L 11.25 0 C 11.664213 0 12 0.33578643 12 0.75 L 12 11.25 C 12 11.664213 11.664213 12 11.25 12 L 0.75 12 C 0.33578643 12 0 11.664213 0 11.25 L 0 0.75 C 0 0.33578643 0.33578643 0 0.75 0 "/>
                                </g>
                                <g transform="translate(56.5 70.5)">
                                    <path class="typst-shape" fill="#1e88e5" fill-rule="nonzero" d="M 0 0.75 C 0 0.33578643 0.33578643 0 0.75 0 L 11.25 0 C 11.664213 0 12 0.33578643 12 0.75 L 12 11.25 C 12 11.664213 11.664213 12 11.25 12 L 0.75 12 C 0.33578643 12 0 11.664213 0 11.25 Z "/>
                                </g>
                                <g transform="translate(56.5 70.5)">
                                    <path class="typst-shape" fill="none" stroke="#000000" stroke-width="0.5" stroke-linecap="butt" stroke-linejoin="miter" stroke-miterlimit="4" d="M 0.75 0 L 11.25 0 C 11.664213 0 12 0.33578643 12 0.75 L 12 11.25 C 12 11.664213 11.664213 12 11.25 12 L 0.75 12 C 0.33578643 12 0 11.664213 0 11.25 L 0 0.75 C 0 0.33578643 0.33578643 0 0.75 0 "/>
                                </g>
                                <g transform="translate(0 30)">
                                    <path class="typst-shape" fill="#000000" fill-rule="nonzero" d="M 0 0 L 0 2 L 75 2 L 75 0 Z "/>
                                </g>
                            </g>
                        </g>
                    </g>
                </g>
            </g>
        </g>
    </g>
</svg>
