<svg class="typst-doc" viewBox="0 0 240 150" width="240pt" height="150pt" xmlns="http://www.w3.org/2000/svg" xmlns:xlink="http://www.w3.org/1999/xlink" xmlns:h5="http://www.w3.org/1999/xhtml">
    <path class="typst-shape" fill="#ffffff" fill-rule="nonzero" d="M 0 0v 150 h 240 v -150 Z "/>
    <g>
        <g class="typst-group" transform="matrix(1 0 0 1 82.5 15)">
            <g>
                <g class="typst-group">
                    <g>
                        <path class="typst-shape" fill="#eeeeee" fill-rule="nonzero" transform="matrix(1 0 0 1 11 17)" d="M 0 0v 65.5 h 3 v -65.5 Z "/>
                        <path class="typst-shape" fill="#1e88e5" fill-rule="nonzero" transform="matrix(1 0 0 1 6.5 17)" d="M 0 0m 0 0.75 c 0 -0.41421357 0.33578643 -0.75 0.75 -0.75 h 10.5 c 0.41421318 0 0.75 0.33578643 0.75 0.75 v 10.5 c 0 0.41421318 -0.33578682 0.75 -0.75 0.75 h -10.5 c -0.41421357 0 -0.75 -0.33578682 -0.75 -0.75 Z "/>
                        <path class="typst-shape" fill="none" stroke="#000000" stroke-width="0.5" stroke-linecap="butt" stroke-linejoin="miter" stroke-miterlimit="4" transform="matrix(1 0 0 1 6.5 17)" d="M 0 0m 0.75 0 h 10.5 c 0.41421318 0 0.75 0.33578643 0.75 0.75 v 10.5 c 0 0.41421318 -0.33578682 0.75 -0.75 0.75 h -10.5 c -0.41421357 0 -0.75 -0.33578682 -0.75 -0.75 v -10.5 c 0 -0.41421357 0.33578643 -0.75 0.75 -0.75 "/>
                        <a transform="matrix(1 0 0 1 6.5 17)" href="bead://heaven-col2-active1" xlink:href="bead://heaven-col2-active1">
                            <rect width="12" height="12" fill="transparent" stroke="none"/>
                        </a>
                        <path class="typst-shape" fill="#1e88e5" fill-rule="nonzero" transform="matrix(1 0 0 1 6.5 33)" d="M 0 0m 0 0.75 c 0 -0.41421357 0.33578643 -0.75 0.75 -0.75 h 10.5 c 0.41421318 0 0.75 0.33578643 0.75 0.75 v 10.5 c 0 0.41421318 -0.33578682 0.75 -0.75 0.75 h -10.5 c -0.41421357 0 -0.75 -0.33578682 -0.75 -0.75 Z "/>
                        <path class="typst-shape" fill="none" stroke="#000000" stroke-width="0.5" stroke-linecap="butt" stroke-linejoin="miter" stroke-miterlimit="4" transform="matrix(1 0 0 1 6.5 33)" d="M 0 0m 0.75 0 h 10.5 c 0.41421318 0 0.75 0.33578643 0.75 0.75 v 10.5 c 0 0.41421318 -0.33578682 0.75 -0.75 0.75 h -10.5 c -0.41421357 0 -0.75 -0.33578682 -0.75 -0.75 v -10.5 c 0 -0.41421357 0.33578643 -0.75 0.75 -0.75 "/>
                        <a transform="matrix(1 0 0 1 6.5 33)" href="bead://earth-col2-pos0-active1" xlink:href="bead://earth-col2-pos0-active1">
                            <rect width="12" height="12" fill="transparent" stroke="none"/>
                        </a>
                        <path class="typst-shape" fill="#1e88e5" fill-rule="nonzero" transform="matrix(1 0 0 1 6.5 45.5)" d="M 0 0m 0 0.75 c 0 -0.41421357 0.33578643 -0.75 0.75 -0.75 h 10.5 c 0.41421318 0 0.75 0.33578643 0.75 0.75 v 10.5 c 0 0.41421318 -0.33578682 0.75 -0.75 0.75 h -10.5 c -0.41421357 0 -0.75 -0.33578682 -0.75 -0.75 Z "/>
                        <path class="typst-shape" fill="none" stroke="#000000" stroke-width="0.5" stroke-linecap="butt" stroke-linejoin="miter" stroke-miterlimit="4" transform="matrix(1 0 0 1 6.5 45.5)" d="M 0 0m 0.75 0 h 10.5 c 0.41421318 0 0.75 0.33578643 0.75 0.75 v 10.5 c 0 0.41421318 -0.33578682 0.75 -0.75 0.75 h -10.5 c -0.41421357 0 -0.75 -0.33578682 -0.75 -0.75 v -10.5 c 0 -0.41421357 0.33578643 -0.75 0.75 -0.75 "/>
                        <a transform="matrix(1 0 0 1 6.5 45.5)" href="bead://earth-col2-pos1-active1" xlink:href="bead://earth-col2-pos1-active1">
                            <rect width="12" height="12" fill="transparent" stroke="none"/>
                        </a>
                        <path class="typst-shape" fill="#1e88e5" fill-rule="nonzero" transform="matrix(1 0 0 1 6.5 58)" d="M 0 0m 0 0.75 c 0 -0.41421357 0.33578643 -0.75 0.75 -0.75 h 10.5 c 0.41421318 0 0.75 0.33578643 0.75 0.75 v 10.5 c 0 0.41421318 -0.33578682 0.75 -0.75 0.75 h -10.5 c -0.41421357 0 -0.75 -0.33578682 -0.75 -0.75 Z "/>
                        <path class="typst-shape" fill="none" stroke="#000000" stroke-width="0.5" stroke-linecap="butt" stroke-linejoin="miter" stroke-miterlimit="4" transform="matrix(1 0 0 1 6.5 58)" d="M 0 0m 0.75 0 h 10.5 c 0.41421318 0 0.75 0.33578643 0.75 0.75 v 10.5 c 0 0.41421318 -0.33578682 0.75 -0.75 0.75 h -10.5 c -0.41421357 0 -0.75 -0.33578682 -0.75 -0.75 v -10.5 c 0 -0.41421357 0.33578643 -0.75 0.75 -0.75 "/>
                        <a transform="matrix(1 0 0 1 6.5 58)" href="bead://earth-col2-pos2-active1" xlink:href="bead://earth-col2-pos2-active1">
                            <rect width="12" height="12" fill="transparent" stroke="none"/>
                        </a>
                        <path class="typst-shape" fill="#1e88e5" fill-rule="nonzero" transform="matrix(1 0 0 1 6.5 70.5)" d="M 0 0m 0 0.75 c 0 -0.41421357 0.33578643 -0.75 0.75 -0.75 h 10.5 c 0.41421318 0 0.75 0.33578643 0.75 0.75 v 10.5 c 0 0.41421318 -0.33578682 0.75 -0.75 0.75 h -10.5 c -0.41421357 0 -0.75 -0.33578682 -0.75 -0.75 Z "/>
                        <path class="typst-shape" fill="none" stroke="#000000" stroke-width="0.5" stroke-linecap="butt" stroke-linejoin="miter" stroke-miterlimit="4" transform="matrix(1 0 0 1 6.5 70.5)" d="M 0 0m 0.75 0 h 10.5 c 0.41421318 0 0.75 0.33578643 0.75 0.75 v 10.5 c 0 0.41421318 -0.33578682 0.75 -0.75 0.75 h -10.5 c -0.41421357 0 -0.75 -0.33578682 -0.75 -0.75 v -10.5 c 0 -0.41421357 0.33578643 -0.75 0.75 -0.75 "/>
                        <a transform="matrix(1 0 0 1 6.5 70.5)" href="bead://earth-col2-pos3-active1" xlink:href="bead://earth-col2-pos3-active1">
                            <rect width="12" height="12" fill="transparent" stroke="none"/>
                        </a>
                        <path class="typst-shape" fill="#eeeeee" fill-rule="nonzero" transform="matrix(1 0 0 1 36 17)" d="M 0 0v 65.5 h 3 v -65.5 Z "/>
                        <path class="typst-shape" fill="#43a047" fill-rule="nonzero" transform="matrix(1 0 0 1 31.5 17)" d="M 0 0m 0 0.75 c 0 -0.41421357 0.33578643 -0.75 0.75 -0.75 h 10.5 c 0.41421318 0 0.75 0.33578643 0.75 0.75 v 10.5 c 0 0.41421318 -0.33578682 0.75 -0.75 0.75 h -10.5 c -0.41421357 0 -0.75 -0.33578682 -0.75 -0.75 Z "/>
                        <path class="typst-shape" fill="none" stroke="#000000" stroke-width="0.5" stroke-linecap="butt" stroke-linejoin="miter" stroke-miterlimit="4" transform="matrix(1 0 0 1 31.5 17)" d="M 0 0m 0.75 0 h 10.5 c 0.41421318 0 0.75 0.33578643 0.75 0.75 v 10.5 c 0 0.41421318 -0.33578682 0.75 -0.75 0.75 h -10.5 c -0.41421357 0 -0.75 -0.33578682 -0.75 -0.75 v -10.5 c 0 -0.41421357 0.33578643 -0.75 0.75 -0.75 "/>
                        <a transform="matrix(1 0 0 1 31.5 17)" href="bead://heaven-col1-active1" xlink:href="bead://heaven-col1-active1">
                            <rect width="12" height="12" fill="transparent" stroke="none"/>
                        </a>
                        <path class="typst-shape" fill="#43a047" fill-rule="nonzero" transform="matrix(1 0 0 1 31.5 33)" d="M 0 0m 0 0.75 c 0 -0.41421357 0.33578643 -0.75 0.75 -0.75 h 10.5 c 0.41421318 0 0.75 0.33578643 0.75 0.75 v 10.5 c 0 0.41421318 -0.33578682 0.75 -0.75 0.75 h -10.5 c -0.41421357 0 -0.75 -0.33578682 -0.75 -0.75 Z "/>
                        <path class="typst-shape" fill="none" stroke="#000000" stroke-width="0.5" stroke-linecap="butt" stroke-linejoin="miter" stroke-miterlimit="4" transform="matrix(1 0 0 1 31.5 33)" d="M 0 0m 0.75 0 h 10.5 c 0.41421318 0 0.75 0.33578643 0.75 0.75 v 10.5 c 0 0.41421318 -0.33578682 0.75 -0.75 0.75 h -10.5 c -0.41421357 0 -0.75 -0.33578682 -0.75 -0.75 v -10.5 c 0 -0.41421357 0.33578643 -0.75 0.75 -0.75 "/>
                        <a transform="matrix(1 0 0 1 31.5 33)" href="bead://earth-col1-pos0-active1" xlink:href="bead://earth-col1-pos0-active1">
                            <rect width="12" height="12" fill="transparent" stroke="none"/>
                        </a>
                        <path class="typst-shape" fill="#43a047" fill-rule="nonzero" transform="matrix(1 0 0 1 31.5 45.5)" d="M 0 0m 0 0.75 c 0 -0.41421357 0.33578643 -0.75 0.75 -0.75 h 10.5 c 0.41421318 0 0.75 0.33578643 0.75 0.75 v 10.5 c 0 0.41421318 -0.33578682 0.75 -0.75 0.75 h -10.5 c -0.41421357 0 -0.75 -0.33578682 -0.75 -0.75 Z "/>
                        <path class="typst-shape" fill="none" stroke="#000000" stroke-width="0.5" stroke-linecap="butt" stroke-linejoin="miter" stroke-miterlimit="4" transform="matrix(1 0 0 1 31.5 45.5)" d="M 0 0m 0.75 0 h 10.5 c 0.41421318 0 0.75 0.33578643 0.75 0.75 v 10.5 c 0 0.41421318 -0.33578682 0.75 -0.75 0.75 h -10.5 c -0.41421357 0 -0.75 -0.33578682 -0.75 -0.75 v -10.5 c 0 -0.41421357 0.33578643 -0.75 0.75 -0.75 "/>
                        <a transform="matrix(1 0 0 1 31.5 45.5)" href="bead://earth-col1-pos1-active1" xlink:href="bead://earth-col1-pos1-active1">
                            <rect width="12" height="12" fill="transparent" stroke="none"/>
                        </a>
                        <path class="typst-shape" fill="#43a047" fill-rule="nonzero" transform="matrix(1 0 0 1 31.5 58)" d="M 0 0m 0 0.75 c 0 -0.41421357 0.33578643 -0.75 0.75 -0.75 h 10.5 c 0.41421318 0 0.75 0.33578643 0.75 0.75 v 10.5 c 0 0.41421318 -0.33578682 0.75 -0.75 0.75 h -10.5 c -0.41421357 0 -0.75 -0.33578682 -0.75 -0.75 Z "/>
                        <path class="typst-shape" fill="none" stroke="#000000" stroke-width="0.5" stroke-linecap="butt" stroke-linejoin="miter" stroke-miterlimit="4" transform="matrix(1 0 0 1 31.5 58)" d="M 0 0m 0.75 0 h 10.5 c 0.41421318 0 0.75 0.33578643 0.75 0.75 v 10.5 c 0 0.41421318 -0.33578682 0.75 -0.75 0.75 h -10.5 c -0.41421357 0 -0.75 -0.33578682 -0.75 -0.75 v -10.5 c 0 -0.41421357 0.33578643 -0.75 0.75 -0.75 "/>
                        <a transform="matrix(1 0 0 1 31.5 58)" href="bead://earth-col1-pos2-active1" xlink:href="bead://earth-col1-pos2-active1">
                            <rect width="12" height="12" fill="transparent" stroke="none"/>
                        </a>
                        <path class="typst-shape" fill="#43a047" fill-rule="nonzero" transform="matrix(1 0 0 1 31.5 70.5)" d="M 0 0m 0 0.75 c 0 -0.41421357 0.33578643 -0.75 0.75 -0.75 h 10.5 c 0.41421318 0 0.75 0.33578643 0.75 0.75 v 10.5 c 0 0.41421318 -0.33578682 0.75 -0.75 0.75 h -10.5 c -0.41421357 0 -0.75 -0.33578682 -0.75 -0.75 Z "/>
                        <path class="typst-shape" fill="none" stroke="#000000" stroke-width="0.5" stroke-linecap="butt" stroke-linejoin="miter" stroke-miterlimit="4" transform="matrix(1 0 0 1 31.5 70.5)" d="M 0 0m 0.75 0 h 10.5 c 0.41421318 0 0.75 0.33578643 0.75 0.75 v 10.5 c 0 0.41421318 -0.33578682 0.75 -0.75 0.75 h -10.5 c -0.41421357 0 -0.75 -0.33578682 -0.75 -0.75 v -10.5 c 0 -0.41421357 0.33578643 -0.75 0.75 -0.75 "/>
                        <a transform="matrix(1 0 0 1 31.5 70.5)" href="bead://earth-col1-pos3-active1" xlink:href="bead://earth-col1-pos3-active1">
                            <rect width="12" height="12" fill="transparent" stroke="none"/>
                        </a>
                        <path class="typst-shape" fill="#eeeeee" fill-rule="nonzero" transform="matrix(1 0 0 1 61 17)" d="M 0 0v 65.5 h 3 v -65.5 Z "/>
                        <path class="typst-shape" fill="#1e88e5" fill-rule="nonzero" transform="matrix(1 0 0 1 56.5 17)" d="M 0 0m 0 0.75 c 0 -0.41421357 0.33578643 -0.75 0.75 -0.75 h 10.5 c 0.41421318 0 0.75 0.33578643 0.75 0.75 v 10.5 c 0 0.41421318 -0.33578682 0.75 -0.75 0.75 h -10.5 c -0.41421357 0 -0.75 -0.33578682 -0.75 -0.75 Z "/>
                        <path class="typst-shape" fill="none" stroke="#000000" stroke-width="0.5" stroke-linecap="butt" stroke-linejoin="miter" stroke-miterlimit="4" transform="matrix(1 0 0 1 56.5 17)" d="M 0 0m 0.75 0 h 10.5 c 0.41421318 0 0.75 0.33578643 0.75 0.75 v 10.5 c 0 0.41421318 -0.33578682 0.75 -0.75 0.75 h -10.5 c -0.41421357 0 -0.75 -0.33578682 -0.75 -0.75 v -10.5 c 0 -0.41421357 0.33578643 -0.75 0.75 -0.75 "/>
                        <a transform="matrix(1 0 0 1 56.5 17)" href="bead://heaven-col0-active1" xlink:href="bead://heaven-col0-active1">
                            <rect width="12" height="12" fill="transparent" stroke="none"/>
                        </a>
                        <path class="typst-shape" fill="#1e88e5" fill-rule="nonzero" transform="matrix(1 0 0 1 56.5 33)" d="M 0 0m 0 0.75 c 0 -0.41421357 0.33578643 -0.75 0.75 -0.75 h 10.5 c 0.41421318 0 0.75 0.33578643 0.75 0.75 v 10.5 c 0 0.41421318 -0.33578682 0.75 -0.75 0.75 h -10.5 c -0.41421357 0 -0.75 -0.33578682 -0.75 -0.75 Z "/>
                        <path class="typst-shape" fill="none" stroke="#000000" stroke-width="0.5" stroke-linecap="butt" stroke-linejoin="miter" stroke-miterlimit="4" transform="matrix(1 0 0 1 56.5 33)" d="M 0 0m 0.75 0 h 10.5 c 0.41421318 0 0.75 0.33578643 0.75 0.75 v 10.5 c 0 0.41421318 -0.33578682 0.75 -0.75 0.75 h -10.5 c -0.41421357 0 -0.75 -0.33578682 -0.75 -0.75 v -10.5 c 0 -0.41421357 0.33578643 -0.75 0.75 -0.75 "/>
                        <a transform="matrix(1 0 0 1 56.5 33)" href="bead://earth-col0-pos0-active1" xlink:href="bead://earth-col0-pos0-active1">
                            <rect width="12" height="12" fill="transparent" stroke="none"/>
                        </a>
                        <path class="typst-shape" fill="#1e88e5" fill-rule="nonzero" transform="matrix(1 0 0 1 56.5 45.5)" d="M 0 0m 0 0.75 c 0 -0.41421357 0.33578643 -0.75 0.75 -0.75 h 10.5 c 0.41421318 0 0.75 0.33578643 0.75 0.75 v 10.5 c 0 0.41421318 -0.33578682 0.75 -0.75 0.75 h -10.5 c -0.41421357 0 -0.75 -0.33578682 -0.75 -0.75 Z "/>
                        <path class="typst-shape" fill="none" stroke="#000000" stroke-width="0.5" stroke-linecap="butt" stroke-linejoin="miter" stroke-miterlimit="4" transform="matrix(1 0 0 1 56.5 45.5)" d="M 0 0m 0.75 0 h 10.5 c 0.41421318 0 0.75 0.33578643 0.75 0.75 v 10.5 c 0 0.41421318 -0.33578682 0.75 -0.75 0.75 h -10.5 c -0.41421357 0 -0.75 -0.33578682 -0.75 -0.75 v -10.5 c 0 -0.41421357 0.33578643 -0.75 0.75 -0.75 "/>
                        <a transform="matrix(1 0 0 1 56.5 45.5)" href="bead://earth-col0-pos1-active1" xlink:href="bead://earth-col0-pos1-active1">
                            <rect width="12" height="12" fill="transparent" stroke="none"/>
                        </a>
                        <path class="typst-shape" fill="#1e88e5" fill-rule="nonzero" transform="matrix(1 0 0 1 56.5 58)" d="M 0 0m 0 0.75 c 0 -0.41421357 0.33578643 -0.75 0.75 -0.75 h 10.5 c 0.41421318 0 0.75 0.33578643 0.75 0.75 v 10.5 c 0 0.41421318 -0.33578682 0.75 -0.75 0.75 h -10.5 c -0.41421357 0 -0.75 -0.33578682 -0.75 -0.75 Z "/>
                        <path class="typst-shape" fill="none" stroke="#000000" stroke-width="0.5" stroke-linecap="butt" stroke-linejoin="miter" stroke-miterlimit="4" transform="matrix(1 0 0 1 56.5 58)" d="M 0 0m 0.75 0 h 10.5 c 0.41421318 0 0.75 0.33578643 0.75 0.75 v 10.5 c 0 0.41421318 -0.33578682 0.75 -0.75 0.75 h -10.5 c -0.41421357 0 -0.75 -0.33578682 -0.75 -0.75 v -10.5 c 0 -0.41421357 0.33578643 -0.75 0.75 -0.75 "/>
                        <a transform="matrix(1 0 0 1 56.5 58)" href="bead://earth-col0-pos2-active1" xlink:href="bead://earth-col0-pos2-active1">
                            <rect width="12" height="12" fill="transparent" stroke="none"/>
                        </a>
                        <path class="typst-shape" fill="#1e88e5" fill-rule="nonzero" transform="matrix(1 0 0 1 56.5 70.5)" d="M 0 0m 0 0.75 c 0 -0.41421357 0.33578643 -0.75 0.75 -0.75 h 10.5 c 0.41421318 0 0.75 0.33578643 0.75 0.75 v 10.5 c 0 0.41421318 -0.33578682 0.75 -0.75 0.75 h -10.5 c -0.41421357 0 -0.75 -0.33578682 -0.75 -0.75 Z "/>
                        <path class="typst-shape" fill="none" stroke="#000000" stroke-width="0.5" stroke-linecap="butt" stroke-linejoin="miter" stroke-miterlimit="4" transform="matrix(1 0 0 1 56.5 70.5)" d="M 0 0m 0.75 0 h 10.5 c 0.41421318 0 0.75 0.33578643 0.75 0.75 v 10.5 c 0 0.41421318 -0.33578682 0.75 -0.75 0.75 h -10.5 c -0.41421357 0 -0.75 -0.33578682 -0.75 -0.75 v -10.5 c 0 -0.41421357 0.33578643 -0.75 0.75 -0.75 "/>
                        <a transform="matrix(1 0 0 1 56.5 70.5)" href="bead://earth-col0-pos3-active1" xlink:href="bead://earth-col0-pos3-active1">
                            <rect width="12" height="12" fill="transparent" stroke="none"/>
                        </a>
                        <path class="typst-shape" fill="#000000" fill-rule="nonzero" transform="matrix(1 0 0 1 0 30)" d="M 0 0v 2 h 75 v -2 Z "/>
                    </g>
                </g>
            </g>
        </g>
    </g>
</svg>
