<svg viewBox="0 0 240 150" width="240pt" height="150pt" xmlns="http://www.w3.org/2000/svg" xmlns:xlink="http://www.w3.org/1999/xlink" xmlns:h5="http://www.w3.org/1999/xhtml"><path fill="#ffffff" fill-rule="nonzero" d="M 0 0v 150h 240v -150Z "/><g transform="translate(82.5 15)"><path fill="#eeeeee" fill-rule="nonzero" transform="translate(11 17)" d="M 0 0v 65.5h 3v -65.5Z "/><path fill="#1e88e5" fill-rule="nonzero" transform="translate(6.5 17)" d="M 0 0m 0 0.75c 0 -0.414213562 0.335786438 -0.75 0.75 -0.75h 10.5c 0.414213562 0 0.75 0.335786438 0.75 0.75v 10.5c 0 0.414213562 -0.335786438 0.75 -0.75 0.75h -10.5c -0.414213562 0 -0.75 -0.335786438 -0.75 -0.75Z "/><path fill="none" stroke="#000000" stroke-width="0.5" stroke-linecap="butt" stroke-linejoin="miter" stroke-miterlimit="4" transform="translate(6.5 17)" d="M 0 0m 0.75 0h 10.5c 0.414213562 0 0.75 0.335786438 0.75 0.75v 10.5c 0 0.414213562 -0.335786438 0.75 -0.75 0.75h -10.5c -0.414213562 0 -0.75 -0.335786438 -0.75 -0.75v -10.5c 0 -0.414213562 0.335786438 -0.75 0.75 -0.75"/><a transform="translate(6.5 17)" href="bead://heaven-col2-active1" xlink:href="bead://heaven-col2-active1"><rect width="12" height="12" fill="transparent" stroke="none"/></a><path fill="#1e88e5" fill-rule="nonzero" transform="translate(6.5 33)" d="M 0 0m 0 0.75c 0 -0.414213562 0.335786438 -0.75 0.75 -0.75h 10.5c 0.414213562 0 0.75 0.335786438 0.75 0.75v 10.5c 0 0.414213562 -0.335786438 0.75 -0.75 0.75h -10.5c -0.414213562 0 -0.75 -0.335786438 -0.75 -0.75Z "/><path fill="none" stroke="#000000" stroke-width="0.5" stroke-linecap="butt" stroke-linejoin="miter" stroke-miterlimit="4" transform="translate(6.5 33)" d="M 0 0m 0.75 0h 10.5c 0.414213562 0 0.75 0.335786438 0.75 0.75v 10.5c 0 0.414213562 -0.335786438 0.75 -0.75 0.75h -10.5c -0.414213562 0 -0.75 -0.335786438 -0.75 -0.75v -10.5c 0 -0.414213562 0.335786438 -0.75 0.75 -0.75"/><a transform="translate(6.5 33)" href="bead://earth-col2-pos0-active1" xlink:href="bead://earth-col2-pos0-active1"><rect width="12" height="12" fill="transparent" stroke="none"/></a><path fill="#1e88e5" fill-rule="nonzero" transform="translate(6.5 45.5)" d="M 0 0m 0 0.75c 0 -0.414213562 0.335786438 -0.75 0.75 -0.75h 10.5c 0.414213562 0 0.75 0.335786438 0.75 0.75v 10.5c 0 0.414213562 -0.335786438 0.75 -0.75 0.75h -10.5c -0.414213562 0 -0.75 -0.335786438 -0.75 -0.75Z "/><path fill="none" stroke="#000000" stroke-width="0.5" stroke-linecap="butt" stroke-linejoin="miter" stroke-miterlimit="4" transform="translate(6.5 45.5)" d="M 0 0m 0.75 0h 10.5c 0.414213562 0 0.75 0.335786438 0.75 0.75v 10.5c 0 0.414213562 -0.335786438 0.75 -0.75 0.75h -10.5c -0.414213562 0 -0.75 -0.335786438 -0.75 -0.75v -10.5c 0 -0.414213562 0.335786438 -0.75 0.75 -0.75"/><a transform="translate(6.5 45.5)" href="bead://earth-col2-pos1-active1" xlink:href="bead://earth-col2-pos1-active1"><rect width="12" height="12" fill="transparent" stroke="none"/></a><path fill="#1e88e5" fill-rule="nonzero" transform="translate(6.5 58)" d="M 0 0m 0 0.75c 0 -0.414213562 0.335786438 -0.75 0.75 -0.75h 10.5c 0.414213562 0 0.75 0.335786438 0.75 0.75v 10.5c 0 0.414213562 -0.335786438 0.75 -0.75 0.75h -10.5c -0.414213562 0 -0.75 -0.335786438 -0.75 -0.75Z "/><path fill="none" stroke="#000000" stroke-width="0.5" stroke-linecap="butt" stroke-linejoin="miter" stroke-miterlimit="4" transform="translate(6.5 58)" d="M 0 0m 0.75 0h 10.5c 0.414213562 0 0.75 0.335786438 0.75 0.75v 10.5c 0 0.414213562 -0.335786438 0.75 -0.75 0.75h -10.5c -0.414213562 0 -0.75 -0.335786438 -0.75 -0.75v -10.5c 0 -0.414213562 0.335786438 -0.75 0.75 -0.75"/><a transform="translate(6.5 58)" href="bead://earth-col2-pos2-active1" xlink:href="bead://earth-col2-pos2-active1"><rect width="12" height="12" fill="transparent" stroke="none"/></a><path fill="#1e88e5" fill-rule="nonzero" transform="translate(6.5 70.5)" d="M 0 0m 0 0.75c 0 -0.414213562 0.335786438 -0.75 0.75 -0.75h 10.5c 0.414213562 0 0.75 0.335786438 0.75 0.75v 10.5c 0 0.414213562 -0.335786438 0.75 -0.75 0.75h -10.5c -0.414213562 0 -0.75 -0.335786438 -0.75 -0.75Z "/><path fill="none" stroke="#000000" stroke-width="0.5" stroke-linecap="butt" stroke-linejoin="miter" stroke-miterlimit="4" transform="translate(6.5 70.5)" d="M 0 0m 0.75 0h 10.5c 0.414213562 0 0.75 0.335786438 0.75 0.75v 10.5c 0 0.414213562 -0.335786438 0.75 -0.75 0.75h -10.5c -0.414213562 0 -0.75 -0.335786438 -0.75 -0.75v -10.5c 0 -0.414213562 0.335786438 -0.75 0.75 -0.75"/><a transform="translate(6.5 70.5)" href="bead://earth-col2-pos3-active1" xlink:href="bead://earth-col2-pos3-active1"><rect width="12" height="12" fill="transparent" stroke="none"/></a><path fill="#eeeeee" fill-rule="nonzero" transform="translate(36 17)" d="M 0 0v 65.5h 3v -65.5Z "/><path fill="#43a047" fill-rule="nonzero" transform="translate(31.5 17)" d="M 0 0m 0 0.75c 0 -0.414213562 0.335786438 -0.75 0.75 -0.75h 10.5c 0.414213562 0 0.75 0.335786438 0.75 0.75v 10.5c 0 0.414213562 -0.335786438 0.75 -0.75 0.75h -10.5c -0.414213562 0 -0.75 -0.335786438 -0.75 -0.75Z "/><path fill="none" stroke="#000000" stroke-width="0.5" stroke-linecap="butt" stroke-linejoin="miter" stroke-miterlimit="4" transform="translate(31.5 17)" d="M 0 0m 0.75 0h 10.5c 0.414213562 0 0.75 0.335786438 0.75 0.75v 10.5c 0 0.414213562 -0.335786438 0.75 -0.75 0.75h -10.5c -0.414213562 0 -0.75 -0.335786438 -0.75 -0.75v -10.5c 0 -0.414213562 0.335786438 -0.75 0.75 -0.75"/><a transform="translate(31.5 17)" href="bead://heaven-col1-active1" xlink:href="bead://heaven-col1-active1"><rect width="12" height="12" fill="transparent" stroke="none"/></a><path fill="#43a047" fill-rule="nonzero" transform="translate(31.5 33)" d="M 0 0m 0 0.75c 0 -0.414213562 0.335786438 -0.75 0.75 -0.75h 10.5c 0.414213562 0 0.75 0.335786438 0.75 0.75v 10.5c 0 0.414213562 -0.335786438 0.75 -0.75 0.75h -10.5c -0.414213562 0 -0.75 -0.335786438 -0.75 -0.75Z "/><path fill="none" stroke="#000000" stroke-width="0.5" stroke-linecap="butt" stroke-linejoin="miter" stroke-miterlimit="4" transform="translate(31.5 33)" d="M 0 0m 0.75 0h 10.5c 0.414213562 0 0.75 0.335786438 0.75 0.75v 10.5c 0 0.414213562 -0.335786438 0.75 -0.75 0.75h -10.5c -0.414213562 0 -0.75 -0.335786438 -0.75 -0.75v -10.5c 0 -0.414213562 0.335786438 -0.75 0.75 -0.75"/><a transform="translate(31.5 33)" href="bead://earth-col1-pos0-active1" xlink:href="bead://earth-col1-pos0-active1"><rect width="12" height="12" fill="transparent" stroke="none"/></a><path fill="#43a047" fill-rule="nonzero" transform="translate(31.5 45.5)" d="M 0 0m 0 0.75c 0 -0.414213562 0.335786438 -0.75 0.75 -0.75h 10.5c 0.414213562 0 0.75 0.335786438 0.75 0.75v 10.5c 0 0.414213562 -0.335786438 0.75 -0.75 0.75h -10.5c -0.414213562 0 -0.75 -0.335786438 -0.75 -0.75Z "/><path fill="none" stroke="#000000" stroke-width="0.5" stroke-linecap="butt" stroke-linejoin="miter" stroke-miterlimit="4" transform="translate(31.5 45.5)" d="M 0 0m 0.75 0h 10.5c 0.414213562 0 0.75 0.335786438 0.75 0.75v 10.5c 0 0.414213562 -0.335786438 0.75 -0.75 0.75h -10.5c -0.414213562 0 -0.75 -0.335786438 -0.75 -0.75v -10.5c 0 -0.414213562 0.335786438 -0.75 0.75 -0.75"/><a transform="translate(31.5 45.5)" href="bead://earth-col1-pos1-active1" xlink:href="bead://earth-col1-pos1-active1"><rect width="12" height="12" fill="transparent" stroke="none"/></a><path fill="#43a047" fill-rule="nonzero" transform="translate(31.5 58)" d="M 0 0m 0 0.75c 0 -0.414213562 0.335786438 -0.75 0.75 -0.75h 10.5c 0.414213562 0 0.75 0.335786438 0.75 0.75v 10.5c 0 0.414213562 -0.335786438 0.75 -0.75 0.75h -10.5c -0.414213562 0 -0.75 -0.335786438 -0.75 -0.75Z "/><path fill="none" stroke="#000000" stroke-width="0.5" stroke-linecap="butt" stroke-linejoin="miter" stroke-miterlimit="4" transform="translate(31.5 58)" d="M 0 0m 0.75 0h 10.5c 0.414213562 0 0.75 0.335786438 0.75 0.75v 10.5c 0 0.414213562 -0.335786438 0.75 -0.75 0.75h -10.5c -0.414213562 0 -0.75 -0.335786438 -0.75 -0.75v -10.5c 0 -0.414213562 0.335786438 -0.75 0.75 -0.75"/><a transform="translate(31.5 58)" href="bead://earth-col1-pos2-active1" xlink:href="bead://earth-col1-pos2-active1"><rect width="12" height="12" fill="transparent" stroke="none"/></a><path fill="#43a047" fill-rule="nonzero" transform="translate(31.5 70.5)" d="M 0 0m 0 0.75c 0 -0.414213562 0.335786438 -0.75 0.75 -0.75h 10.5c 0.414213562 0 0.75 0.335786438 0.75 0.75v 10.5c 0 0.414213562 -0.335786438 0.75 -0.75 0.75h -10.5c -0.414213562 0 -0.75 -0.335786438 -0.75 -0.75Z "/><path fill="none" stroke="#000000" stroke-width="0.5" stroke-linecap="butt" stroke-linejoin="miter" stroke-miterlimit="4" transform="translate(31.5 70.5)" d="M 0 0m 0.75 0h 10.5c 0.414213562 0 0.75 0.335786438 0.75 0.75v 10.5c 0 0.414213562 -0.335786438 0.75 -0.75 0.75h -10.5c -0.414213562 0 -0.75 -0.335786438 -0.75 -0.75v -10.5c 0 -0.414213562 0.335786438 -0.75 0.75 -0.75"/><a transform="translate(31.5 70.5)" href="bead://earth-col1-pos3-active1" xlink:href="bead://earth-col1-pos3-active1"><rect width="12" height="12" fill="transparent" stroke="none"/></a><path fill="#eeeeee" fill-rule="nonzero" transform="translate(61 17)" d="M 0 0v 65.5h 3v -65.5Z "/><path fill="#1e88e5" fill-rule="nonzero" transform="translate(56.5 17)" d="M 0 0m 0 0.75c 0 -0.414213562 0.335786438 -0.75 0.75 -0.75h 10.5c 0.414213562 0 0.75 0.335786438 0.75 0.75v 10.5c 0 0.414213562 -0.335786438 0.75 -0.75 0.75h -10.5c -0.414213562 0 -0.75 -0.335786438 -0.75 -0.75Z "/><path fill="none" stroke="#000000" stroke-width="0.5" stroke-linecap="butt" stroke-linejoin="miter" stroke-miterlimit="4" transform="translate(56.5 17)" d="M 0 0m 0.75 0h 10.5c 0.414213562 0 0.75 0.335786438 0.75 0.75v 10.5c 0 0.414213562 -0.335786438 0.75 -0.75 0.75h -10.5c -0.414213562 0 -0.75 -0.335786438 -0.75 -0.75v -10.5c 0 -0.414213562 0.335786438 -0.75 0.75 -0.75"/><a transform="translate(56.5 17)" href="bead://heaven-col0-active1" xlink:href="bead://heaven-col0-active1"><rect width="12" height="12" fill="transparent" stroke="none"/></a><path fill="#1e88e5" fill-rule="nonzero" transform="translate(56.5 33)" d="M 0 0m 0 0.75c 0 -0.414213562 0.335786438 -0.75 0.75 -0.75h 10.5c 0.414213562 0 0.75 0.335786438 0.75 0.75v 10.5c 0 0.414213562 -0.335786438 0.75 -0.75 0.75h -10.5c -0.414213562 0 -0.75 -0.335786438 -0.75 -0.75Z "/><path fill="none" stroke="#000000" stroke-width="0.5" stroke-linecap="butt" stroke-linejoin="miter" stroke-miterlimit="4" transform="translate(56.5 33)" d="M 0 0m 0.75 0h 10.5c 0.414213562 0 0.75 0.335786438 0.75 0.75v 10.5c 0 0.414213562 -0.335786438 0.75 -0.75 0.75h -10.5c -0.414213562 0 -0.75 -0.335786438 -0.75 -0.75v -10.5c 0 -0.414213562 0.335786438 -0.75 0.75 -0.75"/><a transform="translate(56.5 33)" href="bead://earth-col0-pos0-active1" xlink:href="bead://earth-col0-pos0-active1"><rect width="12" height="12" fill="transparent" stroke="none"/></a><path fill="#1e88e5" fill-rule="nonzero" transform="translate(56.5 45.5)" d="M 0 0m 0 0.75c 0 -0.414213562 0.335786438 -0.75 0.75 -0.75h 10.5c 0.414213562 0 0.75 0.335786438 0.75 0.75v 10.5c 0 0.414213562 -0.335786438 0.75 -0.75 0.75h -10.5c -0.414213562 0 -0.75 -0.335786438 -0.75 -0.75Z "/><path fill="none" stroke="#000000" stroke-width="0.5" stroke-linecap="butt" stroke-linejoin="miter" stroke-miterlimit="4" transform="translate(56.5 45.5)" d="M 0 0m 0.75 0h 10.5c 0.414213562 0 0.75 0.335786438 0.75 0.75v 10.5c 0 0.414213562 -0.335786438 0.75 -0.75 0.75h -10.5c -0.414213562 0 -0.75 -0.335786438 -0.75 -0.75v -10.5c 0 -0.414213562 0.335786438 -0.75 0.75 -0.75"/><a transform="translate(56.5 45.5)" href="bead://earth-col0-pos1-active1" xlink:href="bead://earth-col0-pos1-active1"><rect width="12" height="12" fill="transparent" stroke="none"/></a><path fill="#1e88e5" fill-rule="nonzero" transform="translate(56.5 58)" d="M 0 0m 0 0.75c 0 -0.414213562 0.335786438 -0.75 0.75 -0.75h 10.5c 0.414213562 0 0.75 0.335786438 0.75 0.75v 10.5c 0 0.414213562 -0.335786438 0.75 -0.75 0.75h -10.5c -0.414213562 0 -0.75 -0.335786438 -0.75 -0.75Z "/><path fill="none" stroke="#000000" stroke-width="0.5" stroke-linecap="butt" stroke-linejoin="miter" stroke-miterlimit="4" transform="translate(56.5 58)" d="M 0 0m 0.75 0h 10.5c 0.414213562 0 0.75 0.335786438 0.75 0.75v 10.5c 0 0.414213562 -0.335786438 0.75 -0.75 0.75h -10.5c -0.414213562 0 -0.75 -0.335786438 -0.75 -0.75v -10.5c 0 -0.414213562 0.335786438 -0.75 0.75 -0.75"/><a transform="translate(56.5 58)" href="bead://earth-col0-pos2-active1" xlink:href="bead://earth-col0-pos2-active1"><rect width="12" height="12" fill="transparent" stroke="none"/></a><path fill="#1e88e5" fill-rule="nonzero" transform="translate(56.5 70.5)" d="M 0 0m 0 0.75c 0 -0.414213562 0.335786438 -0.75 0.75 -0.75h 10.5c 0.414213562 0 0.75 0.335786438 0.75 0.75v 10.5c 0 0.414213562 -0.335786438 0.75 -0.75 0.75h -10.5c -0.414213562 0 -0.75 -0.335786438 -0.75 -0.75Z "/><path fill="none" stroke="#000000" stroke-width="0.5" stroke-linecap="butt" stroke-linejoin="miter" stroke-miterlimit="4" transform="translate(56.5 70.5)" d="M 0 0m 0.75 0h 10.5c 0.414213562 0 0.75 0.335786438 0.75 0.75v 10.5c 0 0.414213562 -0.335786438 0.75 -0.75 0.75h -10.5c -0.414213562 0 -0.75 -0.335786438 -0.75 -0.75v -10.5c 0 -0.414213562 0.335786438 -0.75 0.75 -0.75"/><a transform="translate(56.5 70.5)" href="bead://earth-col0-pos3-active1" xlink:href="bead://earth-col0-pos3-active1"><rect width="12" height="12" fill="transparent" stroke="none"/></a><path fill="#000000" fill-rule="nonzero" transform="translate(0 30)" d="M 0 0v 2h 75v -2Z "/></g></svg>