<svg viewBox="0 0 240 280" width="240pt" height="280pt" xmlns="http://www.w3.org/2000/svg" xmlns:xlink="http://www.w3.org/1999/xlink" xmlns:h5="http://www.w3.org/1999/xhtml"><path fill="#ffffff" fill-rule="nonzero" d="M 0 0v 280h 240v -280Z "/><g transform="translate(95 25)"><path fill="#eeeeee" fill-rule="nonzero" transform="translate(22 28)" d="M 0 0v 143h 6v -143Z "/><g transform="translate(13 28)"><path fill="#e6e6e6" fill-rule="nonzero" stroke="#000000" stroke-width="0.5" stroke-linecap="butt" stroke-linejoin="miter" stroke-miterlimit="4" d="M 0 0m 0 12c 0 -6.621408 5.378592 -12 12 -12c 6.621408 0 12 5.378592 12 12c 0 6.621408 -5.378592 12 -12 12c -6.621408 0 -12 -5.378592 -12 -12"/></g><a transform="translate(13 28)" href="bead://heaven-col0-active0" xlink:href="bead://heaven-col0-active0"><rect width="24" height="24" fill="transparent" stroke="none"/></a><g transform="translate(13 72)"><path fill="#e6e6e6" fill-rule="nonzero" stroke="#000000" stroke-width="0.5" stroke-linecap="butt" stroke-linejoin="miter" stroke-miterlimit="4" d="M 0 0m 0 12c 0 -6.621408 5.378592 -12 12 -12c 6.621408 0 12 5.378592 12 12c 0 6.621408 -5.378592 12 -12 12c -6.621408 0 -12 -5.378592 -12 -12"/></g><a transform="translate(13 72)" href="bead://earth-col0-pos0-active0" xlink:href="bead://earth-col0-pos0-active0"><rect width="24" height="24" fill="transparent" stroke="none"/></a><g transform="translate(13 97)"><path fill="#e6e6e6" fill-rule="nonzero" stroke="#000000" stroke-width="0.5" stroke-linecap="butt" stroke-linejoin="miter" stroke-miterlimit="4" d="M 0 0m 0 12c 0 -6.621408 5.378592 -12 12 -12c 6.621408 0 12 5.378592 12 12c 0 6.621408 -5.378592 12 -12 12c -6.621408 0 -12 -5.378592 -12 -12"/></g><a transform="translate(13 97)" href="bead://earth-col0-pos1-active0" xlink:href="bead://earth-col0-pos1-active0"><rect width="24" height="24" fill="transparent" stroke="none"/></a><g transform="translate(13 122)"><path fill="#e6e6e6" fill-rule="nonzero" stroke="#000000" stroke-width="0.5" stroke-linecap="butt" stroke-linejoin="miter" stroke-miterlimit="4" d="M 0 0m 0 12c 0 -6.621408 5.378592 -12 12 -12c 6.621408 0 12 5.378592 12 12c 0 6.621408 -5.378592 12 -12 12c -6.621408 0 -12 -5.378592 -12 -12"/></g><a transform="translate(13 122)" href="bead://earth-col0-pos2-active0" xlink:href="bead://earth-col0-pos2-active0"><rect width="24" height="24" fill="transparent" stroke="none"/></a><g transform="translate(13 147)"><path fill="#e6e6e6" fill-rule="nonzero" stroke="#000000" stroke-width="0.5" stroke-linecap="butt" stroke-linejoin="miter" stroke-miterlimit="4" d="M 0 0m 0 12c 0 -6.621408 5.378592 -12 12 -12c 6.621408 0 12 5.378592 12 12c 0 6.621408 -5.378592 12 -12 12c -6.621408 0 -12 -5.378592 -12 -12"/></g><a transform="translate(13 147)" href="bead://earth-col0-pos3-active0" xlink:href="bead://earth-col0-pos3-active0"><rect width="24" height="24" fill="transparent" stroke="none"/></a><path fill="#000000" fill-rule="nonzero" transform="translate(0 60)" d="M 0 0v 4h 50v -4Z "/><path fill="#ff4136" fill-rule="nonzero" stroke="#ff4136" stroke-width="0.5" stroke-linecap="butt" stroke-linejoin="miter" stroke-miterlimit="4" stroke-dashoffset="0" stroke-dasharray="3 3" transform="translate(-24)" d="M 0 0v 196h 0.5v -196Z "/><path fill="#ff4136" fill-rule="nonzero" stroke="#ff4136" stroke-width="0.5" stroke-linecap="butt" stroke-linejoin="miter" stroke-miterlimit="4" stroke-dashoffset="0" stroke-dasharray="3 3" transform="translate(74)" d="M 0 0v 196h 0.5v -196Z "/><path fill="#ff4136" fill-rule="nonzero" stroke="#ff4136" stroke-width="0.5" stroke-linecap="butt" stroke-linejoin="miter" stroke-miterlimit="4" stroke-dashoffset="0" stroke-dasharray="3 3" transform="translate(-24)" d="M 0 0v 0.5h 98v -0.5Z "/><path fill="#ff4136" fill-rule="nonzero" stroke="#ff4136" stroke-width="0.5" stroke-linecap="butt" stroke-linejoin="miter" stroke-miterlimit="4" stroke-dashoffset="0" stroke-dasharray="3 3" transform="translate(-24 196)" d="M 0 0v 0.5h 98v -0.5Z "/><path fill="#ff4136" fill-rule="nonzero" transform="translate(-24 60.5)" d="M 0 0v 0.1h 0.1v -0.1Z "/><a transform="translate(-24 60.5)" href="crop-mark://left" xlink:href="crop-mark://left"><rect width="0.1" height="0.1" fill="transparent" stroke="none"/></a><path fill="#ff4136" fill-rule="nonzero" transform="translate(74 60.5)" d="M 0 0v 0.1h 0.1v -0.1Z "/><a transform="translate(74 60.5)" href="crop-mark://right" xlink:href="crop-mark://right"><rect width="0.1" height="0.1" fill="transparent" stroke="none"/></a><path fill="#ff4136" fill-rule="nonzero" transform="translate(23.5)" d="M 0 0v 0.1h 0.1v -0.1Z "/><a transform="translate(23.5)" href="crop-mark://top" xlink:href="crop-mark://top"><rect width="0.1" height="0.1" fill="transparent" stroke="none"/></a><path fill="#ff4136" fill-rule="nonzero" transform="translate(23.5 196)" d="M 0 0v 0.1h 0.1v -0.1Z "/><a transform="translate(23.5 196)" href="crop-mark://bottom" xlink:href="crop-mark://bottom"><rect width="0.1" height="0.1" fill="transparent" stroke="none"/></a></g></svg>