<svg class="typst-doc" viewBox="0 0 274 160" width="274pt" height="160pt" xmlns="http://www.w3.org/2000/svg" xmlns:xlink="http://www.w3.org/1999/xlink" xmlns:h5="http://www.w3.org/1999/xhtml">
    <path class="typst-shape" fill="#ffffff" fill-rule="nonzero" d="M 0 0v 160 h 274 v -160 Z "/>
    <g>
        <g class="typst-group" transform="matrix(1 0 0 1 95.75 14.5)">
            <g>
                <g class="typst-group">
                    <g>
                        <path class="typst-shape" fill="#eeeeee" fill-rule="nonzero" transform="matrix(1 0 0 1 12.100000000000001 11.8)" d="M 0 0v 86.3 h 3.3 v -86.3 Z "/>
                        <g class="typst-group" transform="matrix(1 0 0 1 7.150000000000001 11.8)">
                            <g>
                                <path class="typst-shape" fill="#e6e6e6" fill-rule="nonzero" stroke="#000000" stroke-width="0.5" stroke-linecap="butt" stroke-linejoin="miter" stroke-miterlimit="4" d="M 0 0m 0 6.6 c 0 -3.6417744 2.9582255 -6.6 6.6 -6.6 c 3.6417747 0 6.6 2.9582255 6.6 6.6 c 0 3.6417747 -2.9582253 6.6 -6.6 6.6 c -3.6417744 0 -6.6 -2.9582253 -6.6 -6.6 "/>
                            </g>
                        </g>
                        <a transform="matrix(1 0 0 1 7.150000000000001 11.8)" href="bead://heaven-col2-active0" xlink:href="bead://heaven-col2-active0">
                            <rect width="13.200000000000001" height="13.200000000000001" fill="transparent" stroke="none"/>
                        </a>
                        <g class="typst-group" transform="matrix(1 0 0 1 7.150000000000001 36.199999999999996)">
                            <g>
                                <path class="typst-shape" fill="#f18f01" fill-rule="nonzero" stroke="#000000" stroke-width="0.5" stroke-linecap="butt" stroke-linejoin="miter" stroke-miterlimit="4" d="M 0 0m 0 6.6 c 0 -3.6417744 2.9582255 -6.6 6.6 -6.6 c 3.6417747 0 6.6 2.9582255 6.6 6.6 c 0 3.6417747 -2.9582253 6.6 -6.6 6.6 c -3.6417744 0 -6.6 -2.9582253 -6.6 -6.6 "/>
                            </g>
                        </g>
                        <a transform="matrix(1 0 0 1 7.150000000000001 36.199999999999996)" href="bead://earth-col2-pos0-active1" xlink:href="bead://earth-col2-pos0-active1">
                            <rect width="13.200000000000001" height="13.200000000000001" fill="transparent" stroke="none"/>
                        </a>
                        <g class="typst-group" transform="matrix(1 0 0 1 7.150000000000001 49.949999999999996)">
                            <g>
                                <path class="typst-shape" fill="#f18f01" fill-rule="nonzero" stroke="#000000" stroke-width="0.5" stroke-linecap="butt" stroke-linejoin="miter" stroke-miterlimit="4" d="M 0 0m 0 6.6 c 0 -3.6417744 2.9582255 -6.6 6.6 -6.6 c 3.6417747 0 6.6 2.9582255 6.6 6.6 c 0 3.6417747 -2.9582253 6.6 -6.6 6.6 c -3.6417744 0 -6.6 -2.9582253 -6.6 -6.6 "/>
                            </g>
                        </g>
                        <a transform="matrix(1 0 0 1 7.150000000000001 49.949999999999996)" href="bead://earth-col2-pos1-active1" xlink:href="bead://earth-col2-pos1-active1">
                            <rect width="13.200000000000001" height="13.200000000000001" fill="transparent" stroke="none"/>
                        </a>
                        <g class="typst-group" transform="matrix(1 0 0 1 7.150000000000001 63.69999999999999)">
                            <g>
                                <path class="typst-shape" fill="#f18f01" fill-rule="nonzero" stroke="#000000" stroke-width="0.5" stroke-linecap="butt" stroke-linejoin="miter" stroke-miterlimit="4" d="M 0 0m 0 6.6 c 0 -3.6417744 2.9582255 -6.6 6.6 -6.6 c 3.6417747 0 6.6 2.9582255 6.6 6.6 c 0 3.6417747 -2.9582253 6.6 -6.6 6.6 c -3.6417744 0 -6.6 -2.9582253 -6.6 -6.6 "/>
                            </g>
                        </g>
                        <a transform="matrix(1 0 0 1 7.150000000000001 63.69999999999999)" href="bead://earth-col2-pos2-active1" xlink:href="bead://earth-col2-pos2-active1">
                            <rect width="13.200000000000001" height="13.200000000000001" fill="transparent" stroke="none"/>
                        </a>
                        <g class="typst-group" transform="matrix(1 0 0 1 7.150000000000001 84.89999999999999)">
                            <g>
                                <path class="typst-shape" fill="#e6e6e6" fill-rule="nonzero" stroke="#000000" stroke-width="0.5" stroke-linecap="butt" stroke-linejoin="miter" stroke-miterlimit="4" d="M 0 0m 0 6.6 c 0 -3.6417744 2.9582255 -6.6 6.6 -6.6 c 3.6417747 0 6.6 2.9582255 6.6 6.6 c 0 3.6417747 -2.9582253 6.6 -6.6 6.6 c -3.6417744 0 -6.6 -2.9582253 -6.6 -6.6 "/>
                            </g>
                        </g>
                        <a transform="matrix(1 0 0 1 7.150000000000001 84.89999999999999)" href="bead://earth-col2-pos3-active0" xlink:href="bead://earth-col2-pos3-active0">
                            <rect width="13.200000000000001" height="13.200000000000001" fill="transparent" stroke="none"/>
                        </a>
                        <path class="typst-shape" fill="#eeeeee" fill-rule="nonzero" transform="matrix(1 0 0 1 39.60000000000001 11.8)" d="M 0 0v 86.3 h 3.3 v -86.3 Z "/>
                        <g class="typst-group" transform="matrix(1 0 0 1 34.650000000000006 11.8)">
                            <g>
                                <path class="typst-shape" fill="#e6e6e6" fill-rule="nonzero" stroke="#000000" stroke-width="0.5" stroke-linecap="butt" stroke-linejoin="miter" stroke-miterlimit="4" d="M 0 0m 0 6.6 c 0 -3.6417744 2.9582255 -6.6 6.6 -6.6 c 3.6417747 0 6.6 2.9582255 6.6 6.6 c 0 3.6417747 -2.9582253 6.6 -6.6 6.6 c -3.6417744 0 -6.6 -2.9582253 -6.6 -6.6 "/>
                            </g>
                        </g>
                        <a transform="matrix(1 0 0 1 34.650000000000006 11.8)" href="bead://heaven-col1-active0" xlink:href="bead://heaven-col1-active0">
                            <rect width="13.200000000000001" height="13.200000000000001" fill="transparent" stroke="none"/>
                        </a>
                        <g class="typst-group" transform="matrix(1 0 0 1 34.650000000000006 36.199999999999996)">
                            <g>
                                <path class="typst-shape" fill="#a23b72" fill-rule="nonzero" stroke="#000000" stroke-width="0.5" stroke-linecap="butt" stroke-linejoin="miter" stroke-miterlimit="4" d="M 0 0m 0 6.6 c 0 -3.6417744 2.9582255 -6.6 6.6 -6.6 c 3.6417747 0 6.6 2.9582255 6.6 6.6 c 0 3.6417747 -2.9582253 6.6 -6.6 6.6 c -3.6417744 0 -6.6 -2.9582253 -6.6 -6.6 "/>
                            </g>
                        </g>
                        <a transform="matrix(1 0 0 1 34.650000000000006 36.199999999999996)" href="bead://earth-col1-pos0-active1" xlink:href="bead://earth-col1-pos0-active1">
                            <rect width="13.200000000000001" height="13.200000000000001" fill="transparent" stroke="none"/>
                        </a>
                        <g class="typst-group" transform="matrix(1 0 0 1 34.650000000000006 49.949999999999996)">
                            <g>
                                <path class="typst-shape" fill="#a23b72" fill-rule="nonzero" stroke="#000000" stroke-width="0.5" stroke-linecap="butt" stroke-linejoin="miter" stroke-miterlimit="4" d="M 0 0m 0 6.6 c 0 -3.6417744 2.9582255 -6.6 6.6 -6.6 c 3.6417747 0 6.6 2.9582255 6.6 6.6 c 0 3.6417747 -2.9582253 6.6 -6.6 6.6 c -3.6417744 0 -6.6 -2.9582253 -6.6 -6.6 "/>
                            </g>
                        </g>
                        <a transform="matrix(1 0 0 1 34.650000000000006 49.949999999999996)" href="bead://earth-col1-pos1-active1" xlink:href="bead://earth-col1-pos1-active1">
                            <rect width="13.200000000000001" height="13.200000000000001" fill="transparent" stroke="none"/>
                        </a>
                        <g class="typst-group" transform="matrix(1 0 0 1 34.650000000000006 71.14999999999999)">
                            <g>
                                <path class="typst-shape" fill="#e6e6e6" fill-rule="nonzero" stroke="#000000" stroke-width="0.5" stroke-linecap="butt" stroke-linejoin="miter" stroke-miterlimit="4" d="M 0 0m 0 6.6 c 0 -3.6417744 2.9582255 -6.6 6.6 -6.6 c 3.6417747 0 6.6 2.9582255 6.6 6.6 c 0 3.6417747 -2.9582253 6.6 -6.6 6.6 c -3.6417744 0 -6.6 -2.9582253 -6.6 -6.6 "/>
                            </g>
                        </g>
                        <a transform="matrix(1 0 0 1 34.650000000000006 71.14999999999999)" href="bead://earth-col1-pos2-active0" xlink:href="bead://earth-col1-pos2-active0">
                            <rect width="13.200000000000001" height="13.200000000000001" fill="transparent" stroke="none"/>
                        </a>
                        <g class="typst-group" transform="matrix(1 0 0 1 34.650000000000006 84.89999999999999)">
                            <g>
                                <path class="typst-shape" fill="#e6e6e6" fill-rule="nonzero" stroke="#000000" stroke-width="0.5" stroke-linecap="butt" stroke-linejoin="miter" stroke-miterlimit="4" d="M 0 0m 0 6.6 c 0 -3.6417744 2.9582255 -6.6 6.6 -6.6 c 3.6417747 0 6.6 2.9582255 6.6 6.6 c 0 3.6417747 -2.9582253 6.6 -6.6 6.6 c -3.6417744 0 -6.6 -2.9582253 -6.6 -6.6 "/>
                            </g>
                        </g>
                        <a transform="matrix(1 0 0 1 34.650000000000006 84.89999999999999)" href="bead://earth-col1-pos3-active0" xlink:href="bead://earth-col1-pos3-active0">
                            <rect width="13.200000000000001" height="13.200000000000001" fill="transparent" stroke="none"/>
                        </a>
                        <path class="typst-shape" fill="#eeeeee" fill-rule="nonzero" transform="matrix(1 0 0 1 67.10000000000002 11.8)" d="M 0 0v 86.3 h 3.3 v -86.3 Z "/>
                        <g class="typst-group" transform="matrix(1 0 0 1 62.15000000000001 11.8)">
                            <g>
                                <path class="typst-shape" fill="#e6e6e6" fill-rule="nonzero" stroke="#000000" stroke-width="0.5" stroke-linecap="butt" stroke-linejoin="miter" stroke-miterlimit="4" d="M 0 0m 0 6.6 c 0 -3.6417744 2.9582255 -6.6 6.6 -6.6 c 3.6417747 0 6.6 2.9582255 6.6 6.6 c 0 3.6417747 -2.9582253 6.6 -6.6 6.6 c -3.6417744 0 -6.6 -2.9582253 -6.6 -6.6 "/>
                            </g>
                        </g>
                        <a transform="matrix(1 0 0 1 62.15000000000001 11.8)" href="bead://heaven-col0-active0" xlink:href="bead://heaven-col0-active0">
                            <rect width="13.200000000000001" height="13.200000000000001" fill="transparent" stroke="none"/>
                        </a>
                        <g class="typst-group" transform="matrix(1 0 0 1 62.15000000000001 36.199999999999996)">
                            <g>
                                <path class="typst-shape" fill="#2e86ab" fill-rule="nonzero" stroke="#000000" stroke-width="0.5" stroke-linecap="butt" stroke-linejoin="miter" stroke-miterlimit="4" d="M 0 0m 0 6.6 c 0 -3.6417744 2.9582255 -6.6 6.6 -6.6 c 3.6417747 0 6.6 2.9582255 6.6 6.6 c 0 3.6417747 -2.9582253 6.6 -6.6 6.6 c -3.6417744 0 -6.6 -2.9582253 -6.6 -6.6 "/>
                            </g>
                        </g>
                        <a transform="matrix(1 0 0 1 62.15000000000001 36.199999999999996)" href="bead://earth-col0-pos0-active1" xlink:href="bead://earth-col0-pos0-active1">
                            <rect width="13.200000000000001" height="13.200000000000001" fill="transparent" stroke="none"/>
                        </a>
                        <g class="typst-group" transform="matrix(1 0 0 1 62.15000000000001 57.39999999999999)">
                            <g>
                                <path class="typst-shape" fill="#e6e6e6" fill-rule="nonzero" stroke="#000000" stroke-width="0.5" stroke-linecap="butt" stroke-linejoin="miter" stroke-miterlimit="4" d="M 0 0m 0 6.6 c 0 -3.6417744 2.9582255 -6.6 6.6 -6.6 c 3.6417747 0 6.6 2.9582255 6.6 6.6 c 0 3.6417747 -2.9582253 6.6 -6.6 6.6 c -3.6417744 0 -6.6 -2.9582253 -6.6 -6.6 "/>
                            </g>
                        </g>
                        <a transform="matrix(1 0 0 1 62.15000000000001 57.39999999999999)" href="bead://earth-col0-pos1-active0" xlink:href="bead://earth-col0-pos1-active0">
                            <rect width="13.200000000000001" height="13.200000000000001" fill="transparent" stroke="none"/>
                        </a>
                        <g class="typst-group" transform="matrix(1 0 0 1 62.15000000000001 71.14999999999999)">
                            <g>
                                <path class="typst-shape" fill="#e6e6e6" fill-rule="nonzero" stroke="#000000" stroke-width="0.5" stroke-linecap="butt" stroke-linejoin="miter" stroke-miterlimit="4" d="M 0 0m 0 6.6 c 0 -3.6417744 2.9582255 -6.6 6.6 -6.6 c 3.6417747 0 6.6 2.9582255 6.6 6.6 c 0 3.6417747 -2.9582253 6.6 -6.6 6.6 c -3.6417744 0 -6.6 -2.9582253 -6.6 -6.6 "/>
                            </g>
                        </g>
                        <a transform="matrix(1 0 0 1 62.15000000000001 71.14999999999999)" href="bead://earth-col0-pos2-active0" xlink:href="bead://earth-col0-pos2-active0">
                            <rect width="13.200000000000001" height="13.200000000000001" fill="transparent" stroke="none"/>
                        </a>
                        <g class="typst-group" transform="matrix(1 0 0 1 62.15000000000001 84.89999999999999)">
                            <g>
                                <path class="typst-shape" fill="#e6e6e6" fill-rule="nonzero" stroke="#000000" stroke-width="0.5" stroke-linecap="butt" stroke-linejoin="miter" stroke-miterlimit="4" d="M 0 0m 0 6.6 c 0 -3.6417744 2.9582255 -6.6 6.6 -6.6 c 3.6417747 0 6.6 2.9582255 6.6 6.6 c 0 3.6417747 -2.9582253 6.6 -6.6 6.6 c -3.6417744 0 -6.6 -2.9582253 -6.6 -6.6 "/>
                            </g>
                        </g>
                        <a transform="matrix(1 0 0 1 62.15000000000001 84.89999999999999)" href="bead://earth-col0-pos3-active0" xlink:href="bead://earth-col0-pos3-active0">
                            <rect width="13.200000000000001" height="13.200000000000001" fill="transparent" stroke="none"/>
                        </a>
                        <path class="typst-shape" fill="#000000" fill-rule="nonzero" transform="matrix(1 0 0 1 0 33)" d="M 0 0v 2.2 h 82.5 v -2.2 Z "/>
                        <path class="typst-shape" fill="#ff4136" fill-rule="nonzero" stroke="#ff4136" stroke-width="0.5" stroke-linecap="butt" stroke-linejoin="miter" stroke-miterlimit="4" stroke-dashoffset="0" stroke-dasharray="3 3" transform="matrix(1 0 0 1 -13.200000000000001 0)" d="M 0 0v 107.8 h 0.5 v -107.8 Z "/>
                        <path class="typst-shape" fill="#ff4136" fill-rule="nonzero" stroke="#ff4136" stroke-width="0.5" stroke-linecap="butt" stroke-linejoin="miter" stroke-miterlimit="4" stroke-dashoffset="0" stroke-dasharray="3 3" transform="matrix(1 0 0 1 95.70000000000002 0)" d="M 0 0v 107.8 h 0.5 v -107.8 Z "/>
                        <path class="typst-shape" fill="#ff4136" fill-rule="nonzero" stroke="#ff4136" stroke-width="0.5" stroke-linecap="butt" stroke-linejoin="miter" stroke-miterlimit="4" stroke-dashoffset="0" stroke-dasharray="3 3" transform="matrix(1 0 0 1 -13.200000000000001 0)" d="M 0 0v 0.5 h 108.9 v -0.5 Z "/>
                        <path class="typst-shape" fill="#ff4136" fill-rule="nonzero" stroke="#ff4136" stroke-width="0.5" stroke-linecap="butt" stroke-linejoin="miter" stroke-miterlimit="4" stroke-dashoffset="0" stroke-dasharray="3 3" transform="matrix(1 0 0 1 -13.200000000000001 107.8)" d="M 0 0v 0.5 h 108.9 v -0.5 Z "/>
                        <g class="typst-group">
                            <g>
                                <path class="typst-shape" fill="#ff4136" fill-rule="nonzero" transform="matrix(1 0 0 1 -13.200000000000001 32.6)" d="M 0 0v 0.1 h 0.1 v -0.1 Z "/>
                                <a transform="matrix(1 0 0 1 -13.200000000000001 32.6)" href="crop-mark://left" xlink:href="crop-mark://left">
                                    <rect width="0.1" height="0.1" fill="transparent" stroke="none"/>
                                </a>
                            </g>
                        </g>
                        <g class="typst-group">
                            <g>
                                <path class="typst-shape" fill="#ff4136" fill-rule="nonzero" transform="matrix(1 0 0 1 95.70000000000002 32.6)" d="M 0 0v 0.1 h 0.1 v -0.1 Z "/>
                                <a transform="matrix(1 0 0 1 95.70000000000002 32.6)" href="crop-mark://right" xlink:href="crop-mark://right">
                                    <rect width="0.1" height="0.1" fill="transparent" stroke="none"/>
                                </a>
                            </g>
                        </g>
                        <g class="typst-group">
                            <g>
                                <path class="typst-shape" fill="#ff4136" fill-rule="nonzero" transform="matrix(1 0 0 1 39.75000000000001 0)" d="M 0 0v 0.1 h 0.1 v -0.1 Z "/>
                                <a transform="matrix(1 0 0 1 39.75000000000001 0)" href="crop-mark://top" xlink:href="crop-mark://top">
                                    <rect width="0.1" height="0.1" fill="transparent" stroke="none"/>
                                </a>
                            </g>
                        </g>
                        <g class="typst-group">
                            <g>
                                <path class="typst-shape" fill="#ff4136" fill-rule="nonzero" transform="matrix(1 0 0 1 39.75000000000001 107.8)" d="M 0 0v 0.1 h 0.1 v -0.1 Z "/>
                                <a transform="matrix(1 0 0 1 39.75000000000001 107.8)" href="crop-mark://bottom" xlink:href="crop-mark://bottom">
                                    <rect width="0.1" height="0.1" fill="transparent" stroke="none"/>
                                </a>
                            </g>
                        </g>
                    </g>
                </g>
            </g>
        </g>
    </g>
</svg>
