<svg viewBox="0 0 274 160" width="274pt" height="160pt" xmlns="http://www.w3.org/2000/svg" xmlns:xlink="http://www.w3.org/1999/xlink" xmlns:h5="http://www.w3.org/1999/xhtml"><path fill="#ffffff" fill-rule="nonzero" d="M 0 0v 160h 274v -160Z "/><g transform="translate(95.75 14.5)"><path fill="#eeeeee" fill-rule="nonzero" transform="translate(12.1 11.8)" d="M 0 0v 86.3h 3.3v -86.3Z "/><g transform="translate(7.15 11.8)"><path fill="#e6e6e6" fill-rule="nonzero" stroke="#000000" stroke-width="0.5" stroke-linecap="butt" stroke-linejoin="miter" stroke-miterlimit="4" d="M 0 0m 0 6.6c 0 -3.6417744 2.9582256 -6.6 6.6 -6.6c 3.6417744 0 6.6 2.9582256 6.6 6.6c 0 3.6417744 -2.9582256 6.6 -6.6 6.6c -3.6417744 0 -6.6 -2.9582256 -6.6 -6.6"/></g><a transform="translate(7.15 11.8)" href="bead://heaven-col2-active0" xlink:href="bead://heaven-col2-active0"><rect width="13.2" height="13.2" fill="transparent" stroke="none"/></a><g transform="translate(7.15 36.2)"><path fill="#f18f01" fill-rule="nonzero" stroke="#000000" stroke-width="0.5" stroke-linecap="butt" stroke-linejoin="miter" stroke-miterlimit="4" d="M 0 0m 0 6.6c 0 -3.6417744 2.9582256 -6.6 6.6 -6.6c 3.6417744 0 6.6 2.9582256 6.6 6.6c 0 3.6417744 -2.9582256 6.6 -6.6 6.6c -3.6417744 0 -6.6 -2.9582256 -6.6 -6.6"/></g><a transform="translate(7.15 36.2)" href="bead://earth-col2-pos0-active1" xlink:href="bead://earth-col2-pos0-active1"><rect width="13.2" height="13.2" fill="transparent" stroke="none"/></a><g transform="translate(7.15 49.95)"><path fill="#f18f01" fill-rule="nonzero" stroke="#000000" stroke-width="0.5" stroke-linecap="butt" stroke-linejoin="miter" stroke-miterlimit="4" d="M 0 0m 0 6.6c 0 -3.6417744 2.9582256 -6.6 6.6 -6.6c 3.6417744 0 6.6 2.9582256 6.6 6.6c 0 3.6417744 -2.9582256 6.6 -6.6 6.6c -3.6417744 0 -6.6 -2.9582256 -6.6 -6.6"/></g><a transform="translate(7.15 49.95)" href="bead://earth-col2-pos1-active1" xlink:href="bead://earth-col2-pos1-active1"><rect width="13.2" height="13.2" fill="transparent" stroke="none"/></a><g transform="translate(7.15 63.7)"><path fill="#f18f01" fill-rule="nonzero" stroke="#000000" stroke-width="0.5" stroke-linecap="butt" stroke-linejoin="miter" stroke-miterlimit="4" d="M 0 0m 0 6.6c 0 -3.6417744 2.9582256 -6.6 6.6 -6.6c 3.6417744 0 6.6 2.9582256 6.6 6.6c 0 3.6417744 -2.9582256 6.6 -6.6 6.6c -3.6417744 0 -6.6 -2.9582256 -6.6 -6.6"/></g><a transform="translate(7.15 63.7)" href="bead://earth-col2-pos2-active1" xlink:href="bead://earth-col2-pos2-active1"><rect width="13.2" height="13.2" fill="transparent" stroke="none"/></a><g transform="translate(7.15 84.9)"><path fill="#e6e6e6" fill-rule="nonzero" stroke="#000000" stroke-width="0.5" stroke-linecap="butt" stroke-linejoin="miter" stroke-miterlimit="4" d="M 0 0m 0 6.6c 0 -3.6417744 2.9582256 -6.6 6.6 -6.6c 3.6417744 0 6.6 2.9582256 6.6 6.6c 0 3.6417744 -2.9582256 6.6 -6.6 6.6c -3.6417744 0 -6.6 -2.9582256 -6.6 -6.6"/></g><a transform="translate(7.15 84.9)" href="bead://earth-col2-pos3-active0" xlink:href="bead://earth-col2-pos3-active0"><rect width="13.2" height="13.2" fill="transparent" stroke="none"/></a><path fill="#eeeeee" fill-rule="nonzero" transform="translate(39.6 11.8)" d="M 0 0v 86.3h 3.3v -86.3Z "/><g transform="translate(34.65 11.8)"><path fill="#e6e6e6" fill-rule="nonzero" stroke="#000000" stroke-width="0.5" stroke-linecap="butt" stroke-linejoin="miter" stroke-miterlimit="4" d="M 0 0m 0 6.6c 0 -3.6417744 2.9582256 -6.6 6.6 -6.6c 3.6417744 0 6.6 2.9582256 6.6 6.6c 0 3.6417744 -2.9582256 6.6 -6.6 6.6c -3.6417744 0 -6.6 -2.9582256 -6.6 -6.6"/></g><a transform="translate(34.65 11.8)" href="bead://heaven-col1-active0" xlink:href="bead://heaven-col1-active0"><rect width="13.2" height="13.2" fill="transparent" stroke="none"/></a><g transform="translate(34.65 36.2)"><path fill="#a23b72" fill-rule="nonzero" stroke="#000000" stroke-width="0.5" stroke-linecap="butt" stroke-linejoin="miter" stroke-miterlimit="4" d="M 0 0m 0 6.6c 0 -3.6417744 2.9582256 -6.6 6.6 -6.6c 3.6417744 0 6.6 2.9582256 6.6 6.6c 0 3.6417744 -2.9582256 6.6 -6.6 6.6c -3.6417744 0 -6.6 -2.9582256 -6.6 -6.6"/></g><a transform="translate(34.65 36.2)" href="bead://earth-col1-pos0-active1" xlink:href="bead://earth-col1-pos0-active1"><rect width="13.2" height="13.2" fill="transparent" stroke="none"/></a><g transform="translate(34.65 49.95)"><path fill="#a23b72" fill-rule="nonzero" stroke="#000000" stroke-width="0.5" stroke-linecap="butt" stroke-linejoin="miter" stroke-miterlimit="4" d="M 0 0m 0 6.6c 0 -3.6417744 2.9582256 -6.6 6.6 -6.6c 3.6417744 0 6.6 2.9582256 6.6 6.6c 0 3.6417744 -2.9582256 6.6 -6.6 6.6c -3.6417744 0 -6.6 -2.9582256 -6.6 -6.6"/></g><a transform="translate(34.65 49.95)" href="bead://earth-col1-pos1-active1" xlink:href="bead://earth-col1-pos1-active1"><rect width="13.2" height="13.2" fill="transparent" stroke="none"/></a><g transform="translate(34.65 71.15)"><path fill="#e6e6e6" fill-rule="nonzero" stroke="#000000" stroke-width="0.5" stroke-linecap="butt" stroke-linejoin="miter" stroke-miterlimit="4" d="M 0 0m 0 6.6c 0 -3.6417744 2.9582256 -6.6 6.6 -6.6c 3.6417744 0 6.6 2.9582256 6.6 6.6c 0 3.6417744 -2.9582256 6.6 -6.6 6.6c -3.6417744 0 -6.6 -2.9582256 -6.6 -6.6"/></g><a transform="translate(34.65 71.15)" href="bead://earth-col1-pos2-active0" xlink:href="bead://earth-col1-pos2-active0"><rect width="13.2" height="13.2" fill="transparent" stroke="none"/></a><g transform="translate(34.65 84.9)"><path fill="#e6e6e6" fill-rule="nonzero" stroke="#000000" stroke-width="0.5" stroke-linecap="butt" stroke-linejoin="miter" stroke-miterlimit="4" d="M 0 0m 0 6.6c 0 -3.6417744 2.9582256 -6.6 6.6 -6.6c 3.6417744 0 6.6 2.9582256 6.6 6.6c 0 3.6417744 -2.9582256 6.6 -6.6 6.6c -3.6417744 0 -6.6 -2.9582256 -6.6 -6.6"/></g><a transform="translate(34.65 84.9)" href="bead://earth-col1-pos3-active0" xlink:href="bead://earth-col1-pos3-active0"><rect width="13.2" height="13.2" fill="transparent" stroke="none"/></a><path fill="#eeeeee" fill-rule="nonzero" transform="translate(67.1 11.8)" d="M 0 0v 86.3h 3.3v -86.3Z "/><g transform="translate(62.15 11.8)"><path fill="#e6e6e6" fill-rule="nonzero" stroke="#000000" stroke-width="0.5" stroke-linecap="butt" stroke-linejoin="miter" stroke-miterlimit="4" d="M 0 0m 0 6.6c 0 -3.6417744 2.9582256 -6.6 6.6 -6.6c 3.6417744 0 6.6 2.9582256 6.6 6.6c 0 3.6417744 -2.9582256 6.6 -6.6 6.6c -3.6417744 0 -6.6 -2.9582256 -6.6 -6.6"/></g><a transform="translate(62.15 11.8)" href="bead://heaven-col0-active0" xlink:href="bead://heaven-col0-active0"><rect width="13.2" height="13.2" fill="transparent" stroke="none"/></a><g transform="translate(62.15 36.2)"><path fill="#2e86ab" fill-rule="nonzero" stroke="#000000" stroke-width="0.5" stroke-linecap="butt" stroke-linejoin="miter" stroke-miterlimit="4" d="M 0 0m 0 6.6c 0 -3.6417744 2.9582256 -6.6 6.6 -6.6c 3.6417744 0 6.6 2.9582256 6.6 6.6c 0 3.6417744 -2.9582256 6.6 -6.6 6.6c -3.6417744 0 -6.6 -2.9582256 -6.6 -6.6"/></g><a transform="translate(62.15 36.2)" href="bead://earth-col0-pos0-active1" xlink:href="bead://earth-col0-pos0-active1"><rect width="13.2" height="13.2" fill="transparent" stroke="none"/></a><g transform="translate(62.15 57.4)"><path fill="#e6e6e6" fill-rule="nonzero" stroke="#000000" stroke-width="0.5" stroke-linecap="butt" stroke-linejoin="miter" stroke-miterlimit="4" d="M 0 0m 0 6.6c 0 -3.6417744 2.9582256 -6.6 6.6 -6.6c 3.6417744 0 6.6 2.9582256 6.6 6.6c 0 3.6417744 -2.9582256 6.6 -6.6 6.6c -3.6417744 0 -6.6 -2.9582256 -6.6 -6.6"/></g><a transform="translate(62.15 57.4)" href="bead://earth-col0-pos1-active0" xlink:href="bead://earth-col0-pos1-active0"><rect width="13.2" height="13.2" fill="transparent" stroke="none"/></a><g transform="translate(62.15 71.15)"><path fill="#e6e6e6" fill-rule="nonzero" stroke="#000000" stroke-width="0.5" stroke-linecap="butt" stroke-linejoin="miter" stroke-miterlimit="4" d="M 0 0m 0 6.6c 0 -3.6417744 2.9582256 -6.6 6.6 -6.6c 3.6417744 0 6.6 2.9582256 6.6 6.6c 0 3.6417744 -2.9582256 6.6 -6.6 6.6c -3.6417744 0 -6.6 -2.9582256 -6.6 -6.6"/></g><a transform="translate(62.15 71.15)" href="bead://earth-col0-pos2-active0" xlink:href="bead://earth-col0-pos2-active0"><rect width="13.2" height="13.2" fill="transparent" stroke="none"/></a><g transform="translate(62.15 84.9)"><path fill="#e6e6e6" fill-rule="nonzero" stroke="#000000" stroke-width="0.5" stroke-linecap="butt" stroke-linejoin="miter" stroke-miterlimit="4" d="M 0 0m 0 6.6c 0 -3.6417744 2.9582256 -6.6 6.6 -6.6c 3.6417744 0 6.6 2.9582256 6.6 6.6c 0 3.6417744 -2.9582256 6.6 -6.6 6.6c -3.6417744 0 -6.6 -2.9582256 -6.6 -6.6"/></g><a transform="translate(62.15 84.9)" href="bead://earth-col0-pos3-active0" xlink:href="bead://earth-col0-pos3-active0"><rect width="13.2" height="13.2" fill="transparent" stroke="none"/></a><path fill="#000000" fill-rule="nonzero" transform="translate(0 33)" d="M 0 0v 2.2h 82.5v -2.2Z "/><path fill="#ff4136" fill-rule="nonzero" stroke="#ff4136" stroke-width="0.5" stroke-linecap="butt" stroke-linejoin="miter" stroke-miterlimit="4" stroke-dashoffset="0" stroke-dasharray="3 3" transform="translate(-13.2)" d="M 0 0v 107.8h 0.5v -107.8Z "/><path fill="#ff4136" fill-rule="nonzero" stroke="#ff4136" stroke-width="0.5" stroke-linecap="butt" stroke-linejoin="miter" stroke-miterlimit="4" stroke-dashoffset="0" stroke-dasharray="3 3" transform="translate(95.7)" d="M 0 0v 107.8h 0.5v -107.8Z "/><path fill="#ff4136" fill-rule="nonzero" stroke="#ff4136" stroke-width="0.5" stroke-linecap="butt" stroke-linejoin="miter" stroke-miterlimit="4" stroke-dashoffset="0" stroke-dasharray="3 3" transform="translate(-13.2)" d="M 0 0v 0.5h 108.9v -0.5Z "/><path fill="#ff4136" fill-rule="nonzero" stroke="#ff4136" stroke-width="0.5" stroke-linecap="butt" stroke-linejoin="miter" stroke-miterlimit="4" stroke-dashoffset="0" stroke-dasharray="3 3" transform="translate(-13.2 107.8)" d="M 0 0v 0.5h 108.9v -0.5Z "/><path fill="#ff4136" fill-rule="nonzero" transform="translate(-13.2 32.6)" d="M 0 0v 0.1h 0.1v -0.1Z "/><a transform="translate(-13.2 32.6)" href="crop-mark://left" xlink:href="crop-mark://left"><rect width="0.1" height="0.1" fill="transparent" stroke="none"/></a><path fill="#ff4136" fill-rule="nonzero" transform="translate(95.7 32.6)" d="M 0 0v 0.1h 0.1v -0.1Z "/><a transform="translate(95.7 32.6)" href="crop-mark://right" xlink:href="crop-mark://right"><rect width="0.1" height="0.1" fill="transparent" stroke="none"/></a><path fill="#ff4136" fill-rule="nonzero" transform="translate(39.75)" d="M 0 0v 0.1h 0.1v -0.1Z "/><a transform="translate(39.75)" href="crop-mark://top" xlink:href="crop-mark://top"><rect width="0.1" height="0.1" fill="transparent" stroke="none"/></a><path fill="#ff4136" fill-rule="nonzero" transform="translate(39.75 107.8)" d="M 0 0v 0.1h 0.1v -0.1Z "/><a transform="translate(39.75 107.8)" href="crop-mark://bottom" xlink:href="crop-mark://bottom"><rect width="0.1" height="0.1" fill="transparent" stroke="none"/></a></g></svg>