<svg viewBox="0 0 276 170" width="276pt" height="170pt" xmlns="http://www.w3.org/2000/svg" xmlns:xlink="http://www.w3.org/1999/xlink" xmlns:h5="http://www.w3.org/1999/xhtml"><path fill="#ffffff" fill-rule="nonzero" d="M 0 0v 170h 276v -170Z "/><g transform="translate(98 36)"><path fill="#eeeeee" fill-rule="nonzero" transform="translate(8.8 13.4)" d="M 0 0v 52.8h 2.4v -52.8Z "/><path fill="#6a994e" fill-rule="nonzero" transform="translate(5.2 13.4)" d="M 0 0m 0 0.75c 0 -0.414213562 0.335786438 -0.75 0.75 -0.75h 8.1c 0.414213562 0 0.75 0.335786438 0.75 0.75v 8.1c 0 0.414213562 -0.335786438 0.75 -0.75 0.75h -8.1c -0.414213562 0 -0.75 -0.335786438 -0.75 -0.75Z "/><path fill="none" stroke="#000000" stroke-width="0.5" stroke-linecap="butt" stroke-linejoin="miter" stroke-miterlimit="4" transform="translate(5.2 13.4)" d="M 0 0m 0.75 0h 8.1c 0.414213562 0 0.75 0.335786438 0.75 0.75v 8.1c 0 0.414213562 -0.335786438 0.75 -0.75 0.75h -8.1c -0.414213562 0 -0.75 -0.335786438 -0.75 -0.75v -8.1c 0 -0.414213562 0.335786438 -0.75 0.75 -0.75"/><a transform="translate(5.2 13.4)" href="bead://heaven-col3-active1" xlink:href="bead://heaven-col3-active1"><rect width="9.6" height="9.6" fill="transparent" stroke="none"/></a><path fill="#6a994e" fill-rule="nonzero" transform="translate(5.2 26.6)" d="M 0 0m 0 0.75c 0 -0.414213562 0.335786438 -0.75 0.75 -0.75h 8.1c 0.414213562 0 0.75 0.335786438 0.75 0.75v 8.1c 0 0.414213562 -0.335786438 0.75 -0.75 0.75h -8.1c -0.414213562 0 -0.75 -0.335786438 -0.75 -0.75Z "/><path fill="none" stroke="#000000" stroke-width="0.5" stroke-linecap="butt" stroke-linejoin="miter" stroke-miterlimit="4" transform="translate(5.2 26.6)" d="M 0 0m 0.75 0h 8.1c 0.414213562 0 0.75 0.335786438 0.75 0.75v 8.1c 0 0.414213562 -0.335786438 0.75 -0.75 0.75h -8.1c -0.414213562 0 -0.75 -0.335786438 -0.75 -0.75v -8.1c 0 -0.414213562 0.335786438 -0.75 0.75 -0.75"/><a transform="translate(5.2 26.6)" href="bead://earth-col3-pos0-active1" xlink:href="bead://earth-col3-pos0-active1"><rect width="9.6" height="9.6" fill="transparent" stroke="none"/></a><path fill="#6a994e" fill-rule="nonzero" transform="translate(5.2 36.6)" d="M 0 0m 0 0.75c 0 -0.414213562 0.335786438 -0.75 0.75 -0.75h 8.1c 0.414213562 0 0.75 0.335786438 0.75 0.75v 8.1c 0 0.414213562 -0.335786438 0.75 -0.75 0.75h -8.1c -0.414213562 0 -0.75 -0.335786438 -0.75 -0.75Z "/><path fill="none" stroke="#000000" stroke-width="0.5" stroke-linecap="butt" stroke-linejoin="miter" stroke-miterlimit="4" transform="translate(5.2 36.6)" d="M 0 0m 0.75 0h 8.1c 0.414213562 0 0.75 0.335786438 0.75 0.75v 8.1c 0 0.414213562 -0.335786438 0.75 -0.75 0.75h -8.1c -0.414213562 0 -0.75 -0.335786438 -0.75 -0.75v -8.1c 0 -0.414213562 0.335786438 -0.75 0.75 -0.75"/><a transform="translate(5.2 36.6)" href="bead://earth-col3-pos1-active1" xlink:href="bead://earth-col3-pos1-active1"><rect width="9.6" height="9.6" fill="transparent" stroke="none"/></a><path fill="#6a994e" fill-rule="nonzero" transform="translate(5.2 46.6)" d="M 0 0m 0 0.75c 0 -0.414213562 0.335786438 -0.75 0.75 -0.75h 8.1c 0.414213562 0 0.75 0.335786438 0.75 0.75v 8.1c 0 0.414213562 -0.335786438 0.75 -0.75 0.75h -8.1c -0.414213562 0 -0.75 -0.335786438 -0.75 -0.75Z "/><path fill="none" stroke="#000000" stroke-width="0.5" stroke-linecap="butt" stroke-linejoin="miter" stroke-miterlimit="4" transform="translate(5.2 46.6)" d="M 0 0m 0.75 0h 8.1c 0.414213562 0 0.75 0.335786438 0.75 0.75v 8.1c 0 0.414213562 -0.335786438 0.75 -0.75 0.75h -8.1c -0.414213562 0 -0.75 -0.335786438 -0.75 -0.75v -8.1c 0 -0.414213562 0.335786438 -0.75 0.75 -0.75"/><a transform="translate(5.2 46.6)" href="bead://earth-col3-pos2-active1" xlink:href="bead://earth-col3-pos2-active1"><rect width="9.6" height="9.6" fill="transparent" stroke="none"/></a><path fill="#6a994e" fill-rule="nonzero" transform="translate(5.2 56.6)" d="M 0 0m 0 0.75c 0 -0.414213562 0.335786438 -0.75 0.75 -0.75h 8.1c 0.414213562 0 0.75 0.335786438 0.75 0.75v 8.1c 0 0.414213562 -0.335786438 0.75 -0.75 0.75h -8.1c -0.414213562 0 -0.75 -0.335786438 -0.75 -0.75Z "/><path fill="none" stroke="#000000" stroke-width="0.5" stroke-linecap="butt" stroke-linejoin="miter" stroke-miterlimit="4" transform="translate(5.2 56.6)" d="M 0 0m 0.75 0h 8.1c 0.414213562 0 0.75 0.335786438 0.75 0.75v 8.1c 0 0.414213562 -0.335786438 0.75 -0.75 0.75h -8.1c -0.414213562 0 -0.75 -0.335786438 -0.75 -0.75v -8.1c 0 -0.414213562 0.335786438 -0.75 0.75 -0.75"/><a transform="translate(5.2 56.6)" href="bead://earth-col3-pos3-active1" xlink:href="bead://earth-col3-pos3-active1"><rect width="9.6" height="9.6" fill="transparent" stroke="none"/></a><path fill="#eeeeee" fill-rule="nonzero" transform="translate(28.8 13.4)" d="M 0 0v 52.8h 2.4v -52.8Z "/><path fill="#f18f01" fill-rule="nonzero" transform="translate(25.2 13.4)" d="M 0 0m 0 0.75c 0 -0.414213562 0.335786438 -0.75 0.75 -0.75h 8.1c 0.414213562 0 0.75 0.335786438 0.75 0.75v 8.1c 0 0.414213562 -0.335786438 0.75 -0.75 0.75h -8.1c -0.414213562 0 -0.75 -0.335786438 -0.75 -0.75Z "/><path fill="none" stroke="#000000" stroke-width="0.5" stroke-linecap="butt" stroke-linejoin="miter" stroke-miterlimit="4" transform="translate(25.2 13.4)" d="M 0 0m 0.75 0h 8.1c 0.414213562 0 0.75 0.335786438 0.75 0.75v 8.1c 0 0.414213562 -0.335786438 0.75 -0.75 0.75h -8.1c -0.414213562 0 -0.75 -0.335786438 -0.75 -0.75v -8.1c 0 -0.414213562 0.335786438 -0.75 0.75 -0.75"/><a transform="translate(25.2 13.4)" href="bead://heaven-col2-active1" xlink:href="bead://heaven-col2-active1"><rect width="9.6" height="9.6" fill="transparent" stroke="none"/></a><path fill="#f18f01" fill-rule="nonzero" transform="translate(25.2 26.6)" d="M 0 0m 0 0.75c 0 -0.414213562 0.335786438 -0.75 0.75 -0.75h 8.1c 0.414213562 0 0.75 0.335786438 0.75 0.75v 8.1c 0 0.414213562 -0.335786438 0.75 -0.75 0.75h -8.1c -0.414213562 0 -0.75 -0.335786438 -0.75 -0.75Z "/><path fill="none" stroke="#000000" stroke-width="0.5" stroke-linecap="butt" stroke-linejoin="miter" stroke-miterlimit="4" transform="translate(25.2 26.6)" d="M 0 0m 0.75 0h 8.1c 0.414213562 0 0.75 0.335786438 0.75 0.75v 8.1c 0 0.414213562 -0.335786438 0.75 -0.75 0.75h -8.1c -0.414213562 0 -0.75 -0.335786438 -0.75 -0.75v -8.1c 0 -0.414213562 0.335786438 -0.75 0.75 -0.75"/><a transform="translate(25.2 26.6)" href="bead://earth-col2-pos0-active1" xlink:href="bead://earth-col2-pos0-active1"><rect width="9.6" height="9.6" fill="transparent" stroke="none"/></a><path fill="#f18f01" fill-rule="nonzero" transform="translate(25.2 36.6)" d="M 0 0m 0 0.75c 0 -0.414213562 0.335786438 -0.75 0.75 -0.75h 8.1c 0.414213562 0 0.75 0.335786438 0.75 0.75v 8.1c 0 0.414213562 -0.335786438 0.75 -0.75 0.75h -8.1c -0.414213562 0 -0.75 -0.335786438 -0.75 -0.75Z "/><path fill="none" stroke="#000000" stroke-width="0.5" stroke-linecap="butt" stroke-linejoin="miter" stroke-miterlimit="4" transform="translate(25.2 36.6)" d="M 0 0m 0.75 0h 8.1c 0.414213562 0 0.75 0.335786438 0.75 0.75v 8.1c 0 0.414213562 -0.335786438 0.75 -0.75 0.75h -8.1c -0.414213562 0 -0.75 -0.335786438 -0.75 -0.75v -8.1c 0 -0.414213562 0.335786438 -0.75 0.75 -0.75"/><a transform="translate(25.2 36.6)" href="bead://earth-col2-pos1-active1" xlink:href="bead://earth-col2-pos1-active1"><rect width="9.6" height="9.6" fill="transparent" stroke="none"/></a><path fill="#f18f01" fill-rule="nonzero" transform="translate(25.2 46.6)" d="M 0 0m 0 0.75c 0 -0.414213562 0.335786438 -0.75 0.75 -0.75h 8.1c 0.414213562 0 0.75 0.335786438 0.75 0.75v 8.1c 0 0.414213562 -0.335786438 0.75 -0.75 0.75h -8.1c -0.414213562 0 -0.75 -0.335786438 -0.75 -0.75Z "/><path fill="none" stroke="#000000" stroke-width="0.5" stroke-linecap="butt" stroke-linejoin="miter" stroke-miterlimit="4" transform="translate(25.2 46.6)" d="M 0 0m 0.75 0h 8.1c 0.414213562 0 0.75 0.335786438 0.75 0.75v 8.1c 0 0.414213562 -0.335786438 0.75 -0.75 0.75h -8.1c -0.414213562 0 -0.75 -0.335786438 -0.75 -0.75v -8.1c 0 -0.414213562 0.335786438 -0.75 0.75 -0.75"/><a transform="translate(25.2 46.6)" href="bead://earth-col2-pos2-active1" xlink:href="bead://earth-col2-pos2-active1"><rect width="9.6" height="9.6" fill="transparent" stroke="none"/></a><path fill="#f18f01" fill-rule="nonzero" transform="translate(25.2 56.6)" d="M 0 0m 0 0.75c 0 -0.414213562 0.335786438 -0.75 0.75 -0.75h 8.1c 0.414213562 0 0.75 0.335786438 0.75 0.75v 8.1c 0 0.414213562 -0.335786438 0.75 -0.75 0.75h -8.1c -0.414213562 0 -0.75 -0.335786438 -0.75 -0.75Z "/><path fill="none" stroke="#000000" stroke-width="0.5" stroke-linecap="butt" stroke-linejoin="miter" stroke-miterlimit="4" transform="translate(25.2 56.6)" d="M 0 0m 0.75 0h 8.1c 0.414213562 0 0.75 0.335786438 0.75 0.75v 8.1c 0 0.414213562 -0.335786438 0.75 -0.75 0.75h -8.1c -0.414213562 0 -0.75 -0.335786438 -0.75 -0.75v -8.1c 0 -0.414213562 0.335786438 -0.75 0.75 -0.75"/><a transform="translate(25.2 56.6)" href="bead://earth-col2-pos3-active1" xlink:href="bead://earth-col2-pos3-active1"><rect width="9.6" height="9.6" fill="transparent" stroke="none"/></a><path fill="#eeeeee" fill-rule="nonzero" transform="translate(48.8 13.4)" d="M 0 0v 52.8h 2.4v -52.8Z "/><path fill="#a23b72" fill-rule="nonzero" transform="translate(45.2 13.4)" d="M 0 0m 0 0.75c 0 -0.414213562 0.335786438 -0.75 0.75 -0.75h 8.1c 0.414213562 0 0.75 0.335786438 0.75 0.75v 8.1c 0 0.414213562 -0.335786438 0.75 -0.75 0.75h -8.1c -0.414213562 0 -0.75 -0.335786438 -0.75 -0.75Z "/><path fill="none" stroke="#000000" stroke-width="0.5" stroke-linecap="butt" stroke-linejoin="miter" stroke-miterlimit="4" transform="translate(45.2 13.4)" d="M 0 0m 0.75 0h 8.1c 0.414213562 0 0.75 0.335786438 0.75 0.75v 8.1c 0 0.414213562 -0.335786438 0.75 -0.75 0.75h -8.1c -0.414213562 0 -0.75 -0.335786438 -0.75 -0.75v -8.1c 0 -0.414213562 0.335786438 -0.75 0.75 -0.75"/><a transform="translate(45.2 13.4)" href="bead://heaven-col1-active1" xlink:href="bead://heaven-col1-active1"><rect width="9.6" height="9.6" fill="transparent" stroke="none"/></a><path fill="#a23b72" fill-rule="nonzero" transform="translate(45.2 26.6)" d="M 0 0m 0 0.75c 0 -0.414213562 0.335786438 -0.75 0.75 -0.75h 8.1c 0.414213562 0 0.75 0.335786438 0.75 0.75v 8.1c 0 0.414213562 -0.335786438 0.75 -0.75 0.75h -8.1c -0.414213562 0 -0.75 -0.335786438 -0.75 -0.75Z "/><path fill="none" stroke="#000000" stroke-width="0.5" stroke-linecap="butt" stroke-linejoin="miter" stroke-miterlimit="4" transform="translate(45.2 26.6)" d="M 0 0m 0.75 0h 8.1c 0.414213562 0 0.75 0.335786438 0.75 0.75v 8.1c 0 0.414213562 -0.335786438 0.75 -0.75 0.75h -8.1c -0.414213562 0 -0.75 -0.335786438 -0.75 -0.75v -8.1c 0 -0.414213562 0.335786438 -0.75 0.75 -0.75"/><a transform="translate(45.2 26.6)" href="bead://earth-col1-pos0-active1" xlink:href="bead://earth-col1-pos0-active1"><rect width="9.6" height="9.6" fill="transparent" stroke="none"/></a><path fill="#a23b72" fill-rule="nonzero" transform="translate(45.2 36.6)" d="M 0 0m 0 0.75c 0 -0.414213562 0.335786438 -0.75 0.75 -0.75h 8.1c 0.414213562 0 0.75 0.335786438 0.75 0.75v 8.1c 0 0.414213562 -0.335786438 0.75 -0.75 0.75h -8.1c -0.414213562 0 -0.75 -0.335786438 -0.75 -0.75Z "/><path fill="none" stroke="#000000" stroke-width="0.5" stroke-linecap="butt" stroke-linejoin="miter" stroke-miterlimit="4" transform="translate(45.2 36.6)" d="M 0 0m 0.75 0h 8.1c 0.414213562 0 0.75 0.335786438 0.75 0.75v 8.1c 0 0.414213562 -0.335786438 0.75 -0.75 0.75h -8.1c -0.414213562 0 -0.75 -0.335786438 -0.75 -0.75v -8.1c 0 -0.414213562 0.335786438 -0.75 0.75 -0.75"/><a transform="translate(45.2 36.6)" href="bead://earth-col1-pos1-active1" xlink:href="bead://earth-col1-pos1-active1"><rect width="9.6" height="9.6" fill="transparent" stroke="none"/></a><path fill="#a23b72" fill-rule="nonzero" transform="translate(45.2 46.6)" d="M 0 0m 0 0.75c 0 -0.414213562 0.335786438 -0.75 0.75 -0.75h 8.1c 0.414213562 0 0.75 0.335786438 0.75 0.75v 8.1c 0 0.414213562 -0.335786438 0.75 -0.75 0.75h -8.1c -0.414213562 0 -0.75 -0.335786438 -0.75 -0.75Z "/><path fill="none" stroke="#000000" stroke-width="0.5" stroke-linecap="butt" stroke-linejoin="miter" stroke-miterlimit="4" transform="translate(45.2 46.6)" d="M 0 0m 0.75 0h 8.1c 0.414213562 0 0.75 0.335786438 0.75 0.75v 8.1c 0 0.414213562 -0.335786438 0.75 -0.75 0.75h -8.1c -0.414213562 0 -0.75 -0.335786438 -0.75 -0.75v -8.1c 0 -0.414213562 0.335786438 -0.75 0.75 -0.75"/><a transform="translate(45.2 46.6)" href="bead://earth-col1-pos2-active1" xlink:href="bead://earth-col1-pos2-active1"><rect width="9.6" height="9.6" fill="transparent" stroke="none"/></a><path fill="#a23b72" fill-rule="nonzero" transform="translate(45.2 56.6)" d="M 0 0m 0 0.75c 0 -0.414213562 0.335786438 -0.75 0.75 -0.75h 8.1c 0.414213562 0 0.75 0.335786438 0.75 0.75v 8.1c 0 0.414213562 -0.335786438 0.75 -0.75 0.75h -8.1c -0.414213562 0 -0.75 -0.335786438 -0.75 -0.75Z "/><path fill="none" stroke="#000000" stroke-width="0.5" stroke-linecap="butt" stroke-linejoin="miter" stroke-miterlimit="4" transform="translate(45.2 56.6)" d="M 0 0m 0.75 0h 8.1c 0.414213562 0 0.75 0.335786438 0.75 0.75v 8.1c 0 0.414213562 -0.335786438 0.75 -0.75 0.75h -8.1c -0.414213562 0 -0.75 -0.335786438 -0.75 -0.75v -8.1c 0 -0.414213562 0.335786438 -0.75 0.75 -0.75"/><a transform="translate(45.2 56.6)" href="bead://earth-col1-pos3-active1" xlink:href="bead://earth-col1-pos3-active1"><rect width="9.6" height="9.6" fill="transparent" stroke="none"/></a><path fill="#eeeeee" fill-rule="nonzero" transform="translate(68.8 13.4)" d="M 0 0v 52.8h 2.4v -52.8Z "/><path fill="#2e86ab" fill-rule="nonzero" transform="translate(65.2 13.4)" d="M 0 0m 0 0.75c 0 -0.414213562 0.335786438 -0.75 0.75 -0.75h 8.1c 0.414213562 0 0.75 0.335786438 0.75 0.75v 8.1c 0 0.414213562 -0.335786438 0.75 -0.75 0.75h -8.1c -0.414213562 0 -0.75 -0.335786438 -0.75 -0.75Z "/><path fill="none" stroke="#000000" stroke-width="0.5" stroke-linecap="butt" stroke-linejoin="miter" stroke-miterlimit="4" transform="translate(65.2 13.4)" d="M 0 0m 0.75 0h 8.1c 0.414213562 0 0.75 0.335786438 0.75 0.75v 8.1c 0 0.414213562 -0.335786438 0.75 -0.75 0.75h -8.1c -0.414213562 0 -0.75 -0.335786438 -0.75 -0.75v -8.1c 0 -0.414213562 0.335786438 -0.75 0.75 -0.75"/><a transform="translate(65.2 13.4)" href="bead://heaven-col0-active1" xlink:href="bead://heaven-col0-active1"><rect width="9.6" height="9.6" fill="transparent" stroke="none"/></a><path fill="#2e86ab" fill-rule="nonzero" transform="translate(65.2 26.6)" d="M 0 0m 0 0.75c 0 -0.414213562 0.335786438 -0.75 0.75 -0.75h 8.1c 0.414213562 0 0.75 0.335786438 0.75 0.75v 8.1c 0 0.414213562 -0.335786438 0.75 -0.75 0.75h -8.1c -0.414213562 0 -0.75 -0.335786438 -0.75 -0.75Z "/><path fill="none" stroke="#000000" stroke-width="0.5" stroke-linecap="butt" stroke-linejoin="miter" stroke-miterlimit="4" transform="translate(65.2 26.6)" d="M 0 0m 0.75 0h 8.1c 0.414213562 0 0.75 0.335786438 0.75 0.75v 8.1c 0 0.414213562 -0.335786438 0.75 -0.75 0.75h -8.1c -0.414213562 0 -0.75 -0.335786438 -0.75 -0.75v -8.1c 0 -0.414213562 0.335786438 -0.75 0.75 -0.75"/><a transform="translate(65.2 26.6)" href="bead://earth-col0-pos0-active1" xlink:href="bead://earth-col0-pos0-active1"><rect width="9.6" height="9.6" fill="transparent" stroke="none"/></a><path fill="#2e86ab" fill-rule="nonzero" transform="translate(65.2 36.6)" d="M 0 0m 0 0.75c 0 -0.414213562 0.335786438 -0.75 0.75 -0.75h 8.1c 0.414213562 0 0.75 0.335786438 0.75 0.75v 8.1c 0 0.414213562 -0.335786438 0.75 -0.75 0.75h -8.1c -0.414213562 0 -0.75 -0.335786438 -0.75 -0.75Z "/><path fill="none" stroke="#000000" stroke-width="0.5" stroke-linecap="butt" stroke-linejoin="miter" stroke-miterlimit="4" transform="translate(65.2 36.6)" d="M 0 0m 0.75 0h 8.1c 0.414213562 0 0.75 0.335786438 0.75 0.75v 8.1c 0 0.414213562 -0.335786438 0.75 -0.75 0.75h -8.1c -0.414213562 0 -0.75 -0.335786438 -0.75 -0.75v -8.1c 0 -0.414213562 0.335786438 -0.75 0.75 -0.75"/><a transform="translate(65.2 36.6)" href="bead://earth-col0-pos1-active1" xlink:href="bead://earth-col0-pos1-active1"><rect width="9.6" height="9.6" fill="transparent" stroke="none"/></a><path fill="#2e86ab" fill-rule="nonzero" transform="translate(65.2 46.6)" d="M 0 0m 0 0.75c 0 -0.414213562 0.335786438 -0.75 0.75 -0.75h 8.1c 0.414213562 0 0.75 0.335786438 0.75 0.75v 8.1c 0 0.414213562 -0.335786438 0.75 -0.75 0.75h -8.1c -0.414213562 0 -0.75 -0.335786438 -0.75 -0.75Z "/><path fill="none" stroke="#000000" stroke-width="0.5" stroke-linecap="butt" stroke-linejoin="miter" stroke-miterlimit="4" transform="translate(65.2 46.6)" d="M 0 0m 0.75 0h 8.1c 0.414213562 0 0.75 0.335786438 0.75 0.75v 8.1c 0 0.414213562 -0.335786438 0.75 -0.75 0.75h -8.1c -0.414213562 0 -0.75 -0.335786438 -0.75 -0.75v -8.1c 0 -0.414213562 0.335786438 -0.75 0.75 -0.75"/><a transform="translate(65.2 46.6)" href="bead://earth-col0-pos2-active1" xlink:href="bead://earth-col0-pos2-active1"><rect width="9.6" height="9.6" fill="transparent" stroke="none"/></a><path fill="#2e86ab" fill-rule="nonzero" transform="translate(65.2 56.6)" d="M 0 0m 0 0.75c 0 -0.414213562 0.335786438 -0.75 0.75 -0.75h 8.1c 0.414213562 0 0.75 0.335786438 0.75 0.75v 8.1c 0 0.414213562 -0.335786438 0.75 -0.75 0.75h -8.1c -0.414213562 0 -0.75 -0.335786438 -0.75 -0.75Z "/><path fill="none" stroke="#000000" stroke-width="0.5" stroke-linecap="butt" stroke-linejoin="miter" stroke-miterlimit="4" transform="translate(65.2 56.6)" d="M 0 0m 0.75 0h 8.1c 0.414213562 0 0.75 0.335786438 0.75 0.75v 8.1c 0 0.414213562 -0.335786438 0.75 -0.75 0.75h -8.1c -0.414213562 0 -0.75 -0.335786438 -0.75 -0.75v -8.1c 0 -0.414213562 0.335786438 -0.75 0.75 -0.75"/><a transform="translate(65.2 56.6)" href="bead://earth-col0-pos3-active1" xlink:href="bead://earth-col0-pos3-active1"><rect width="9.6" height="9.6" fill="transparent" stroke="none"/></a><path fill="#000000" fill-rule="nonzero" transform="translate(0 24)" d="M 0 0v 1.6h 80v -1.6Z "/><path fill="#ff4136" fill-rule="nonzero" stroke="#ff4136" stroke-width="0.5" stroke-linecap="butt" stroke-linejoin="miter" stroke-miterlimit="4" stroke-dashoffset="0" stroke-dasharray="3 3" transform="translate(-9.6)" d="M 0 0v 78.4h 0.5v -78.4Z "/><path fill="#ff4136" fill-rule="nonzero" stroke="#ff4136" stroke-width="0.5" stroke-linecap="butt" stroke-linejoin="miter" stroke-miterlimit="4" stroke-dashoffset="0" stroke-dasharray="3 3" transform="translate(89.6)" d="M 0 0v 78.4h 0.5v -78.4Z "/><path fill="#ff4136" fill-rule="nonzero" stroke="#ff4136" stroke-width="0.5" stroke-linecap="butt" stroke-linejoin="miter" stroke-miterlimit="4" stroke-dashoffset="0" stroke-dasharray="3 3" transform="translate(-9.6)" d="M 0 0v 0.5h 99.2v -0.5Z "/><path fill="#ff4136" fill-rule="nonzero" stroke="#ff4136" stroke-width="0.5" stroke-linecap="butt" stroke-linejoin="miter" stroke-miterlimit="4" stroke-dashoffset="0" stroke-dasharray="3 3" transform="translate(-9.6 78.4)" d="M 0 0v 0.5h 99.2v -0.5Z "/><path fill="#ff4136" fill-rule="nonzero" transform="translate(-9.6 23.3)" d="M 0 0v 0.1h 0.1v -0.1Z "/><a transform="translate(-9.6 23.3)" href="crop-mark://left" xlink:href="crop-mark://left"><rect width="0.1" height="0.1" fill="transparent" stroke="none"/></a><path fill="#ff4136" fill-rule="nonzero" transform="translate(89.6 23.3)" d="M 0 0v 0.1h 0.1v -0.1Z "/><a transform="translate(89.6 23.3)" href="crop-mark://right" xlink:href="crop-mark://right"><rect width="0.1" height="0.1" fill="transparent" stroke="none"/></a><path fill="#ff4136" fill-rule="nonzero" transform="translate(38.5)" d="M 0 0v 0.1h 0.1v -0.1Z "/><a transform="translate(38.5)" href="crop-mark://top" xlink:href="crop-mark://top"><rect width="0.1" height="0.1" fill="transparent" stroke="none"/></a><path fill="#ff4136" fill-rule="nonzero" transform="translate(38.5 78.4)" d="M 0 0v 0.1h 0.1v -0.1Z "/><a transform="translate(38.5 78.4)" href="crop-mark://bottom" xlink:href="crop-mark://bottom"><rect width="0.1" height="0.1" fill="transparent" stroke="none"/></a></g></svg>