<svg class="typst-doc" viewBox="0 0 240 280" width="240pt" height="280pt" xmlns="http://www.w3.org/2000/svg" xmlns:xlink="http://www.w3.org/1999/xlink" xmlns:h5="http://www.w3.org/1999/xhtml">
    <path class="typst-shape" fill="#ffffff" fill-rule="nonzero" d="M 0 0 L 0 280 L 240 280 L 240 0 Z "/>
    <g>
        <g transform="translate(95 25)">
            <g class="typst-group">
                <g>
                    <g transform="translate(0 0)">
                        <g class="typst-group">
                            <g>
                                <g transform="translate(22 28)">
                                    <path class="typst-shape" fill="#eeeeee" fill-rule="nonzero" d="M 0 0 L 0 143 L 6 143 L 6 0 Z "/>
                                </g>
                                <g transform="translate(13 28)">
                                    <g class="typst-group">
                                        <g>
                                            <g transform="translate(-0 -0)">
                                                <path class="typst-shape" fill="#e6e6e6" fill-rule="nonzero" stroke="#000000" stroke-width="0.5" stroke-linecap="butt" stroke-linejoin="miter" stroke-miterlimit="4" d="M 0 12 C 0 5.378592 5.378592 0 12 0 C 18.621408 0 24 5.378592 24 12 C 24 18.621408 18.621408 24 12 24 C 5.378592 24 0 18.621408 0 12 "/>
                                            </g>
                                        </g>
                                    </g>
                                </g>
                                <g transform="translate(13 72)">
                                    <g class="typst-group">
                                        <g>
                                            <g transform="translate(-0 -0)">
                                                <path class="typst-shape" fill="#e6e6e6" fill-rule="nonzero" stroke="#000000" stroke-width="0.5" stroke-linecap="butt" stroke-linejoin="miter" stroke-miterlimit="4" d="M 0 12 C 0 5.378592 5.378592 0 12 0 C 18.621408 0 24 5.378592 24 12 C 24 18.621408 18.621408 24 12 24 C 5.378592 24 0 18.621408 0 12 "/>
                                            </g>
                                        </g>
                                    </g>
                                </g>
                                <g transform="translate(13 97)">
                                    <g class="typst-group">
                                        <g>
                                            <g transform="translate(-0 -0)">
                                                <path class="typst-shape" fill="#e6e6e6" fill-rule="nonzero" stroke="#000000" stroke-width="0.5" stroke-linecap="butt" stroke-linejoin="miter" stroke-miterlimit="4" d="M 0 12 C 0 5.378592 5.378592 0 12 0 C 18.621408 0 24 5.378592 24 12 C 24 18.621408 18.621408 24 12 24 C 5.378592 24 0 18.621408 0 12 "/>
                                            </g>
                                        </g>
                                    </g>
                                </g>
                                <g transform="translate(13 122)">
                                    <g class="typst-group">
                                        <g>
                                            <g transform="translate(-0 -0)">
                                                <path class="typst-shape" fill="#e6e6e6" fill-rule="nonzero" stroke="#000000" stroke-width="0.5" stroke-linecap="butt" stroke-linejoin="miter" stroke-miterlimit="4" d="M 0 12 C 0 5.378592 5.378592 0 12 0 C 18.621408 0 24 5.378592 24 12 C 24 18.621408 18.621408 24 12 24 C 5.378592 24 0 18.621408 0 12 "/>
                                            </g>
                                        </g>
                                    </g>
                                </g>
                                <g transform="translate(13 147)">
                                    <g class="typst-group">
                                        <g>
                                            <g transform="translate(-0 -0)">
                                                <path class="typst-shape" fill="#e6e6e6" fill-rule="nonzero" stroke="#000000" stroke-width="0.5" stroke-linecap="butt" stroke-linejoin="miter" stroke-miterlimit="4" d="M 0 12 C 0 5.378592 5.378592 0 12 0 C 18.621408 0 24 5.378592 24 12 C 24 18.621408 18.621408 24 12 24 C 5.378592 24 0 18.621408 0 12 "/>
                                            </g>
                                        </g>
                                    </g>
                                </g>
                                <g transform="translate(0 60)">
                                    <path class="typst-shape" fill="#000000" fill-rule="nonzero" d="M 0 0 L 0 4 L 50 4 L 50 0 Z "/>
                                </g>
                                <g transform="translate(-24 0)">
                                    <path class="typst-shape" fill="#ff4136" fill-rule="nonzero" stroke="#ff4136" stroke-width="0.5" stroke-linecap="butt" stroke-linejoin="miter" stroke-miterlimit="4" stroke-dashoffset="0" stroke-dasharray="3 3" d="M 0 0 L 0 196 L 0.5 196 L 0.5 0 Z "/>
                                </g>
                                <g transform="translate(74 0)">
                                    <path class="typst-shape" fill="#ff4136" fill-rule="nonzero" stroke="#ff4136" stroke-width="0.5" stroke-linecap="butt" stroke-linejoin="miter" stroke-miterlimit="4" stroke-dashoffset="0" stroke-dasharray="3 3" d="M 0 0 L 0 196 L 0.5 196 L 0.5 0 Z "/>
                                </g>
                                <g transform="translate(-24 0)">
                                    <path class="typst-shape" fill="#ff4136" fill-rule="nonzero" stroke="#ff4136" stroke-width="0.5" stroke-linecap="butt" stroke-linejoin="miter" stroke-miterlimit="4" stroke-dashoffset="0" stroke-dasharray="3 3" d="M 0 0 L 0 0.5 L 98 0.5 L 98 0 Z "/>
                                </g>
                                <g transform="translate(-24 196)">
                                    <path class="typst-shape" fill="#ff4136" fill-rule="nonzero" stroke="#ff4136" stroke-width="0.5" stroke-linecap="butt" stroke-linejoin="miter" stroke-miterlimit="4" stroke-dashoffset="0" stroke-dasharray="3 3" d="M 0 0 L 0 0.5 L 98 0.5 L 98 0 Z "/>
                                </g>
                                <g transform="translate(-24 60.5)">
                                    <path class="typst-shape" fill="#ff4136" fill-rule="nonzero" d="M 0 0 L 0 0.1 L 0.1 0.1 L 0.1 0 Z "/>
                                </g>
                                <g transform="translate(74 60.5)">
                                    <path class="typst-shape" fill="#ff4136" fill-rule="nonzero" d="M 0 0 L 0 0.1 L 0.1 0.1 L 0.1 0 Z "/>
                                </g>
                                <g transform="translate(23.5 0)">
                                    <path class="typst-shape" fill="#ff4136" fill-rule="nonzero" d="M 0 0 L 0 0.1 L 0.1 0.1 L 0.1 0 Z "/>
                                </g>
                                <g transform="translate(23.5 196)">
                                    <path class="typst-shape" fill="#ff4136" fill-rule="nonzero" d="M 0 0 L 0 0.1 L 0.1 0.1 L 0.1 0 Z "/>
                                </g>
                            </g>
                        </g>
                    </g>
                </g>
            </g>
        </g>
    </g>
</svg>
