<svg viewBox="0 0 216 166" width="216pt" height="166pt" xmlns="http://www.w3.org/2000/svg" xmlns:xlink="http://www.w3.org/1999/xlink" xmlns:h5="http://www.w3.org/1999/xhtml"><path fill="#ffffff" fill-rule="nonzero" d="M 0 0v 166h 216v -166Z "/><g transform="translate(95.5 23)"><path fill="#eeeeee" fill-rule="nonzero" transform="translate(11 10)" d="M 0 0v 80h 3v -80Z "/><path fill="#e6e6e6" fill-rule="nonzero" stroke="#000000" stroke-width="0.5" stroke-linecap="butt" stroke-linejoin="miter" stroke-miterlimit="4" transform="translate(4.1 10)" d="M 0 0m 8.4 0l 8.4 6l -8.4 6l -8.4 -6Z "/><a transform="translate(4.1 10)" href="bead://heaven-col0-active0" xlink:href="bead://heaven-col0-active0"><rect width="16.8" height="12" fill="transparent" stroke="none"/></a><path fill="#000000" fill-rule="nonzero" stroke="#000000" stroke-width="0.5" stroke-linecap="butt" stroke-linejoin="miter" stroke-miterlimit="4" transform="translate(4.1 33)" d="M 0 0m 8.4 0l 8.4 6l -8.4 6l -8.4 -6Z "/><a transform="translate(4.1 33)" href="bead://earth-col0-pos0-active1" xlink:href="bead://earth-col0-pos0-active1"><rect width="16.8" height="12" fill="transparent" stroke="none"/></a><path fill="#e6e6e6" fill-rule="nonzero" stroke="#000000" stroke-width="0.5" stroke-linecap="butt" stroke-linejoin="miter" stroke-miterlimit="4" transform="translate(4.1 53)" d="M 0 0m 8.4 0l 8.4 6l -8.4 6l -8.4 -6Z "/><a transform="translate(4.1 53)" href="bead://earth-col0-pos1-active0" xlink:href="bead://earth-col0-pos1-active0"><rect width="16.8" height="12" fill="transparent" stroke="none"/></a><path fill="#e6e6e6" fill-rule="nonzero" stroke="#000000" stroke-width="0.5" stroke-linecap="butt" stroke-linejoin="miter" stroke-miterlimit="4" transform="translate(4.1 65.5)" d="M 0 0m 8.4 0l 8.4 6l -8.4 6l -8.4 -6Z "/><a transform="translate(4.1 65.5)" href="bead://earth-col0-pos2-active0" xlink:href="bead://earth-col0-pos2-active0"><rect width="16.8" height="12" fill="transparent" stroke="none"/></a><path fill="#e6e6e6" fill-rule="nonzero" stroke="#000000" stroke-width="0.5" stroke-linecap="butt" stroke-linejoin="miter" stroke-miterlimit="4" transform="translate(4.1 78)" d="M 0 0m 8.4 0l 8.4 6l -8.4 6l -8.4 -6Z "/><a transform="translate(4.1 78)" href="bead://earth-col0-pos3-active0" xlink:href="bead://earth-col0-pos3-active0"><rect width="16.8" height="12" fill="transparent" stroke="none"/></a><path fill="#000000" fill-rule="nonzero" transform="translate(0 30)" d="M 0 0v 2h 25v -2Z "/><path fill="#ff4136" fill-rule="nonzero" stroke="#ff4136" stroke-width="0.5" stroke-linecap="butt" stroke-linejoin="miter" stroke-miterlimit="4" stroke-dashoffset="0" stroke-dasharray="3 3" transform="translate(-16.8 -12)" d="M 0 0v 136.4h 0.5v -136.4Z "/><path fill="#ff4136" fill-rule="nonzero" stroke="#ff4136" stroke-width="0.5" stroke-linecap="butt" stroke-linejoin="miter" stroke-miterlimit="4" stroke-dashoffset="0" stroke-dasharray="3 3" transform="translate(41.8 -12)" d="M 0 0v 136.4h 0.5v -136.4Z "/><path fill="#ff4136" fill-rule="nonzero" stroke="#ff4136" stroke-width="0.5" stroke-linecap="butt" stroke-linejoin="miter" stroke-miterlimit="4" stroke-dashoffset="0" stroke-dasharray="3 3" transform="translate(-16.8 -12)" d="M 0 0v 0.5h 58.6v -0.5Z "/><path fill="#ff4136" fill-rule="nonzero" stroke="#ff4136" stroke-width="0.5" stroke-linecap="butt" stroke-linejoin="miter" stroke-miterlimit="4" stroke-dashoffset="0" stroke-dasharray="3 3" transform="translate(-16.8 124.4)" d="M 0 0v 0.5h 58.6v -0.5Z "/><path fill="#ff4136" fill-rule="nonzero" transform="translate(-16.8 29.5)" d="M 0 0v 0.1h 0.1v -0.1Z "/><a transform="translate(-16.8 29.5)" href="crop-mark://left" xlink:href="crop-mark://left"><rect width="0.1" height="0.1" fill="transparent" stroke="none"/></a><path fill="#ff4136" fill-rule="nonzero" transform="translate(41.8 29.5)" d="M 0 0v 0.1h 0.1v -0.1Z "/><a transform="translate(41.8 29.5)" href="crop-mark://right" xlink:href="crop-mark://right"><rect width="0.1" height="0.1" fill="transparent" stroke="none"/></a><path fill="#ff4136" fill-rule="nonzero" transform="translate(11 -12)" d="M 0 0v 0.1h 0.1v -0.1Z "/><a transform="translate(11 -12)" href="crop-mark://top" xlink:href="crop-mark://top"><rect width="0.1" height="0.1" fill="transparent" stroke="none"/></a><path fill="#ff4136" fill-rule="nonzero" transform="translate(11 124.4)" d="M 0 0v 0.1h 0.1v -0.1Z "/><a transform="translate(11 124.4)" href="crop-mark://bottom" xlink:href="crop-mark://bottom"><rect width="0.1" height="0.1" fill="transparent" stroke="none"/></a></g></svg>