<svg class="typst-doc" viewBox="0 0 274 160" width="274pt" height="160pt" xmlns="http://www.w3.org/2000/svg" xmlns:xlink="http://www.w3.org/1999/xlink" xmlns:h5="http://www.w3.org/1999/xhtml">
    <path class="typst-shape" fill="#ffffff" fill-rule="nonzero" d="M 0 0 L 0 160 L 274 160 L 274 0 Z "/>
    <g>
        <g transform="translate(95.75 14.5)">
            <g class="typst-group">
                <g>
                    <g transform="translate(0 0)">
                        <g class="typst-group">
                            <g>
                                <g transform="translate(12.100000000000001 11.8)">
                                    <path class="typst-shape" fill="#eeeeee" fill-rule="nonzero" d="M 0 0 L 0 86.3 L 3.3 86.3 L 3.3 0 Z "/>
                                </g>
                                <g transform="translate(7.150000000000001 11.8)">
                                    <g class="typst-group">
                                        <g>
                                            <g transform="translate(-0 -0)">
                                                <path class="typst-shape" fill="#e6e6e6" fill-rule="nonzero" stroke="#000000" stroke-width="0.5" stroke-linecap="butt" stroke-linejoin="miter" stroke-miterlimit="4" d="M 0 6.6 C 0 2.9582255 2.9582255 0 6.6 0 C 10.241775 0 13.2 2.9582255 13.2 6.6 C 13.2 10.241775 10.241775 13.2 6.6 13.2 C 2.9582255 13.2 0 10.241775 0 6.6 "/>
                                            </g>
                                        </g>
                                    </g>
                                </g>
                                <g transform="translate(7.150000000000001 36.199999999999996)">
                                    <g class="typst-group">
                                        <g>
                                            <g transform="translate(-0 -0)">
                                                <path class="typst-shape" fill="#f18f01" fill-rule="nonzero" stroke="#000000" stroke-width="0.5" stroke-linecap="butt" stroke-linejoin="miter" stroke-miterlimit="4" d="M 0 6.6 C 0 2.9582255 2.9582255 0 6.6 0 C 10.241775 0 13.2 2.9582255 13.2 6.6 C 13.2 10.241775 10.241775 13.2 6.6 13.2 C 2.9582255 13.2 0 10.241775 0 6.6 "/>
                                            </g>
                                        </g>
                                    </g>
                                </g>
                                <g transform="translate(7.150000000000001 49.949999999999996)">
                                    <g class="typst-group">
                                        <g>
                                            <g transform="translate(-0 -0)">
                                                <path class="typst-shape" fill="#f18f01" fill-rule="nonzero" stroke="#000000" stroke-width="0.5" stroke-linecap="butt" stroke-linejoin="miter" stroke-miterlimit="4" d="M 0 6.6 C 0 2.9582255 2.9582255 0 6.6 0 C 10.241775 0 13.2 2.9582255 13.2 6.6 C 13.2 10.241775 10.241775 13.2 6.6 13.2 C 2.9582255 13.2 0 10.241775 0 6.6 "/>
                                            </g>
                                        </g>
                                    </g>
                                </g>
                                <g transform="translate(7.150000000000001 63.69999999999999)">
                                    <g class="typst-group">
                                        <g>
                                            <g transform="translate(-0 -0)">
                                                <path class="typst-shape" fill="#f18f01" fill-rule="nonzero" stroke="#000000" stroke-width="0.5" stroke-linecap="butt" stroke-linejoin="miter" stroke-miterlimit="4" d="M 0 6.6 C 0 2.9582255 2.9582255 0 6.6 0 C 10.241775 0 13.2 2.9582255 13.2 6.6 C 13.2 10.241775 10.241775 13.2 6.6 13.2 C 2.9582255 13.2 0 10.241775 0 6.6 "/>
                                            </g>
                                        </g>
                                    </g>
                                </g>
                                <g transform="translate(7.150000000000001 84.89999999999999)">
                                    <g class="typst-group">
                                        <g>
                                            <g transform="translate(-0 -0)">
                                                <path class="typst-shape" fill="#e6e6e6" fill-rule="nonzero" stroke="#000000" stroke-width="0.5" stroke-linecap="butt" stroke-linejoin="miter" stroke-miterlimit="4" d="M 0 6.6 C 0 2.9582255 2.9582255 0 6.6 0 C 10.241775 0 13.2 2.9582255 13.2 6.6 C 13.2 10.241775 10.241775 13.2 6.6 13.2 C 2.9582255 13.2 0 10.241775 0 6.6 "/>
                                            </g>
                                        </g>
                                    </g>
                                </g>
                                <g transform="translate(39.60000000000001 11.8)">
                                    <path class="typst-shape" fill="#eeeeee" fill-rule="nonzero" d="M 0 0 L 0 86.3 L 3.3 86.3 L 3.3 0 Z "/>
                                </g>
                                <g transform="translate(34.650000000000006 11.8)">
                                    <g class="typst-group">
                                        <g>
                                            <g transform="translate(-0 -0)">
                                                <path class="typst-shape" fill="#e6e6e6" fill-rule="nonzero" stroke="#000000" stroke-width="0.5" stroke-linecap="butt" stroke-linejoin="miter" stroke-miterlimit="4" d="M 0 6.6 C 0 2.9582255 2.9582255 0 6.6 0 C 10.241775 0 13.2 2.9582255 13.2 6.6 C 13.2 10.241775 10.241775 13.2 6.6 13.2 C 2.9582255 13.2 0 10.241775 0 6.6 "/>
                                            </g>
                                        </g>
                                    </g>
                                </g>
                                <g transform="translate(34.650000000000006 36.199999999999996)">
                                    <g class="typst-group">
                                        <g>
                                            <g transform="translate(-0 -0)">
                                                <path class="typst-shape" fill="#a23b72" fill-rule="nonzero" stroke="#000000" stroke-width="0.5" stroke-linecap="butt" stroke-linejoin="miter" stroke-miterlimit="4" d="M 0 6.6 C 0 2.9582255 2.9582255 0 6.6 0 C 10.241775 0 13.2 2.9582255 13.2 6.6 C 13.2 10.241775 10.241775 13.2 6.6 13.2 C 2.9582255 13.2 0 10.241775 0 6.6 "/>
                                            </g>
                                        </g>
                                    </g>
                                </g>
                                <g transform="translate(34.650000000000006 49.949999999999996)">
                                    <g class="typst-group">
                                        <g>
                                            <g transform="translate(-0 -0)">
                                                <path class="typst-shape" fill="#a23b72" fill-rule="nonzero" stroke="#000000" stroke-width="0.5" stroke-linecap="butt" stroke-linejoin="miter" stroke-miterlimit="4" d="M 0 6.6 C 0 2.9582255 2.9582255 0 6.6 0 C 10.241775 0 13.2 2.9582255 13.2 6.6 C 13.2 10.241775 10.241775 13.2 6.6 13.2 C 2.9582255 13.2 0 10.241775 0 6.6 "/>
                                            </g>
                                        </g>
                                    </g>
                                </g>
                                <g transform="translate(34.650000000000006 71.14999999999999)">
                                    <g class="typst-group">
                                        <g>
                                            <g transform="translate(-0 -0)">
                                                <path class="typst-shape" fill="#e6e6e6" fill-rule="nonzero" stroke="#000000" stroke-width="0.5" stroke-linecap="butt" stroke-linejoin="miter" stroke-miterlimit="4" d="M 0 6.6 C 0 2.9582255 2.9582255 0 6.6 0 C 10.241775 0 13.2 2.9582255 13.2 6.6 C 13.2 10.241775 10.241775 13.2 6.6 13.2 C 2.9582255 13.2 0 10.241775 0 6.6 "/>
                                            </g>
                                        </g>
                                    </g>
                                </g>
                                <g transform="translate(34.650000000000006 84.89999999999999)">
                                    <g class="typst-group">
                                        <g>
                                            <g transform="translate(-0 -0)">
                                                <path class="typst-shape" fill="#e6e6e6" fill-rule="nonzero" stroke="#000000" stroke-width="0.5" stroke-linecap="butt" stroke-linejoin="miter" stroke-miterlimit="4" d="M 0 6.6 C 0 2.9582255 2.9582255 0 6.6 0 C 10.241775 0 13.2 2.9582255 13.2 6.6 C 13.2 10.241775 10.241775 13.2 6.6 13.2 C 2.9582255 13.2 0 10.241775 0 6.6 "/>
                                            </g>
                                        </g>
                                    </g>
                                </g>
                                <g transform="translate(67.10000000000002 11.8)">
                                    <path class="typst-shape" fill="#eeeeee" fill-rule="nonzero" d="M 0 0 L 0 86.3 L 3.3 86.3 L 3.3 0 Z "/>
                                </g>
                                <g transform="translate(62.15000000000001 11.8)">
                                    <g class="typst-group">
                                        <g>
                                            <g transform="translate(-0 -0)">
                                                <path class="typst-shape" fill="#e6e6e6" fill-rule="nonzero" stroke="#000000" stroke-width="0.5" stroke-linecap="butt" stroke-linejoin="miter" stroke-miterlimit="4" d="M 0 6.6 C 0 2.9582255 2.9582255 0 6.6 0 C 10.241775 0 13.2 2.9582255 13.2 6.6 C 13.2 10.241775 10.241775 13.2 6.6 13.2 C 2.9582255 13.2 0 10.241775 0 6.6 "/>
                                            </g>
                                        </g>
                                    </g>
                                </g>
                                <g transform="translate(62.15000000000001 36.199999999999996)">
                                    <g class="typst-group">
                                        <g>
                                            <g transform="translate(-0 -0)">
                                                <path class="typst-shape" fill="#2e86ab" fill-rule="nonzero" stroke="#000000" stroke-width="0.5" stroke-linecap="butt" stroke-linejoin="miter" stroke-miterlimit="4" d="M 0 6.6 C 0 2.9582255 2.9582255 0 6.6 0 C 10.241775 0 13.2 2.9582255 13.2 6.6 C 13.2 10.241775 10.241775 13.2 6.6 13.2 C 2.9582255 13.2 0 10.241775 0 6.6 "/>
                                            </g>
                                        </g>
                                    </g>
                                </g>
                                <g transform="translate(62.15000000000001 57.39999999999999)">
                                    <g class="typst-group">
                                        <g>
                                            <g transform="translate(-0 -0)">
                                                <path class="typst-shape" fill="#e6e6e6" fill-rule="nonzero" stroke="#000000" stroke-width="0.5" stroke-linecap="butt" stroke-linejoin="miter" stroke-miterlimit="4" d="M 0 6.6 C 0 2.9582255 2.9582255 0 6.6 0 C 10.241775 0 13.2 2.9582255 13.2 6.6 C 13.2 10.241775 10.241775 13.2 6.6 13.2 C 2.9582255 13.2 0 10.241775 0 6.6 "/>
                                            </g>
                                        </g>
                                    </g>
                                </g>
                                <g transform="translate(62.15000000000001 71.14999999999999)">
                                    <g class="typst-group">
                                        <g>
                                            <g transform="translate(-0 -0)">
                                                <path class="typst-shape" fill="#e6e6e6" fill-rule="nonzero" stroke="#000000" stroke-width="0.5" stroke-linecap="butt" stroke-linejoin="miter" stroke-miterlimit="4" d="M 0 6.6 C 0 2.9582255 2.9582255 0 6.6 0 C 10.241775 0 13.2 2.9582255 13.2 6.6 C 13.2 10.241775 10.241775 13.2 6.6 13.2 C 2.9582255 13.2 0 10.241775 0 6.6 "/>
                                            </g>
                                        </g>
                                    </g>
                                </g>
                                <g transform="translate(62.15000000000001 84.89999999999999)">
                                    <g class="typst-group">
                                        <g>
                                            <g transform="translate(-0 -0)">
                                                <path class="typst-shape" fill="#e6e6e6" fill-rule="nonzero" stroke="#000000" stroke-width="0.5" stroke-linecap="butt" stroke-linejoin="miter" stroke-miterlimit="4" d="M 0 6.6 C 0 2.9582255 2.9582255 0 6.6 0 C 10.241775 0 13.2 2.9582255 13.2 6.6 C 13.2 10.241775 10.241775 13.2 6.6 13.2 C 2.9582255 13.2 0 10.241775 0 6.6 "/>
                                            </g>
                                        </g>
                                    </g>
                                </g>
                                <g transform="translate(0 33)">
                                    <path class="typst-shape" fill="#000000" fill-rule="nonzero" d="M 0 0 L 0 2.2 L 82.5 2.2 L 82.5 0 Z "/>
                                </g>
                                <g transform="translate(2.1500000000000012 32.6)">
                                    <path class="typst-shape" fill="#ff4136" fill-rule="nonzero" stroke="#ff4136" stroke-width="0.5" stroke-linecap="butt" stroke-linejoin="miter" stroke-miterlimit="4" d="M 0 0 L 0 3 L 3 3 L 3 0 Z "/>
                                </g>
                                <g transform="translate(77.35000000000002 32.6)">
                                    <path class="typst-shape" fill="#ff4136" fill-rule="nonzero" stroke="#ff4136" stroke-width="0.5" stroke-linecap="butt" stroke-linejoin="miter" stroke-miterlimit="4" d="M 0 0 L 0 3 L 3 3 L 3 0 Z "/>
                                </g>
                                <g transform="translate(12.250000000000002 6.799999999999999)">
                                    <path class="typst-shape" fill="#ff4136" fill-rule="nonzero" stroke="#ff4136" stroke-width="0.5" stroke-linecap="butt" stroke-linejoin="miter" stroke-miterlimit="4" d="M 0 0 L 0 3 L 3 3 L 3 0 Z "/>
                                </g>
                                <g transform="translate(67.25000000000001 93.2)">
                                    <path class="typst-shape" fill="#ff4136" fill-rule="nonzero" stroke="#ff4136" stroke-width="0.5" stroke-linecap="butt" stroke-linejoin="miter" stroke-miterlimit="4" d="M 0 0 L 0 3 L 3 3 L 3 0 Z "/>
                                </g>
                            </g>
                        </g>
                    </g>
                </g>
            </g>
        </g>
    </g>
</svg>
