<svg viewBox="0 0 366 198" width="366pt" height="198pt" xmlns="http://www.w3.org/2000/svg" xmlns:xlink="http://www.w3.org/1999/xlink" xmlns:h5="http://www.w3.org/1999/xhtml"><path fill="#ffffff" fill-rule="nonzero" d="M 0 0v 198h 366v -198Z "/><g transform="translate(130.5 17)"><path fill="#eeeeee" fill-rule="nonzero" transform="translate(15.4 24.2)" d="M 0 0v 19.2h 4.2v -19.2Z "/><path fill="#f18f01" fill-rule="nonzero" stroke="#000000" stroke-width="0.5" stroke-linecap="butt" stroke-linejoin="miter" stroke-miterlimit="4" transform="translate(5.74 24.2)" d="M 0 0m 11.76 0l 11.76 8.4l -11.76 8.4l -11.76 -8.4Z "/><a transform="translate(5.74 24.2)" href="bead://heaven-col2-active1" xlink:href="bead://heaven-col2-active1"><rect width="23.52" height="16.8" fill="transparent" stroke="none"/></a><path fill="#eeeeee" fill-rule="nonzero" transform="translate(50.4 24.2)" d="M 0 0v 19.2h 4.2v -19.2Z "/><path fill="#f18f01" fill-rule="nonzero" stroke="#000000" stroke-width="0.5" stroke-linecap="butt" stroke-linejoin="miter" stroke-miterlimit="4" transform="translate(40.74 24.2)" d="M 0 0m 11.76 0l 11.76 8.4l -11.76 8.4l -11.76 -8.4Z "/><a transform="translate(40.74 24.2)" href="bead://heaven-col1-active1" xlink:href="bead://heaven-col1-active1"><rect width="23.52" height="16.8" fill="transparent" stroke="none"/></a><path fill="#eeeeee" fill-rule="nonzero" transform="translate(85.4 24.2)" d="M 0 0v 19.2h 4.2v -19.2Z "/><path fill="#f18f01" fill-rule="nonzero" stroke="#000000" stroke-width="0.5" stroke-linecap="butt" stroke-linejoin="miter" stroke-miterlimit="4" transform="translate(75.74 24.2)" d="M 0 0m 11.76 0l 11.76 8.4l -11.76 8.4l -11.76 -8.4Z "/><a transform="translate(75.74 24.2)" href="bead://heaven-col0-active1" xlink:href="bead://heaven-col0-active1"><rect width="23.52" height="16.8" fill="transparent" stroke="none"/></a><path fill="#000000" fill-rule="nonzero" transform="translate(0 42)" d="M 0 0v 2.8h 105v -2.8Z "/><path fill="#ff4136" fill-rule="nonzero" stroke="#ff4136" stroke-width="0.5" stroke-linecap="butt" stroke-linejoin="miter" stroke-miterlimit="4" stroke-dashoffset="0" stroke-dasharray="3 3" transform="translate(-23.52 -16.8)" d="M 0 0v 190.96h 0.5v -190.96Z "/><path fill="#ff4136" fill-rule="nonzero" stroke="#ff4136" stroke-width="0.5" stroke-linecap="butt" stroke-linejoin="miter" stroke-miterlimit="4" stroke-dashoffset="0" stroke-dasharray="3 3" transform="translate(128.52 -16.8)" d="M 0 0v 190.96h 0.5v -190.96Z "/><path fill="#ff4136" fill-rule="nonzero" stroke="#ff4136" stroke-width="0.5" stroke-linecap="butt" stroke-linejoin="miter" stroke-miterlimit="4" stroke-dashoffset="0" stroke-dasharray="3 3" transform="translate(-23.52 -16.8)" d="M 0 0v 0.5h 152.04v -0.5Z "/><path fill="#ff4136" fill-rule="nonzero" stroke="#ff4136" stroke-width="0.5" stroke-linecap="butt" stroke-linejoin="miter" stroke-miterlimit="4" stroke-dashoffset="0" stroke-dasharray="3 3" transform="translate(-23.52 174.16)" d="M 0 0v 0.5h 152.04v -0.5Z "/><path fill="#ff4136" fill-rule="nonzero" transform="translate(-23.52 41.9)" d="M 0 0v 0.1h 0.1v -0.1Z "/><a transform="translate(-23.52 41.9)" href="crop-mark://left" xlink:href="crop-mark://left"><rect width="0.1" height="0.1" fill="transparent" stroke="none"/></a><path fill="#ff4136" fill-rule="nonzero" transform="translate(128.52 41.9)" d="M 0 0v 0.1h 0.1v -0.1Z "/><a transform="translate(128.52 41.9)" href="crop-mark://right" xlink:href="crop-mark://right"><rect width="0.1" height="0.1" fill="transparent" stroke="none"/></a><path fill="#ff4136" fill-rule="nonzero" transform="translate(51 -16.8)" d="M 0 0v 0.1h 0.1v -0.1Z "/><a transform="translate(51 -16.8)" href="crop-mark://top" xlink:href="crop-mark://top"><rect width="0.1" height="0.1" fill="transparent" stroke="none"/></a><path fill="#ff4136" fill-rule="nonzero" transform="translate(51 174.16)" d="M 0 0v 0.1h 0.1v -0.1Z "/><a transform="translate(51 174.16)" href="crop-mark://bottom" xlink:href="crop-mark://bottom"><rect width="0.1" height="0.1" fill="transparent" stroke="none"/></a></g></svg>