<svg viewBox="0 0 312 174" width="312pt" height="174pt" xmlns="http://www.w3.org/2000/svg" xmlns:xlink="http://www.w3.org/1999/xlink" xmlns:h5="http://www.w3.org/1999/xhtml"><path fill="#ffffff" fill-rule="nonzero" d="M 0 0v 174h 312v -174Z "/><g transform="translate(111 16)"><path fill="#eeeeee" fill-rule="nonzero" transform="translate(13.2 13.6)" d="M 0 0v 85.2h 3.6v -85.2Z "/><g transform="translate(7.8 13.6)"><path fill="#e6e6e6" fill-rule="nonzero" stroke="#000000" stroke-width="0.5" stroke-linecap="butt" stroke-linejoin="miter" stroke-miterlimit="4" d="M 0 0m 0 7.2c 0 -3.9728448 3.2271552 -7.2 7.2 -7.2c 3.9728448 0 7.2 3.2271552 7.2 7.2c 0 3.9728448 -3.2271552 7.2 -7.2 7.2c -3.9728448 0 -7.2 -3.2271552 -7.2 -7.2"/></g><a transform="translate(7.8 13.6)" href="bead://heaven-col2-active0" xlink:href="bead://heaven-col2-active0"><rect width="14.4" height="14.4" fill="transparent" stroke="none"/></a><g transform="translate(7.8 39.4)"><path fill="#2e86ab" fill-rule="nonzero" stroke="#000000" stroke-width="0.5" stroke-linecap="butt" stroke-linejoin="miter" stroke-miterlimit="4" d="M 0 0m 0 7.2c 0 -3.9728448 3.2271552 -7.2 7.2 -7.2c 3.9728448 0 7.2 3.2271552 7.2 7.2c 0 3.9728448 -3.2271552 7.2 -7.2 7.2c -3.9728448 0 -7.2 -3.2271552 -7.2 -7.2"/></g><a transform="translate(7.8 39.4)" href="bead://earth-col2-pos0-active1" xlink:href="bead://earth-col2-pos0-active1"><rect width="14.4" height="14.4" fill="transparent" stroke="none"/></a><g transform="translate(7.8 54.4)"><path fill="#2e86ab" fill-rule="nonzero" stroke="#000000" stroke-width="0.5" stroke-linecap="butt" stroke-linejoin="miter" stroke-miterlimit="4" d="M 0 0m 0 7.2c 0 -3.9728448 3.2271552 -7.2 7.2 -7.2c 3.9728448 0 7.2 3.2271552 7.2 7.2c 0 3.9728448 -3.2271552 7.2 -7.2 7.2c -3.9728448 0 -7.2 -3.2271552 -7.2 -7.2"/></g><a transform="translate(7.8 54.4)" href="bead://earth-col2-pos1-active1" xlink:href="bead://earth-col2-pos1-active1"><rect width="14.4" height="14.4" fill="transparent" stroke="none"/></a><g transform="translate(7.8 69.4)"><path fill="#2e86ab" fill-rule="nonzero" stroke="#000000" stroke-width="0.5" stroke-linecap="butt" stroke-linejoin="miter" stroke-miterlimit="4" d="M 0 0m 0 7.2c 0 -3.9728448 3.2271552 -7.2 7.2 -7.2c 3.9728448 0 7.2 3.2271552 7.2 7.2c 0 3.9728448 -3.2271552 7.2 -7.2 7.2c -3.9728448 0 -7.2 -3.2271552 -7.2 -7.2"/></g><a transform="translate(7.8 69.4)" href="bead://earth-col2-pos2-active1" xlink:href="bead://earth-col2-pos2-active1"><rect width="14.4" height="14.4" fill="transparent" stroke="none"/></a><g transform="translate(7.8 84.4)"><path fill="#2e86ab" fill-rule="nonzero" stroke="#000000" stroke-width="0.5" stroke-linecap="butt" stroke-linejoin="miter" stroke-miterlimit="4" d="M 0 0m 0 7.2c 0 -3.9728448 3.2271552 -7.2 7.2 -7.2c 3.9728448 0 7.2 3.2271552 7.2 7.2c 0 3.9728448 -3.2271552 7.2 -7.2 7.2c -3.9728448 0 -7.2 -3.2271552 -7.2 -7.2"/></g><a transform="translate(7.8 84.4)" href="bead://earth-col2-pos3-active1" xlink:href="bead://earth-col2-pos3-active1"><rect width="14.4" height="14.4" fill="transparent" stroke="none"/></a><path fill="#eeeeee" fill-rule="nonzero" transform="translate(43.2 20.6)" d="M 0 0v 85.2h 3.6v -85.2Z "/><g transform="translate(37.8 20.6)"><path fill="#f18f01" fill-rule="nonzero" stroke="#000000" stroke-width="0.5" stroke-linecap="butt" stroke-linejoin="miter" stroke-miterlimit="4" d="M 0 0m 0 7.2c 0 -3.9728448 3.2271552 -7.2 7.2 -7.2c 3.9728448 0 7.2 3.2271552 7.2 7.2c 0 3.9728448 -3.2271552 7.2 -7.2 7.2c -3.9728448 0 -7.2 -3.2271552 -7.2 -7.2"/></g><a transform="translate(37.8 20.6)" href="bead://heaven-col1-active1" xlink:href="bead://heaven-col1-active1"><rect width="14.4" height="14.4" fill="transparent" stroke="none"/></a><g transform="translate(37.8 46.4)"><path fill="#e6e6e6" fill-rule="nonzero" stroke="#000000" stroke-width="0.5" stroke-linecap="butt" stroke-linejoin="miter" stroke-miterlimit="4" d="M 0 0m 0 7.2c 0 -3.9728448 3.2271552 -7.2 7.2 -7.2c 3.9728448 0 7.2 3.2271552 7.2 7.2c 0 3.9728448 -3.2271552 7.2 -7.2 7.2c -3.9728448 0 -7.2 -3.2271552 -7.2 -7.2"/></g><a transform="translate(37.8 46.4)" href="bead://earth-col1-pos0-active0" xlink:href="bead://earth-col1-pos0-active0"><rect width="14.4" height="14.4" fill="transparent" stroke="none"/></a><g transform="translate(37.8 61.4)"><path fill="#e6e6e6" fill-rule="nonzero" stroke="#000000" stroke-width="0.5" stroke-linecap="butt" stroke-linejoin="miter" stroke-miterlimit="4" d="M 0 0m 0 7.2c 0 -3.9728448 3.2271552 -7.2 7.2 -7.2c 3.9728448 0 7.2 3.2271552 7.2 7.2c 0 3.9728448 -3.2271552 7.2 -7.2 7.2c -3.9728448 0 -7.2 -3.2271552 -7.2 -7.2"/></g><a transform="translate(37.8 61.4)" href="bead://earth-col1-pos1-active0" xlink:href="bead://earth-col1-pos1-active0"><rect width="14.4" height="14.4" fill="transparent" stroke="none"/></a><g transform="translate(37.8 76.4)"><path fill="#e6e6e6" fill-rule="nonzero" stroke="#000000" stroke-width="0.5" stroke-linecap="butt" stroke-linejoin="miter" stroke-miterlimit="4" d="M 0 0m 0 7.2c 0 -3.9728448 3.2271552 -7.2 7.2 -7.2c 3.9728448 0 7.2 3.2271552 7.2 7.2c 0 3.9728448 -3.2271552 7.2 -7.2 7.2c -3.9728448 0 -7.2 -3.2271552 -7.2 -7.2"/></g><a transform="translate(37.8 76.4)" href="bead://earth-col1-pos2-active0" xlink:href="bead://earth-col1-pos2-active0"><rect width="14.4" height="14.4" fill="transparent" stroke="none"/></a><g transform="translate(37.8 91.4)"><path fill="#e6e6e6" fill-rule="nonzero" stroke="#000000" stroke-width="0.5" stroke-linecap="butt" stroke-linejoin="miter" stroke-miterlimit="4" d="M 0 0m 0 7.2c 0 -3.9728448 3.2271552 -7.2 7.2 -7.2c 3.9728448 0 7.2 3.2271552 7.2 7.2c 0 3.9728448 -3.2271552 7.2 -7.2 7.2c -3.9728448 0 -7.2 -3.2271552 -7.2 -7.2"/></g><a transform="translate(37.8 91.4)" href="bead://earth-col1-pos3-active0" xlink:href="bead://earth-col1-pos3-active0"><rect width="14.4" height="14.4" fill="transparent" stroke="none"/></a><path fill="#eeeeee" fill-rule="nonzero" transform="translate(73.2 20.6)" d="M 0 0v 85.6h 3.6v -85.6Z "/><g transform="translate(67.8 20.6)"><path fill="#f18f01" fill-rule="nonzero" stroke="#000000" stroke-width="0.5" stroke-linecap="butt" stroke-linejoin="miter" stroke-miterlimit="4" d="M 0 0m 0 7.2c 0 -3.9728448 3.2271552 -7.2 7.2 -7.2c 3.9728448 0 7.2 3.2271552 7.2 7.2c 0 3.9728448 -3.2271552 7.2 -7.2 7.2c -3.9728448 0 -7.2 -3.2271552 -7.2 -7.2"/></g><a transform="translate(67.8 20.6)" href="bead://heaven-col0-active1" xlink:href="bead://heaven-col0-active1"><rect width="14.4" height="14.4" fill="transparent" stroke="none"/></a><g transform="translate(67.8 39.4)"><path fill="#2e86ab" fill-rule="nonzero" stroke="#000000" stroke-width="0.5" stroke-linecap="butt" stroke-linejoin="miter" stroke-miterlimit="4" d="M 0 0m 0 7.2c 0 -3.9728448 3.2271552 -7.2 7.2 -7.2c 3.9728448 0 7.2 3.2271552 7.2 7.2c 0 3.9728448 -3.2271552 7.2 -7.2 7.2c -3.9728448 0 -7.2 -3.2271552 -7.2 -7.2"/></g><a transform="translate(67.8 39.4)" href="bead://earth-col0-pos0-active1" xlink:href="bead://earth-col0-pos0-active1"><rect width="14.4" height="14.4" fill="transparent" stroke="none"/></a><g transform="translate(67.8 61.8)"><path fill="#e6e6e6" fill-rule="nonzero" stroke="#000000" stroke-width="0.5" stroke-linecap="butt" stroke-linejoin="miter" stroke-miterlimit="4" d="M 0 0m 0 7.2c 0 -3.9728448 3.2271552 -7.2 7.2 -7.2c 3.9728448 0 7.2 3.2271552 7.2 7.2c 0 3.9728448 -3.2271552 7.2 -7.2 7.2c -3.9728448 0 -7.2 -3.2271552 -7.2 -7.2"/></g><a transform="translate(67.8 61.8)" href="bead://earth-col0-pos1-active0" xlink:href="bead://earth-col0-pos1-active0"><rect width="14.4" height="14.4" fill="transparent" stroke="none"/></a><g transform="translate(67.8 76.8)"><path fill="#e6e6e6" fill-rule="nonzero" stroke="#000000" stroke-width="0.5" stroke-linecap="butt" stroke-linejoin="miter" stroke-miterlimit="4" d="M 0 0m 0 7.2c 0 -3.9728448 3.2271552 -7.2 7.2 -7.2c 3.9728448 0 7.2 3.2271552 7.2 7.2c 0 3.9728448 -3.2271552 7.2 -7.2 7.2c -3.9728448 0 -7.2 -3.2271552 -7.2 -7.2"/></g><a transform="translate(67.8 76.8)" href="bead://earth-col0-pos2-active0" xlink:href="bead://earth-col0-pos2-active0"><rect width="14.4" height="14.4" fill="transparent" stroke="none"/></a><g transform="translate(67.8 91.8)"><path fill="#e6e6e6" fill-rule="nonzero" stroke="#000000" stroke-width="0.5" stroke-linecap="butt" stroke-linejoin="miter" stroke-miterlimit="4" d="M 0 0m 0 7.2c 0 -3.9728448 3.2271552 -7.2 7.2 -7.2c 3.9728448 0 7.2 3.2271552 7.2 7.2c 0 3.9728448 -3.2271552 7.2 -7.2 7.2c -3.9728448 0 -7.2 -3.2271552 -7.2 -7.2"/></g><a transform="translate(67.8 91.8)" href="bead://earth-col0-pos3-active0" xlink:href="bead://earth-col0-pos3-active0"><rect width="14.4" height="14.4" fill="transparent" stroke="none"/></a><path fill="#000000" fill-rule="nonzero" transform="translate(0 36)" d="M 0 0v 2.4h 90v -2.4Z "/><path fill="#ff4136" fill-rule="nonzero" stroke="#ff4136" stroke-width="0.5" stroke-linecap="butt" stroke-linejoin="miter" stroke-miterlimit="4" stroke-dashoffset="0" stroke-dasharray="3 3" transform="translate(-14.4)" d="M 0 0v 117.6h 0.5v -117.6Z "/><path fill="#ff4136" fill-rule="nonzero" stroke="#ff4136" stroke-width="0.5" stroke-linecap="butt" stroke-linejoin="miter" stroke-miterlimit="4" stroke-dashoffset="0" stroke-dasharray="3 3" transform="translate(104.4)" d="M 0 0v 117.6h 0.5v -117.6Z "/><path fill="#ff4136" fill-rule="nonzero" stroke="#ff4136" stroke-width="0.5" stroke-linecap="butt" stroke-linejoin="miter" stroke-miterlimit="4" stroke-dashoffset="0" stroke-dasharray="3 3" transform="translate(-14.4)" d="M 0 0v 0.5h 118.8v -0.5Z "/><path fill="#ff4136" fill-rule="nonzero" stroke="#ff4136" stroke-width="0.5" stroke-linecap="butt" stroke-linejoin="miter" stroke-miterlimit="4" stroke-dashoffset="0" stroke-dasharray="3 3" transform="translate(-14.4 117.6)" d="M 0 0v 0.5h 118.8v -0.5Z "/><path fill="#ff4136" fill-rule="nonzero" transform="translate(-14.4 35.7)" d="M 0 0v 0.1h 0.1v -0.1Z "/><a transform="translate(-14.4 35.7)" href="crop-mark://left" xlink:href="crop-mark://left"><rect width="0.1" height="0.1" fill="transparent" stroke="none"/></a><path fill="#ff4136" fill-rule="nonzero" transform="translate(104.4 35.7)" d="M 0 0v 0.1h 0.1v -0.1Z "/><a transform="translate(104.4 35.7)" href="crop-mark://right" xlink:href="crop-mark://right"><rect width="0.1" height="0.1" fill="transparent" stroke="none"/></a><path fill="#ff4136" fill-rule="nonzero" transform="translate(43.5)" d="M 0 0v 0.1h 0.1v -0.1Z "/><a transform="translate(43.5)" href="crop-mark://top" xlink:href="crop-mark://top"><rect width="0.1" height="0.1" fill="transparent" stroke="none"/></a><path fill="#ff4136" fill-rule="nonzero" transform="translate(43.5 117.6)" d="M 0 0v 0.1h 0.1v -0.1Z "/><a transform="translate(43.5 117.6)" href="crop-mark://bottom" xlink:href="crop-mark://bottom"><rect width="0.1" height="0.1" fill="transparent" stroke="none"/></a></g></svg>