<svg viewBox="0 0 270 210" width="270pt" height="210pt" xmlns="http://www.w3.org/2000/svg" xmlns:xlink="http://www.w3.org/1999/xlink" xmlns:h5="http://www.w3.org/1999/xhtml"><path fill="#ffffff" fill-rule="nonzero" d="M 0 0v 210h 270v -210Z "/><g transform="translate(97.5 17.5)"><path fill="#eeeeee" fill-rule="nonzero" transform="translate(16.5 26)" d="M 0 0v 104.5h 4.5v -104.5Z "/><path fill="#a23b72" fill-rule="nonzero" stroke="#000000" stroke-width="0.5" stroke-linecap="butt" stroke-linejoin="miter" stroke-miterlimit="4" transform="translate(6.15 26)" d="M 0 0m 12.6 0l 12.6 9l -12.6 9l -12.6 -9Z "/><a transform="translate(6.15 26)" href="bead://heaven-col1-active1" xlink:href="bead://heaven-col1-active1"><rect width="25.2" height="18" fill="transparent" stroke="none"/></a><path fill="#a23b72" fill-rule="nonzero" stroke="#000000" stroke-width="0.5" stroke-linecap="butt" stroke-linejoin="miter" stroke-miterlimit="4" transform="translate(6.15 49)" d="M 0 0m 12.6 0l 12.6 9l -12.6 9l -12.6 -9Z "/><a transform="translate(6.15 49)" href="bead://earth-col1-pos0-active1" xlink:href="bead://earth-col1-pos0-active1"><rect width="25.2" height="18" fill="transparent" stroke="none"/></a><path fill="#a23b72" fill-rule="nonzero" stroke="#000000" stroke-width="0.5" stroke-linecap="butt" stroke-linejoin="miter" stroke-miterlimit="4" transform="translate(6.15 67.75)" d="M 0 0m 12.6 0l 12.6 9l -12.6 9l -12.6 -9Z "/><a transform="translate(6.15 67.75)" href="bead://earth-col1-pos1-active1" xlink:href="bead://earth-col1-pos1-active1"><rect width="25.2" height="18" fill="transparent" stroke="none"/></a><path fill="#a23b72" fill-rule="nonzero" stroke="#000000" stroke-width="0.5" stroke-linecap="butt" stroke-linejoin="miter" stroke-miterlimit="4" transform="translate(6.15 86.5)" d="M 0 0m 12.6 0l 12.6 9l -12.6 9l -12.6 -9Z "/><a transform="translate(6.15 86.5)" href="bead://earth-col1-pos2-active1" xlink:href="bead://earth-col1-pos2-active1"><rect width="25.2" height="18" fill="transparent" stroke="none"/></a><path fill="#e6e6e6" fill-rule="nonzero" stroke="#000000" stroke-width="0.5" stroke-linecap="butt" stroke-linejoin="miter" stroke-miterlimit="4" transform="translate(6.15 112.5)" d="M 0 0m 12.6 0l 12.6 9l -12.6 9l -12.6 -9Z "/><a transform="translate(6.15 112.5)" href="bead://earth-col1-pos3-active0" xlink:href="bead://earth-col1-pos3-active0"><rect width="25.2" height="18" fill="transparent" stroke="none"/></a><path fill="#eeeeee" fill-rule="nonzero" transform="translate(54 26)" d="M 0 0v 97.25h 4.5v -97.25Z "/><path fill="#2e86ab" fill-rule="nonzero" stroke="#000000" stroke-width="0.5" stroke-linecap="butt" stroke-linejoin="miter" stroke-miterlimit="4" transform="translate(43.65 26)" d="M 0 0m 12.6 0l 12.6 9l -12.6 9l -12.6 -9Z "/><a transform="translate(43.65 26)" href="bead://heaven-col0-active1" xlink:href="bead://heaven-col0-active1"><rect width="25.2" height="18" fill="transparent" stroke="none"/></a><path fill="#2e86ab" fill-rule="nonzero" stroke="#000000" stroke-width="0.5" stroke-linecap="butt" stroke-linejoin="miter" stroke-miterlimit="4" transform="translate(43.65 49)" d="M 0 0m 12.6 0l 12.6 9l -12.6 9l -12.6 -9Z "/><a transform="translate(43.65 49)" href="bead://earth-col0-pos0-active1" xlink:href="bead://earth-col0-pos0-active1"><rect width="25.2" height="18" fill="transparent" stroke="none"/></a><path fill="#2e86ab" fill-rule="nonzero" stroke="#000000" stroke-width="0.5" stroke-linecap="butt" stroke-linejoin="miter" stroke-miterlimit="4" transform="translate(43.65 67.75)" d="M 0 0m 12.6 0l 12.6 9l -12.6 9l -12.6 -9Z "/><a transform="translate(43.65 67.75)" href="bead://earth-col0-pos1-active1" xlink:href="bead://earth-col0-pos1-active1"><rect width="25.2" height="18" fill="transparent" stroke="none"/></a><path fill="#2e86ab" fill-rule="nonzero" stroke="#000000" stroke-width="0.5" stroke-linecap="butt" stroke-linejoin="miter" stroke-miterlimit="4" transform="translate(43.65 86.5)" d="M 0 0m 12.6 0l 12.6 9l -12.6 9l -12.6 -9Z "/><a transform="translate(43.65 86.5)" href="bead://earth-col0-pos2-active1" xlink:href="bead://earth-col0-pos2-active1"><rect width="25.2" height="18" fill="transparent" stroke="none"/></a><path fill="#2e86ab" fill-rule="nonzero" stroke="#000000" stroke-width="0.5" stroke-linecap="butt" stroke-linejoin="miter" stroke-miterlimit="4" transform="translate(43.65 105.25)" d="M 0 0m 12.6 0l 12.6 9l -12.6 9l -12.6 -9Z "/><a transform="translate(43.65 105.25)" href="bead://earth-col0-pos3-active1" xlink:href="bead://earth-col0-pos3-active1"><rect width="25.2" height="18" fill="transparent" stroke="none"/></a><path fill="#000000" fill-rule="nonzero" transform="translate(0 45)" d="M 0 0v 3h 75v -3Z "/><path fill="#ff4136" fill-rule="nonzero" stroke="#ff4136" stroke-width="0.5" stroke-linecap="butt" stroke-linejoin="miter" stroke-miterlimit="4" stroke-dashoffset="0" stroke-dasharray="3 3" transform="translate(-25.2 -18)" d="M 0 0v 204.6h 0.5v -204.6Z "/><path fill="#ff4136" fill-rule="nonzero" stroke="#ff4136" stroke-width="0.5" stroke-linecap="butt" stroke-linejoin="miter" stroke-miterlimit="4" stroke-dashoffset="0" stroke-dasharray="3 3" transform="translate(100.2 -18)" d="M 0 0v 204.6h 0.5v -204.6Z "/><path fill="#ff4136" fill-rule="nonzero" stroke="#ff4136" stroke-width="0.5" stroke-linecap="butt" stroke-linejoin="miter" stroke-miterlimit="4" stroke-dashoffset="0" stroke-dasharray="3 3" transform="translate(-25.2 -18)" d="M 0 0v 0.5h 125.4v -0.5Z "/><path fill="#ff4136" fill-rule="nonzero" stroke="#ff4136" stroke-width="0.5" stroke-linecap="butt" stroke-linejoin="miter" stroke-miterlimit="4" stroke-dashoffset="0" stroke-dasharray="3 3" transform="translate(-25.2 186.6)" d="M 0 0v 0.5h 125.4v -0.5Z "/><path fill="#ff4136" fill-rule="nonzero" transform="translate(-25.2 45)" d="M 0 0v 0.1h 0.1v -0.1Z "/><a transform="translate(-25.2 45)" href="crop-mark://left" xlink:href="crop-mark://left"><rect width="0.1" height="0.1" fill="transparent" stroke="none"/></a><path fill="#ff4136" fill-rule="nonzero" transform="translate(100.2 45)" d="M 0 0v 0.1h 0.1v -0.1Z "/><a transform="translate(100.2 45)" href="crop-mark://right" xlink:href="crop-mark://right"><rect width="0.1" height="0.1" fill="transparent" stroke="none"/></a><path fill="#ff4136" fill-rule="nonzero" transform="translate(36 -18)" d="M 0 0v 0.1h 0.1v -0.1Z "/><a transform="translate(36 -18)" href="crop-mark://top" xlink:href="crop-mark://top"><rect width="0.1" height="0.1" fill="transparent" stroke="none"/></a><path fill="#ff4136" fill-rule="nonzero" transform="translate(36 186.6)" d="M 0 0v 0.1h 0.1v -0.1Z "/><a transform="translate(36 186.6)" href="crop-mark://bottom" xlink:href="crop-mark://bottom"><rect width="0.1" height="0.1" fill="transparent" stroke="none"/></a></g></svg>