<svg class="typst-doc" viewBox="0 0 416 156" width="416pt" height="156pt" xmlns="http://www.w3.org/2000/svg" xmlns:xlink="http://www.w3.org/1999/xlink" xmlns:h5="http://www.w3.org/1999/xhtml">
    <path class="typst-shape" fill="#ffffff" fill-rule="nonzero" d="M 0 0v 156 h 416 v -156 Z "/>
    <g>
        <g class="typst-group" transform="matrix(1 0 0 1 143 1.5)">
            <g>
                <g class="typst-group">
                    <g>
                        <path class="typst-shape" fill="#eeeeee" fill-rule="nonzero" transform="matrix(1 0 0 1 14.299999999999999 15.400000000000002)" d="M 0 0v 98.9 h 3.9 v -98.9 Z "/>
                        <g class="typst-group" transform="matrix(1 0 0 1 8.450000000000001 15.400000000000002)">
                            <g>
                                <path class="typst-shape" fill="#e6e6e6" fill-rule="nonzero" stroke="#000000" stroke-width="0.5" stroke-linecap="butt" stroke-linejoin="miter" stroke-miterlimit="4" d="M 0 0m 0 7.8 c 0 -4.3039155 3.4960847 -7.8 7.8 -7.8 c 4.303915 0 7.8 3.4960847 7.8 7.8 c 0 4.303915 -3.4960852 7.8 -7.8 7.8 c -4.3039155 0 -7.8 -3.4960852 -7.8 -7.8 "/>
                            </g>
                        </g>
                        <a transform="matrix(1 0 0 1 8.450000000000001 15.400000000000002)" href="bead://heaven-col3-active0" xlink:href="bead://heaven-col3-active0">
                            <rect width="15.6" height="15.6" fill="transparent" stroke="none"/>
                        </a>
                        <g class="typst-group" transform="matrix(1 0 0 1 8.450000000000001 42.6)">
                            <g>
                                <path class="typst-shape" fill="#6a994e" fill-rule="nonzero" stroke="#000000" stroke-width="0.5" stroke-linecap="butt" stroke-linejoin="miter" stroke-miterlimit="4" d="M 0 0m 0 7.8 c 0 -4.3039155 3.4960847 -7.8 7.8 -7.8 c 4.303915 0 7.8 3.4960847 7.8 7.8 c 0 4.303915 -3.4960852 7.8 -7.8 7.8 c -4.3039155 0 -7.8 -3.4960852 -7.8 -7.8 "/>
                            </g>
                        </g>
                        <a transform="matrix(1 0 0 1 8.450000000000001 42.6)" href="bead://earth-col3-pos0-active1" xlink:href="bead://earth-col3-pos0-active1">
                            <rect width="15.6" height="15.6" fill="transparent" stroke="none"/>
                        </a>
                        <g class="typst-group" transform="matrix(1 0 0 1 8.450000000000001 66.20000000000002)">
                            <g>
                                <path class="typst-shape" fill="#e6e6e6" fill-rule="nonzero" stroke="#000000" stroke-width="0.5" stroke-linecap="butt" stroke-linejoin="miter" stroke-miterlimit="4" d="M 0 0m 0 7.8 c 0 -4.3039155 3.4960847 -7.8 7.8 -7.8 c 4.303915 0 7.8 3.4960847 7.8 7.8 c 0 4.303915 -3.4960852 7.8 -7.8 7.8 c -4.3039155 0 -7.8 -3.4960852 -7.8 -7.8 "/>
                            </g>
                        </g>
                        <a transform="matrix(1 0 0 1 8.450000000000001 66.20000000000002)" href="bead://earth-col3-pos1-active0" xlink:href="bead://earth-col3-pos1-active0">
                            <rect width="15.6" height="15.6" fill="transparent" stroke="none"/>
                        </a>
                        <g class="typst-group" transform="matrix(1 0 0 1 8.450000000000001 82.45000000000002)">
                            <g>
                                <path class="typst-shape" fill="#e6e6e6" fill-rule="nonzero" stroke="#000000" stroke-width="0.5" stroke-linecap="butt" stroke-linejoin="miter" stroke-miterlimit="4" d="M 0 0m 0 7.8 c 0 -4.3039155 3.4960847 -7.8 7.8 -7.8 c 4.303915 0 7.8 3.4960847 7.8 7.8 c 0 4.303915 -3.4960852 7.8 -7.8 7.8 c -4.3039155 0 -7.8 -3.4960852 -7.8 -7.8 "/>
                            </g>
                        </g>
                        <a transform="matrix(1 0 0 1 8.450000000000001 82.45000000000002)" href="bead://earth-col3-pos2-active0" xlink:href="bead://earth-col3-pos2-active0">
                            <rect width="15.6" height="15.6" fill="transparent" stroke="none"/>
                        </a>
                        <g class="typst-group" transform="matrix(1 0 0 1 8.450000000000001 98.70000000000002)">
                            <g>
                                <path class="typst-shape" fill="#e6e6e6" fill-rule="nonzero" stroke="#000000" stroke-width="0.5" stroke-linecap="butt" stroke-linejoin="miter" stroke-miterlimit="4" d="M 0 0m 0 7.8 c 0 -4.3039155 3.4960847 -7.8 7.8 -7.8 c 4.303915 0 7.8 3.4960847 7.8 7.8 c 0 4.303915 -3.4960852 7.8 -7.8 7.8 c -4.3039155 0 -7.8 -3.4960852 -7.8 -7.8 "/>
                            </g>
                        </g>
                        <a transform="matrix(1 0 0 1 8.450000000000001 98.70000000000002)" href="bead://earth-col3-pos3-active0" xlink:href="bead://earth-col3-pos3-active0">
                            <rect width="15.6" height="15.6" fill="transparent" stroke="none"/>
                        </a>
                        <path class="typst-shape" fill="#eeeeee" fill-rule="nonzero" transform="matrix(1 0 0 1 46.800000000000004 15.400000000000002)" d="M 0 0v 98.9 h 3.9 v -98.9 Z "/>
                        <g class="typst-group" transform="matrix(1 0 0 1 40.949999999999996 15.400000000000002)">
                            <g>
                                <path class="typst-shape" fill="#e6e6e6" fill-rule="nonzero" stroke="#000000" stroke-width="0.5" stroke-linecap="butt" stroke-linejoin="miter" stroke-miterlimit="4" d="M 0 0m 0 7.8 c 0 -4.3039155 3.4960847 -7.8 7.8 -7.8 c 4.303915 0 7.8 3.4960847 7.8 7.8 c 0 4.303915 -3.4960852 7.8 -7.8 7.8 c -4.3039155 0 -7.8 -3.4960852 -7.8 -7.8 "/>
                            </g>
                        </g>
                        <a transform="matrix(1 0 0 1 40.949999999999996 15.400000000000002)" href="bead://heaven-col2-active0" xlink:href="bead://heaven-col2-active0">
                            <rect width="15.6" height="15.6" fill="transparent" stroke="none"/>
                        </a>
                        <g class="typst-group" transform="matrix(1 0 0 1 40.949999999999996 42.6)">
                            <g>
                                <path class="typst-shape" fill="#f18f01" fill-rule="nonzero" stroke="#000000" stroke-width="0.5" stroke-linecap="butt" stroke-linejoin="miter" stroke-miterlimit="4" d="M 0 0m 0 7.8 c 0 -4.3039155 3.4960847 -7.8 7.8 -7.8 c 4.303915 0 7.8 3.4960847 7.8 7.8 c 0 4.303915 -3.4960852 7.8 -7.8 7.8 c -4.3039155 0 -7.8 -3.4960852 -7.8 -7.8 "/>
                            </g>
                        </g>
                        <a transform="matrix(1 0 0 1 40.949999999999996 42.6)" href="bead://earth-col2-pos0-active1" xlink:href="bead://earth-col2-pos0-active1">
                            <rect width="15.6" height="15.6" fill="transparent" stroke="none"/>
                        </a>
                        <g class="typst-group" transform="matrix(1 0 0 1 40.949999999999996 58.849999999999994)">
                            <g>
                                <path class="typst-shape" fill="#f18f01" fill-rule="nonzero" stroke="#000000" stroke-width="0.5" stroke-linecap="butt" stroke-linejoin="miter" stroke-miterlimit="4" d="M 0 0m 0 7.8 c 0 -4.3039155 3.4960847 -7.8 7.8 -7.8 c 4.303915 0 7.8 3.4960847 7.8 7.8 c 0 4.303915 -3.4960852 7.8 -7.8 7.8 c -4.3039155 0 -7.8 -3.4960852 -7.8 -7.8 "/>
                            </g>
                        </g>
                        <a transform="matrix(1 0 0 1 40.949999999999996 58.849999999999994)" href="bead://earth-col2-pos1-active1" xlink:href="bead://earth-col2-pos1-active1">
                            <rect width="15.6" height="15.6" fill="transparent" stroke="none"/>
                        </a>
                        <g class="typst-group" transform="matrix(1 0 0 1 40.949999999999996 82.45)">
                            <g>
                                <path class="typst-shape" fill="#e6e6e6" fill-rule="nonzero" stroke="#000000" stroke-width="0.5" stroke-linecap="butt" stroke-linejoin="miter" stroke-miterlimit="4" d="M 0 0m 0 7.8 c 0 -4.3039155 3.4960847 -7.8 7.8 -7.8 c 4.303915 0 7.8 3.4960847 7.8 7.8 c 0 4.303915 -3.4960852 7.8 -7.8 7.8 c -4.3039155 0 -7.8 -3.4960852 -7.8 -7.8 "/>
                            </g>
                        </g>
                        <a transform="matrix(1 0 0 1 40.949999999999996 82.45)" href="bead://earth-col2-pos2-active0" xlink:href="bead://earth-col2-pos2-active0">
                            <rect width="15.6" height="15.6" fill="transparent" stroke="none"/>
                        </a>
                        <g class="typst-group" transform="matrix(1 0 0 1 40.949999999999996 98.7)">
                            <g>
                                <path class="typst-shape" fill="#e6e6e6" fill-rule="nonzero" stroke="#000000" stroke-width="0.5" stroke-linecap="butt" stroke-linejoin="miter" stroke-miterlimit="4" d="M 0 0m 0 7.8 c 0 -4.3039155 3.4960847 -7.8 7.8 -7.8 c 4.303915 0 7.8 3.4960847 7.8 7.8 c 0 4.303915 -3.4960852 7.8 -7.8 7.8 c -4.3039155 0 -7.8 -3.4960852 -7.8 -7.8 "/>
                            </g>
                        </g>
                        <a transform="matrix(1 0 0 1 40.949999999999996 98.7)" href="bead://earth-col2-pos3-active0" xlink:href="bead://earth-col2-pos3-active0">
                            <rect width="15.6" height="15.6" fill="transparent" stroke="none"/>
                        </a>
                        <path class="typst-shape" fill="#eeeeee" fill-rule="nonzero" transform="matrix(1 0 0 1 79.3 15.400000000000002)" d="M 0 0v 98.9 h 3.9 v -98.9 Z "/>
                        <g class="typst-group" transform="matrix(1 0 0 1 73.45 15.400000000000002)">
                            <g>
                                <path class="typst-shape" fill="#e6e6e6" fill-rule="nonzero" stroke="#000000" stroke-width="0.5" stroke-linecap="butt" stroke-linejoin="miter" stroke-miterlimit="4" d="M 0 0m 0 7.8 c 0 -4.3039155 3.4960847 -7.8 7.8 -7.8 c 4.303915 0 7.8 3.4960847 7.8 7.8 c 0 4.303915 -3.4960852 7.8 -7.8 7.8 c -4.3039155 0 -7.8 -3.4960852 -7.8 -7.8 "/>
                            </g>
                        </g>
                        <a transform="matrix(1 0 0 1 73.45 15.400000000000002)" href="bead://heaven-col1-active0" xlink:href="bead://heaven-col1-active0">
                            <rect width="15.6" height="15.6" fill="transparent" stroke="none"/>
                        </a>
                        <g class="typst-group" transform="matrix(1 0 0 1 73.45 42.6)">
                            <g>
                                <path class="typst-shape" fill="#a23b72" fill-rule="nonzero" stroke="#000000" stroke-width="0.5" stroke-linecap="butt" stroke-linejoin="miter" stroke-miterlimit="4" d="M 0 0m 0 7.8 c 0 -4.3039155 3.4960847 -7.8 7.8 -7.8 c 4.303915 0 7.8 3.4960847 7.8 7.8 c 0 4.303915 -3.4960852 7.8 -7.8 7.8 c -4.3039155 0 -7.8 -3.4960852 -7.8 -7.8 "/>
                            </g>
                        </g>
                        <a transform="matrix(1 0 0 1 73.45 42.6)" href="bead://earth-col1-pos0-active1" xlink:href="bead://earth-col1-pos0-active1">
                            <rect width="15.6" height="15.6" fill="transparent" stroke="none"/>
                        </a>
                        <g class="typst-group" transform="matrix(1 0 0 1 73.45 58.849999999999994)">
                            <g>
                                <path class="typst-shape" fill="#a23b72" fill-rule="nonzero" stroke="#000000" stroke-width="0.5" stroke-linecap="butt" stroke-linejoin="miter" stroke-miterlimit="4" d="M 0 0m 0 7.8 c 0 -4.3039155 3.4960847 -7.8 7.8 -7.8 c 4.303915 0 7.8 3.4960847 7.8 7.8 c 0 4.303915 -3.4960852 7.8 -7.8 7.8 c -4.3039155 0 -7.8 -3.4960852 -7.8 -7.8 "/>
                            </g>
                        </g>
                        <a transform="matrix(1 0 0 1 73.45 58.849999999999994)" href="bead://earth-col1-pos1-active1" xlink:href="bead://earth-col1-pos1-active1">
                            <rect width="15.6" height="15.6" fill="transparent" stroke="none"/>
                        </a>
                        <g class="typst-group" transform="matrix(1 0 0 1 73.45 75.1)">
                            <g>
                                <path class="typst-shape" fill="#a23b72" fill-rule="nonzero" stroke="#000000" stroke-width="0.5" stroke-linecap="butt" stroke-linejoin="miter" stroke-miterlimit="4" d="M 0 0m 0 7.8 c 0 -4.3039155 3.4960847 -7.8 7.8 -7.8 c 4.303915 0 7.8 3.4960847 7.8 7.8 c 0 4.303915 -3.4960852 7.8 -7.8 7.8 c -4.3039155 0 -7.8 -3.4960852 -7.8 -7.8 "/>
                            </g>
                        </g>
                        <a transform="matrix(1 0 0 1 73.45 75.1)" href="bead://earth-col1-pos2-active1" xlink:href="bead://earth-col1-pos2-active1">
                            <rect width="15.6" height="15.6" fill="transparent" stroke="none"/>
                        </a>
                        <g class="typst-group" transform="matrix(1 0 0 1 73.45 98.7)">
                            <g>
                                <path class="typst-shape" fill="#e6e6e6" fill-rule="nonzero" stroke="#000000" stroke-width="0.5" stroke-linecap="butt" stroke-linejoin="miter" stroke-miterlimit="4" d="M 0 0m 0 7.8 c 0 -4.3039155 3.4960847 -7.8 7.8 -7.8 c 4.303915 0 7.8 3.4960847 7.8 7.8 c 0 4.303915 -3.4960852 7.8 -7.8 7.8 c -4.3039155 0 -7.8 -3.4960852 -7.8 -7.8 "/>
                            </g>
                        </g>
                        <a transform="matrix(1 0 0 1 73.45 98.7)" href="bead://earth-col1-pos3-active0" xlink:href="bead://earth-col1-pos3-active0">
                            <rect width="15.6" height="15.6" fill="transparent" stroke="none"/>
                        </a>
                        <path class="typst-shape" fill="#eeeeee" fill-rule="nonzero" transform="matrix(1 0 0 1 111.8 15.400000000000002)" d="M 0 0v 91.55 h 3.9 v -91.55 Z "/>
                        <g class="typst-group" transform="matrix(1 0 0 1 105.95 15.400000000000002)">
                            <g>
                                <path class="typst-shape" fill="#e6e6e6" fill-rule="nonzero" stroke="#000000" stroke-width="0.5" stroke-linecap="butt" stroke-linejoin="miter" stroke-miterlimit="4" d="M 0 0m 0 7.8 c 0 -4.3039155 3.4960847 -7.8 7.8 -7.8 c 4.303915 0 7.8 3.4960847 7.8 7.8 c 0 4.303915 -3.4960852 7.8 -7.8 7.8 c -4.3039155 0 -7.8 -3.4960852 -7.8 -7.8 "/>
                            </g>
                        </g>
                        <a transform="matrix(1 0 0 1 105.95 15.400000000000002)" href="bead://heaven-col0-active0" xlink:href="bead://heaven-col0-active0">
                            <rect width="15.6" height="15.6" fill="transparent" stroke="none"/>
                        </a>
                        <g class="typst-group" transform="matrix(1 0 0 1 105.95 42.6)">
                            <g>
                                <path class="typst-shape" fill="#2e86ab" fill-rule="nonzero" stroke="#000000" stroke-width="0.5" stroke-linecap="butt" stroke-linejoin="miter" stroke-miterlimit="4" d="M 0 0m 0 7.8 c 0 -4.3039155 3.4960847 -7.8 7.8 -7.8 c 4.303915 0 7.8 3.4960847 7.8 7.8 c 0 4.303915 -3.4960852 7.8 -7.8 7.8 c -4.3039155 0 -7.8 -3.4960852 -7.8 -7.8 "/>
                            </g>
                        </g>
                        <a transform="matrix(1 0 0 1 105.95 42.6)" href="bead://earth-col0-pos0-active1" xlink:href="bead://earth-col0-pos0-active1">
                            <rect width="15.6" height="15.6" fill="transparent" stroke="none"/>
                        </a>
                        <g class="typst-group" transform="matrix(1 0 0 1 105.95 58.849999999999994)">
                            <g>
                                <path class="typst-shape" fill="#2e86ab" fill-rule="nonzero" stroke="#000000" stroke-width="0.5" stroke-linecap="butt" stroke-linejoin="miter" stroke-miterlimit="4" d="M 0 0m 0 7.8 c 0 -4.3039155 3.4960847 -7.8 7.8 -7.8 c 4.303915 0 7.8 3.4960847 7.8 7.8 c 0 4.303915 -3.4960852 7.8 -7.8 7.8 c -4.3039155 0 -7.8 -3.4960852 -7.8 -7.8 "/>
                            </g>
                        </g>
                        <a transform="matrix(1 0 0 1 105.95 58.849999999999994)" href="bead://earth-col0-pos1-active1" xlink:href="bead://earth-col0-pos1-active1">
                            <rect width="15.6" height="15.6" fill="transparent" stroke="none"/>
                        </a>
                        <g class="typst-group" transform="matrix(1 0 0 1 105.95 75.1)">
                            <g>
                                <path class="typst-shape" fill="#2e86ab" fill-rule="nonzero" stroke="#000000" stroke-width="0.5" stroke-linecap="butt" stroke-linejoin="miter" stroke-miterlimit="4" d="M 0 0m 0 7.8 c 0 -4.3039155 3.4960847 -7.8 7.8 -7.8 c 4.303915 0 7.8 3.4960847 7.8 7.8 c 0 4.303915 -3.4960852 7.8 -7.8 7.8 c -4.3039155 0 -7.8 -3.4960852 -7.8 -7.8 "/>
                            </g>
                        </g>
                        <a transform="matrix(1 0 0 1 105.95 75.1)" href="bead://earth-col0-pos2-active1" xlink:href="bead://earth-col0-pos2-active1">
                            <rect width="15.6" height="15.6" fill="transparent" stroke="none"/>
                        </a>
                        <g class="typst-group" transform="matrix(1 0 0 1 105.95 91.35)">
                            <g>
                                <path class="typst-shape" fill="#2e86ab" fill-rule="nonzero" stroke="#000000" stroke-width="0.5" stroke-linecap="butt" stroke-linejoin="miter" stroke-miterlimit="4" d="M 0 0m 0 7.8 c 0 -4.3039155 3.4960847 -7.8 7.8 -7.8 c 4.303915 0 7.8 3.4960847 7.8 7.8 c 0 4.303915 -3.4960852 7.8 -7.8 7.8 c -4.3039155 0 -7.8 -3.4960852 -7.8 -7.8 "/>
                            </g>
                        </g>
                        <a transform="matrix(1 0 0 1 105.95 91.35)" href="bead://earth-col0-pos3-active1" xlink:href="bead://earth-col0-pos3-active1">
                            <rect width="15.6" height="15.6" fill="transparent" stroke="none"/>
                        </a>
                        <path class="typst-shape" fill="#000000" fill-rule="nonzero" transform="matrix(1 0 0 1 0 39)" d="M 0 0v 2.6 h 130 v -2.6 Z "/>
                    </g>
                </g>
            </g>
        </g>
    </g>
</svg>
