<svg class="typst-doc" viewBox="0 0 416 156" width="416pt" height="156pt" xmlns="http://www.w3.org/2000/svg" xmlns:xlink="http://www.w3.org/1999/xlink" xmlns:h5="http://www.w3.org/1999/xhtml">
    <path class="typst-shape" fill="#ffffff" fill-rule="nonzero" d="M 0 0 L 0 156 L 416 156 L 416 0 Z "/>
    <g>
        <g transform="translate(143 1.5)">
            <g class="typst-group">
                <g>
                    <g transform="translate(0 0)">
                        <g class="typst-group">
                            <g>
                                <g transform="translate(14.299999999999999 15.400000000000002)">
                                    <path class="typst-shape" fill="#eeeeee" fill-rule="nonzero" d="M 0 0 L 0 98.9 L 3.9 98.9 L 3.9 0 Z "/>
                                </g>
                                <g transform="translate(8.450000000000001 15.400000000000002)">
                                    <g class="typst-group">
                                        <g>
                                            <g transform="translate(-0 -0)">
                                                <path class="typst-shape" fill="#e6e6e6" fill-rule="nonzero" stroke="#000000" stroke-width="0.5" stroke-linecap="butt" stroke-linejoin="miter" stroke-miterlimit="4" d="M 0 7.8 C 0 3.4960847 3.4960847 0 7.8 0 C 12.103915 0 15.6 3.4960847 15.6 7.8 C 15.6 12.103915 12.103915 15.6 7.8 15.6 C 3.4960847 15.6 0 12.103915 0 7.8 "/>
                                            </g>
                                        </g>
                                    </g>
                                </g>
                                <g transform="translate(8.450000000000001 42.6)">
                                    <g class="typst-group">
                                        <g>
                                            <g transform="translate(-0 -0)">
                                                <path class="typst-shape" fill="#6a994e" fill-rule="nonzero" stroke="#000000" stroke-width="0.5" stroke-linecap="butt" stroke-linejoin="miter" stroke-miterlimit="4" d="M 0 7.8 C 0 3.4960847 3.4960847 0 7.8 0 C 12.103915 0 15.6 3.4960847 15.6 7.8 C 15.6 12.103915 12.103915 15.6 7.8 15.6 C 3.4960847 15.6 0 12.103915 0 7.8 "/>
                                            </g>
                                        </g>
                                    </g>
                                </g>
                                <g transform="translate(8.450000000000001 66.20000000000002)">
                                    <g class="typst-group">
                                        <g>
                                            <g transform="translate(-0 -0)">
                                                <path class="typst-shape" fill="#e6e6e6" fill-rule="nonzero" stroke="#000000" stroke-width="0.5" stroke-linecap="butt" stroke-linejoin="miter" stroke-miterlimit="4" d="M 0 7.8 C 0 3.4960847 3.4960847 0 7.8 0 C 12.103915 0 15.6 3.4960847 15.6 7.8 C 15.6 12.103915 12.103915 15.6 7.8 15.6 C 3.4960847 15.6 0 12.103915 0 7.8 "/>
                                            </g>
                                        </g>
                                    </g>
                                </g>
                                <g transform="translate(8.450000000000001 82.45000000000002)">
                                    <g class="typst-group">
                                        <g>
                                            <g transform="translate(-0 -0)">
                                                <path class="typst-shape" fill="#e6e6e6" fill-rule="nonzero" stroke="#000000" stroke-width="0.5" stroke-linecap="butt" stroke-linejoin="miter" stroke-miterlimit="4" d="M 0 7.8 C 0 3.4960847 3.4960847 0 7.8 0 C 12.103915 0 15.6 3.4960847 15.6 7.8 C 15.6 12.103915 12.103915 15.6 7.8 15.6 C 3.4960847 15.6 0 12.103915 0 7.8 "/>
                                            </g>
                                        </g>
                                    </g>
                                </g>
                                <g transform="translate(8.450000000000001 98.70000000000002)">
                                    <g class="typst-group">
                                        <g>
                                            <g transform="translate(-0 -0)">
                                                <path class="typst-shape" fill="#e6e6e6" fill-rule="nonzero" stroke="#000000" stroke-width="0.5" stroke-linecap="butt" stroke-linejoin="miter" stroke-miterlimit="4" d="M 0 7.8 C 0 3.4960847 3.4960847 0 7.8 0 C 12.103915 0 15.6 3.4960847 15.6 7.8 C 15.6 12.103915 12.103915 15.6 7.8 15.6 C 3.4960847 15.6 0 12.103915 0 7.8 "/>
                                            </g>
                                        </g>
                                    </g>
                                </g>
                                <g transform="translate(46.800000000000004 15.400000000000002)">
                                    <path class="typst-shape" fill="#eeeeee" fill-rule="nonzero" d="M 0 0 L 0 98.9 L 3.9 98.9 L 3.9 0 Z "/>
                                </g>
                                <g transform="translate(40.949999999999996 15.400000000000002)">
                                    <g class="typst-group">
                                        <g>
                                            <g transform="translate(-0 -0)">
                                                <path class="typst-shape" fill="#e6e6e6" fill-rule="nonzero" stroke="#000000" stroke-width="0.5" stroke-linecap="butt" stroke-linejoin="miter" stroke-miterlimit="4" d="M 0 7.8 C 0 3.4960847 3.4960847 0 7.8 0 C 12.103915 0 15.6 3.4960847 15.6 7.8 C 15.6 12.103915 12.103915 15.6 7.8 15.6 C 3.4960847 15.6 0 12.103915 0 7.8 "/>
                                            </g>
                                        </g>
                                    </g>
                                </g>
                                <g transform="translate(40.949999999999996 42.6)">
                                    <g class="typst-group">
                                        <g>
                                            <g transform="translate(-0 -0)">
                                                <path class="typst-shape" fill="#f18f01" fill-rule="nonzero" stroke="#000000" stroke-width="0.5" stroke-linecap="butt" stroke-linejoin="miter" stroke-miterlimit="4" d="M 0 7.8 C 0 3.4960847 3.4960847 0 7.8 0 C 12.103915 0 15.6 3.4960847 15.6 7.8 C 15.6 12.103915 12.103915 15.6 7.8 15.6 C 3.4960847 15.6 0 12.103915 0 7.8 "/>
                                            </g>
                                        </g>
                                    </g>
                                </g>
                                <g transform="translate(40.949999999999996 58.849999999999994)">
                                    <g class="typst-group">
                                        <g>
                                            <g transform="translate(-0 -0)">
                                                <path class="typst-shape" fill="#f18f01" fill-rule="nonzero" stroke="#000000" stroke-width="0.5" stroke-linecap="butt" stroke-linejoin="miter" stroke-miterlimit="4" d="M 0 7.8 C 0 3.4960847 3.4960847 0 7.8 0 C 12.103915 0 15.6 3.4960847 15.6 7.8 C 15.6 12.103915 12.103915 15.6 7.8 15.6 C 3.4960847 15.6 0 12.103915 0 7.8 "/>
                                            </g>
                                        </g>
                                    </g>
                                </g>
                                <g transform="translate(40.949999999999996 82.45)">
                                    <g class="typst-group">
                                        <g>
                                            <g transform="translate(-0 -0)">
                                                <path class="typst-shape" fill="#e6e6e6" fill-rule="nonzero" stroke="#000000" stroke-width="0.5" stroke-linecap="butt" stroke-linejoin="miter" stroke-miterlimit="4" d="M 0 7.8 C 0 3.4960847 3.4960847 0 7.8 0 C 12.103915 0 15.6 3.4960847 15.6 7.8 C 15.6 12.103915 12.103915 15.6 7.8 15.6 C 3.4960847 15.6 0 12.103915 0 7.8 "/>
                                            </g>
                                        </g>
                                    </g>
                                </g>
                                <g transform="translate(40.949999999999996 98.7)">
                                    <g class="typst-group">
                                        <g>
                                            <g transform="translate(-0 -0)">
                                                <path class="typst-shape" fill="#e6e6e6" fill-rule="nonzero" stroke="#000000" stroke-width="0.5" stroke-linecap="butt" stroke-linejoin="miter" stroke-miterlimit="4" d="M 0 7.8 C 0 3.4960847 3.4960847 0 7.8 0 C 12.103915 0 15.6 3.4960847 15.6 7.8 C 15.6 12.103915 12.103915 15.6 7.8 15.6 C 3.4960847 15.6 0 12.103915 0 7.8 "/>
                                            </g>
                                        </g>
                                    </g>
                                </g>
                                <g transform="translate(79.3 15.400000000000002)">
                                    <path class="typst-shape" fill="#eeeeee" fill-rule="nonzero" d="M 0 0 L 0 98.9 L 3.9 98.9 L 3.9 0 Z "/>
                                </g>
                                <g transform="translate(73.45 15.400000000000002)">
                                    <g class="typst-group">
                                        <g>
                                            <g transform="translate(-0 -0)">
                                                <path class="typst-shape" fill="#e6e6e6" fill-rule="nonzero" stroke="#000000" stroke-width="0.5" stroke-linecap="butt" stroke-linejoin="miter" stroke-miterlimit="4" d="M 0 7.8 C 0 3.4960847 3.4960847 0 7.8 0 C 12.103915 0 15.6 3.4960847 15.6 7.8 C 15.6 12.103915 12.103915 15.6 7.8 15.6 C 3.4960847 15.6 0 12.103915 0 7.8 "/>
                                            </g>
                                        </g>
                                    </g>
                                </g>
                                <g transform="translate(73.45 42.6)">
                                    <g class="typst-group">
                                        <g>
                                            <g transform="translate(-0 -0)">
                                                <path class="typst-shape" fill="#a23b72" fill-rule="nonzero" stroke="#000000" stroke-width="0.5" stroke-linecap="butt" stroke-linejoin="miter" stroke-miterlimit="4" d="M 0 7.8 C 0 3.4960847 3.4960847 0 7.8 0 C 12.103915 0 15.6 3.4960847 15.6 7.8 C 15.6 12.103915 12.103915 15.6 7.8 15.6 C 3.4960847 15.6 0 12.103915 0 7.8 "/>
                                            </g>
                                        </g>
                                    </g>
                                </g>
                                <g transform="translate(73.45 58.849999999999994)">
                                    <g class="typst-group">
                                        <g>
                                            <g transform="translate(-0 -0)">
                                                <path class="typst-shape" fill="#a23b72" fill-rule="nonzero" stroke="#000000" stroke-width="0.5" stroke-linecap="butt" stroke-linejoin="miter" stroke-miterlimit="4" d="M 0 7.8 C 0 3.4960847 3.4960847 0 7.8 0 C 12.103915 0 15.6 3.4960847 15.6 7.8 C 15.6 12.103915 12.103915 15.6 7.8 15.6 C 3.4960847 15.6 0 12.103915 0 7.8 "/>
                                            </g>
                                        </g>
                                    </g>
                                </g>
                                <g transform="translate(73.45 75.1)">
                                    <g class="typst-group">
                                        <g>
                                            <g transform="translate(-0 -0)">
                                                <path class="typst-shape" fill="#a23b72" fill-rule="nonzero" stroke="#000000" stroke-width="0.5" stroke-linecap="butt" stroke-linejoin="miter" stroke-miterlimit="4" d="M 0 7.8 C 0 3.4960847 3.4960847 0 7.8 0 C 12.103915 0 15.6 3.4960847 15.6 7.8 C 15.6 12.103915 12.103915 15.6 7.8 15.6 C 3.4960847 15.6 0 12.103915 0 7.8 "/>
                                            </g>
                                        </g>
                                    </g>
                                </g>
                                <g transform="translate(73.45 98.7)">
                                    <g class="typst-group">
                                        <g>
                                            <g transform="translate(-0 -0)">
                                                <path class="typst-shape" fill="#e6e6e6" fill-rule="nonzero" stroke="#000000" stroke-width="0.5" stroke-linecap="butt" stroke-linejoin="miter" stroke-miterlimit="4" d="M 0 7.8 C 0 3.4960847 3.4960847 0 7.8 0 C 12.103915 0 15.6 3.4960847 15.6 7.8 C 15.6 12.103915 12.103915 15.6 7.8 15.6 C 3.4960847 15.6 0 12.103915 0 7.8 "/>
                                            </g>
                                        </g>
                                    </g>
                                </g>
                                <g transform="translate(111.8 15.400000000000002)">
                                    <path class="typst-shape" fill="#eeeeee" fill-rule="nonzero" d="M 0 0 L 0 91.55 L 3.9 91.55 L 3.9 0 Z "/>
                                </g>
                                <g transform="translate(105.95 15.400000000000002)">
                                    <g class="typst-group">
                                        <g>
                                            <g transform="translate(-0 -0)">
                                                <path class="typst-shape" fill="#e6e6e6" fill-rule="nonzero" stroke="#000000" stroke-width="0.5" stroke-linecap="butt" stroke-linejoin="miter" stroke-miterlimit="4" d="M 0 7.8 C 0 3.4960847 3.4960847 0 7.8 0 C 12.103915 0 15.6 3.4960847 15.6 7.8 C 15.6 12.103915 12.103915 15.6 7.8 15.6 C 3.4960847 15.6 0 12.103915 0 7.8 "/>
                                            </g>
                                        </g>
                                    </g>
                                </g>
                                <g transform="translate(105.95 42.6)">
                                    <g class="typst-group">
                                        <g>
                                            <g transform="translate(-0 -0)">
                                                <path class="typst-shape" fill="#2e86ab" fill-rule="nonzero" stroke="#000000" stroke-width="0.5" stroke-linecap="butt" stroke-linejoin="miter" stroke-miterlimit="4" d="M 0 7.8 C 0 3.4960847 3.4960847 0 7.8 0 C 12.103915 0 15.6 3.4960847 15.6 7.8 C 15.6 12.103915 12.103915 15.6 7.8 15.6 C 3.4960847 15.6 0 12.103915 0 7.8 "/>
                                            </g>
                                        </g>
                                    </g>
                                </g>
                                <g transform="translate(105.95 58.849999999999994)">
                                    <g class="typst-group">
                                        <g>
                                            <g transform="translate(-0 -0)">
                                                <path class="typst-shape" fill="#2e86ab" fill-rule="nonzero" stroke="#000000" stroke-width="0.5" stroke-linecap="butt" stroke-linejoin="miter" stroke-miterlimit="4" d="M 0 7.8 C 0 3.4960847 3.4960847 0 7.8 0 C 12.103915 0 15.6 3.4960847 15.6 7.8 C 15.6 12.103915 12.103915 15.6 7.8 15.6 C 3.4960847 15.6 0 12.103915 0 7.8 "/>
                                            </g>
                                        </g>
                                    </g>
                                </g>
                                <g transform="translate(105.95 75.1)">
                                    <g class="typst-group">
                                        <g>
                                            <g transform="translate(-0 -0)">
                                                <path class="typst-shape" fill="#2e86ab" fill-rule="nonzero" stroke="#000000" stroke-width="0.5" stroke-linecap="butt" stroke-linejoin="miter" stroke-miterlimit="4" d="M 0 7.8 C 0 3.4960847 3.4960847 0 7.8 0 C 12.103915 0 15.6 3.4960847 15.6 7.8 C 15.6 12.103915 12.103915 15.6 7.8 15.6 C 3.4960847 15.6 0 12.103915 0 7.8 "/>
                                            </g>
                                        </g>
                                    </g>
                                </g>
                                <g transform="translate(105.95 91.35)">
                                    <g class="typst-group">
                                        <g>
                                            <g transform="translate(-0 -0)">
                                                <path class="typst-shape" fill="#2e86ab" fill-rule="nonzero" stroke="#000000" stroke-width="0.5" stroke-linecap="butt" stroke-linejoin="miter" stroke-miterlimit="4" d="M 0 7.8 C 0 3.4960847 3.4960847 0 7.8 0 C 12.103915 0 15.6 3.4960847 15.6 7.8 C 15.6 12.103915 12.103915 15.6 7.8 15.6 C 3.4960847 15.6 0 12.103915 0 7.8 "/>
                                            </g>
                                        </g>
                                    </g>
                                </g>
                                <g transform="translate(0 39)">
                                    <path class="typst-shape" fill="#000000" fill-rule="nonzero" d="M 0 0 L 0 2.6 L 130 2.6 L 130 0 Z "/>
                                </g>
                            </g>
                        </g>
                    </g>
                </g>
            </g>
        </g>
    </g>
</svg>
