<svg viewBox="0 0 416 156" width="416pt" height="156pt" xmlns="http://www.w3.org/2000/svg" xmlns:xlink="http://www.w3.org/1999/xlink" xmlns:h5="http://www.w3.org/1999/xhtml"><path fill="#ffffff" fill-rule="nonzero" d="M 0 0v 156h 416v -156Z "/><g transform="translate(143 1.5)"><path fill="#eeeeee" fill-rule="nonzero" transform="translate(14.3 15.4)" d="M 0 0v 98.9h 3.9v -98.9Z "/><g transform="translate(8.45 15.4)"><path fill="#e6e6e6" fill-rule="nonzero" stroke="#000000" stroke-width="0.5" stroke-linecap="butt" stroke-linejoin="miter" stroke-miterlimit="4" d="M 0 0m 0 7.8c 0 -4.3039152 3.4960848 -7.8 7.8 -7.8c 4.3039152 0 7.8 3.4960848 7.8 7.8c 0 4.3039152 -3.4960848 7.8 -7.8 7.8c -4.3039152 0 -7.8 -3.4960848 -7.8 -7.8"/></g><a transform="translate(8.45 15.4)" href="bead://heaven-col3-active0" xlink:href="bead://heaven-col3-active0"><rect width="15.6" height="15.6" fill="transparent" stroke="none"/></a><g transform="translate(8.45 42.6)"><path fill="#6a994e" fill-rule="nonzero" stroke="#000000" stroke-width="0.5" stroke-linecap="butt" stroke-linejoin="miter" stroke-miterlimit="4" d="M 0 0m 0 7.8c 0 -4.3039152 3.4960848 -7.8 7.8 -7.8c 4.3039152 0 7.8 3.4960848 7.8 7.8c 0 4.3039152 -3.4960848 7.8 -7.8 7.8c -4.3039152 0 -7.8 -3.4960848 -7.8 -7.8"/></g><a transform="translate(8.45 42.6)" href="bead://earth-col3-pos0-active1" xlink:href="bead://earth-col3-pos0-active1"><rect width="15.6" height="15.6" fill="transparent" stroke="none"/></a><g transform="translate(8.45 66.2)"><path fill="#e6e6e6" fill-rule="nonzero" stroke="#000000" stroke-width="0.5" stroke-linecap="butt" stroke-linejoin="miter" stroke-miterlimit="4" d="M 0 0m 0 7.8c 0 -4.3039152 3.4960848 -7.8 7.8 -7.8c 4.3039152 0 7.8 3.4960848 7.8 7.8c 0 4.3039152 -3.4960848 7.8 -7.8 7.8c -4.3039152 0 -7.8 -3.4960848 -7.8 -7.8"/></g><a transform="translate(8.45 66.2)" href="bead://earth-col3-pos1-active0" xlink:href="bead://earth-col3-pos1-active0"><rect width="15.6" height="15.6" fill="transparent" stroke="none"/></a><g transform="translate(8.45 82.45)"><path fill="#e6e6e6" fill-rule="nonzero" stroke="#000000" stroke-width="0.5" stroke-linecap="butt" stroke-linejoin="miter" stroke-miterlimit="4" d="M 0 0m 0 7.8c 0 -4.3039152 3.4960848 -7.8 7.8 -7.8c 4.3039152 0 7.8 3.4960848 7.8 7.8c 0 4.3039152 -3.4960848 7.8 -7.8 7.8c -4.3039152 0 -7.8 -3.4960848 -7.8 -7.8"/></g><a transform="translate(8.45 82.45)" href="bead://earth-col3-pos2-active0" xlink:href="bead://earth-col3-pos2-active0"><rect width="15.6" height="15.6" fill="transparent" stroke="none"/></a><g transform="translate(8.45 98.7)"><path fill="#e6e6e6" fill-rule="nonzero" stroke="#000000" stroke-width="0.5" stroke-linecap="butt" stroke-linejoin="miter" stroke-miterlimit="4" d="M 0 0m 0 7.8c 0 -4.3039152 3.4960848 -7.8 7.8 -7.8c 4.3039152 0 7.8 3.4960848 7.8 7.8c 0 4.3039152 -3.4960848 7.8 -7.8 7.8c -4.3039152 0 -7.8 -3.4960848 -7.8 -7.8"/></g><a transform="translate(8.45 98.7)" href="bead://earth-col3-pos3-active0" xlink:href="bead://earth-col3-pos3-active0"><rect width="15.6" height="15.6" fill="transparent" stroke="none"/></a><path fill="#eeeeee" fill-rule="nonzero" transform="translate(46.8 15.4)" d="M 0 0v 98.9h 3.9v -98.9Z "/><g transform="translate(40.95 15.4)"><path fill="#e6e6e6" fill-rule="nonzero" stroke="#000000" stroke-width="0.5" stroke-linecap="butt" stroke-linejoin="miter" stroke-miterlimit="4" d="M 0 0m 0 7.8c 0 -4.3039152 3.4960848 -7.8 7.8 -7.8c 4.3039152 0 7.8 3.4960848 7.8 7.8c 0 4.3039152 -3.4960848 7.8 -7.8 7.8c -4.3039152 0 -7.8 -3.4960848 -7.8 -7.8"/></g><a transform="translate(40.95 15.4)" href="bead://heaven-col2-active0" xlink:href="bead://heaven-col2-active0"><rect width="15.6" height="15.6" fill="transparent" stroke="none"/></a><g transform="translate(40.95 42.6)"><path fill="#f18f01" fill-rule="nonzero" stroke="#000000" stroke-width="0.5" stroke-linecap="butt" stroke-linejoin="miter" stroke-miterlimit="4" d="M 0 0m 0 7.8c 0 -4.3039152 3.4960848 -7.8 7.8 -7.8c 4.3039152 0 7.8 3.4960848 7.8 7.8c 0 4.3039152 -3.4960848 7.8 -7.8 7.8c -4.3039152 0 -7.8 -3.4960848 -7.8 -7.8"/></g><a transform="translate(40.95 42.6)" href="bead://earth-col2-pos0-active1" xlink:href="bead://earth-col2-pos0-active1"><rect width="15.6" height="15.6" fill="transparent" stroke="none"/></a><g transform="translate(40.95 58.85)"><path fill="#f18f01" fill-rule="nonzero" stroke="#000000" stroke-width="0.5" stroke-linecap="butt" stroke-linejoin="miter" stroke-miterlimit="4" d="M 0 0m 0 7.8c 0 -4.3039152 3.4960848 -7.8 7.8 -7.8c 4.3039152 0 7.8 3.4960848 7.8 7.8c 0 4.3039152 -3.4960848 7.8 -7.8 7.8c -4.3039152 0 -7.8 -3.4960848 -7.8 -7.8"/></g><a transform="translate(40.95 58.85)" href="bead://earth-col2-pos1-active1" xlink:href="bead://earth-col2-pos1-active1"><rect width="15.6" height="15.6" fill="transparent" stroke="none"/></a><g transform="translate(40.95 82.45)"><path fill="#e6e6e6" fill-rule="nonzero" stroke="#000000" stroke-width="0.5" stroke-linecap="butt" stroke-linejoin="miter" stroke-miterlimit="4" d="M 0 0m 0 7.8c 0 -4.3039152 3.4960848 -7.8 7.8 -7.8c 4.3039152 0 7.8 3.4960848 7.8 7.8c 0 4.3039152 -3.4960848 7.8 -7.8 7.8c -4.3039152 0 -7.8 -3.4960848 -7.8 -7.8"/></g><a transform="translate(40.95 82.45)" href="bead://earth-col2-pos2-active0" xlink:href="bead://earth-col2-pos2-active0"><rect width="15.6" height="15.6" fill="transparent" stroke="none"/></a><g transform="translate(40.95 98.7)"><path fill="#e6e6e6" fill-rule="nonzero" stroke="#000000" stroke-width="0.5" stroke-linecap="butt" stroke-linejoin="miter" stroke-miterlimit="4" d="M 0 0m 0 7.8c 0 -4.3039152 3.4960848 -7.8 7.8 -7.8c 4.3039152 0 7.8 3.4960848 7.8 7.8c 0 4.3039152 -3.4960848 7.8 -7.8 7.8c -4.3039152 0 -7.8 -3.4960848 -7.8 -7.8"/></g><a transform="translate(40.95 98.7)" href="bead://earth-col2-pos3-active0" xlink:href="bead://earth-col2-pos3-active0"><rect width="15.6" height="15.6" fill="transparent" stroke="none"/></a><path fill="#eeeeee" fill-rule="nonzero" transform="translate(79.3 15.4)" d="M 0 0v 98.9h 3.9v -98.9Z "/><g transform="translate(73.45 15.4)"><path fill="#e6e6e6" fill-rule="nonzero" stroke="#000000" stroke-width="0.5" stroke-linecap="butt" stroke-linejoin="miter" stroke-miterlimit="4" d="M 0 0m 0 7.8c 0 -4.3039152 3.4960848 -7.8 7.8 -7.8c 4.3039152 0 7.8 3.4960848 7.8 7.8c 0 4.3039152 -3.4960848 7.8 -7.8 7.8c -4.3039152 0 -7.8 -3.4960848 -7.8 -7.8"/></g><a transform="translate(73.45 15.4)" href="bead://heaven-col1-active0" xlink:href="bead://heaven-col1-active0"><rect width="15.6" height="15.6" fill="transparent" stroke="none"/></a><g transform="translate(73.45 42.6)"><path fill="#a23b72" fill-rule="nonzero" stroke="#000000" stroke-width="0.5" stroke-linecap="butt" stroke-linejoin="miter" stroke-miterlimit="4" d="M 0 0m 0 7.8c 0 -4.3039152 3.4960848 -7.8 7.8 -7.8c 4.3039152 0 7.8 3.4960848 7.8 7.8c 0 4.3039152 -3.4960848 7.8 -7.8 7.8c -4.3039152 0 -7.8 -3.4960848 -7.8 -7.8"/></g><a transform="translate(73.45 42.6)" href="bead://earth-col1-pos0-active1" xlink:href="bead://earth-col1-pos0-active1"><rect width="15.6" height="15.6" fill="transparent" stroke="none"/></a><g transform="translate(73.45 58.85)"><path fill="#a23b72" fill-rule="nonzero" stroke="#000000" stroke-width="0.5" stroke-linecap="butt" stroke-linejoin="miter" stroke-miterlimit="4" d="M 0 0m 0 7.8c 0 -4.3039152 3.4960848 -7.8 7.8 -7.8c 4.3039152 0 7.8 3.4960848 7.8 7.8c 0 4.3039152 -3.4960848 7.8 -7.8 7.8c -4.3039152 0 -7.8 -3.4960848 -7.8 -7.8"/></g><a transform="translate(73.45 58.85)" href="bead://earth-col1-pos1-active1" xlink:href="bead://earth-col1-pos1-active1"><rect width="15.6" height="15.6" fill="transparent" stroke="none"/></a><g transform="translate(73.45 75.1)"><path fill="#a23b72" fill-rule="nonzero" stroke="#000000" stroke-width="0.5" stroke-linecap="butt" stroke-linejoin="miter" stroke-miterlimit="4" d="M 0 0m 0 7.8c 0 -4.3039152 3.4960848 -7.8 7.8 -7.8c 4.3039152 0 7.8 3.4960848 7.8 7.8c 0 4.3039152 -3.4960848 7.8 -7.8 7.8c -4.3039152 0 -7.8 -3.4960848 -7.8 -7.8"/></g><a transform="translate(73.45 75.1)" href="bead://earth-col1-pos2-active1" xlink:href="bead://earth-col1-pos2-active1"><rect width="15.6" height="15.6" fill="transparent" stroke="none"/></a><g transform="translate(73.45 98.7)"><path fill="#e6e6e6" fill-rule="nonzero" stroke="#000000" stroke-width="0.5" stroke-linecap="butt" stroke-linejoin="miter" stroke-miterlimit="4" d="M 0 0m 0 7.8c 0 -4.3039152 3.4960848 -7.8 7.8 -7.8c 4.3039152 0 7.8 3.4960848 7.8 7.8c 0 4.3039152 -3.4960848 7.8 -7.8 7.8c -4.3039152 0 -7.8 -3.4960848 -7.8 -7.8"/></g><a transform="translate(73.45 98.7)" href="bead://earth-col1-pos3-active0" xlink:href="bead://earth-col1-pos3-active0"><rect width="15.6" height="15.6" fill="transparent" stroke="none"/></a><path fill="#eeeeee" fill-rule="nonzero" transform="translate(111.8 15.4)" d="M 0 0v 91.55h 3.9v -91.55Z "/><g transform="translate(105.95 15.4)"><path fill="#e6e6e6" fill-rule="nonzero" stroke="#000000" stroke-width="0.5" stroke-linecap="butt" stroke-linejoin="miter" stroke-miterlimit="4" d="M 0 0m 0 7.8c 0 -4.3039152 3.4960848 -7.8 7.8 -7.8c 4.3039152 0 7.8 3.4960848 7.8 7.8c 0 4.3039152 -3.4960848 7.8 -7.8 7.8c -4.3039152 0 -7.8 -3.4960848 -7.8 -7.8"/></g><a transform="translate(105.95 15.4)" href="bead://heaven-col0-active0" xlink:href="bead://heaven-col0-active0"><rect width="15.6" height="15.6" fill="transparent" stroke="none"/></a><g transform="translate(105.95 42.6)"><path fill="#2e86ab" fill-rule="nonzero" stroke="#000000" stroke-width="0.5" stroke-linecap="butt" stroke-linejoin="miter" stroke-miterlimit="4" d="M 0 0m 0 7.8c 0 -4.3039152 3.4960848 -7.8 7.8 -7.8c 4.3039152 0 7.8 3.4960848 7.8 7.8c 0 4.3039152 -3.4960848 7.8 -7.8 7.8c -4.3039152 0 -7.8 -3.4960848 -7.8 -7.8"/></g><a transform="translate(105.95 42.6)" href="bead://earth-col0-pos0-active1" xlink:href="bead://earth-col0-pos0-active1"><rect width="15.6" height="15.6" fill="transparent" stroke="none"/></a><g transform="translate(105.95 58.85)"><path fill="#2e86ab" fill-rule="nonzero" stroke="#000000" stroke-width="0.5" stroke-linecap="butt" stroke-linejoin="miter" stroke-miterlimit="4" d="M 0 0m 0 7.8c 0 -4.3039152 3.4960848 -7.8 7.8 -7.8c 4.3039152 0 7.8 3.4960848 7.8 7.8c 0 4.3039152 -3.4960848 7.8 -7.8 7.8c -4.3039152 0 -7.8 -3.4960848 -7.8 -7.8"/></g><a transform="translate(105.95 58.85)" href="bead://earth-col0-pos1-active1" xlink:href="bead://earth-col0-pos1-active1"><rect width="15.6" height="15.6" fill="transparent" stroke="none"/></a><g transform="translate(105.95 75.1)"><path fill="#2e86ab" fill-rule="nonzero" stroke="#000000" stroke-width="0.5" stroke-linecap="butt" stroke-linejoin="miter" stroke-miterlimit="4" d="M 0 0m 0 7.8c 0 -4.3039152 3.4960848 -7.8 7.8 -7.8c 4.3039152 0 7.8 3.4960848 7.8 7.8c 0 4.3039152 -3.4960848 7.8 -7.8 7.8c -4.3039152 0 -7.8 -3.4960848 -7.8 -7.8"/></g><a transform="translate(105.95 75.1)" href="bead://earth-col0-pos2-active1" xlink:href="bead://earth-col0-pos2-active1"><rect width="15.6" height="15.6" fill="transparent" stroke="none"/></a><g transform="translate(105.95 91.35)"><path fill="#2e86ab" fill-rule="nonzero" stroke="#000000" stroke-width="0.5" stroke-linecap="butt" stroke-linejoin="miter" stroke-miterlimit="4" d="M 0 0m 0 7.8c 0 -4.3039152 3.4960848 -7.8 7.8 -7.8c 4.3039152 0 7.8 3.4960848 7.8 7.8c 0 4.3039152 -3.4960848 7.8 -7.8 7.8c -4.3039152 0 -7.8 -3.4960848 -7.8 -7.8"/></g><a transform="translate(105.95 91.35)" href="bead://earth-col0-pos3-active1" xlink:href="bead://earth-col0-pos3-active1"><rect width="15.6" height="15.6" fill="transparent" stroke="none"/></a><path fill="#000000" fill-rule="nonzero" transform="translate(0 39)" d="M 0 0v 2.6h 130v -2.6Z "/></g></svg>