<svg viewBox="0 0 200 300" width="200pt" height="300pt" xmlns="http://www.w3.org/2000/svg" xmlns:xlink="http://www.w3.org/1999/xlink" xmlns:h5="http://www.w3.org/1999/xhtml"><path fill="#ffffff" fill-rule="nonzero" d="M 0 0v 300h 200v -300Z "/><g transform="translate(68.75 7.5)"><path fill="#eeeeee" fill-rule="nonzero" transform="translate(27.5 44)" d="M 0 0v 167.5h 7.5v -167.5Z "/><path fill="#2e86ab" fill-rule="nonzero" stroke="#000000" stroke-width="0.5" stroke-linecap="butt" stroke-linejoin="miter" stroke-miterlimit="4" transform="translate(10.25 44)" d="M 0 0m 21 0l 21 15l -21 15l -21 -15Z "/><a transform="translate(10.25 44)" href="bead://heaven-col0-active1" xlink:href="bead://heaven-col0-active1"><rect width="42" height="30" fill="transparent" stroke="none"/></a><path fill="#2e86ab" fill-rule="nonzero" stroke="#000000" stroke-width="0.5" stroke-linecap="butt" stroke-linejoin="miter" stroke-miterlimit="4" transform="translate(10.25 81)" d="M 0 0m 21 0l 21 15l -21 15l -21 -15Z "/><a transform="translate(10.25 81)" href="bead://earth-col0-pos0-active1" xlink:href="bead://earth-col0-pos0-active1"><rect width="42" height="30" fill="transparent" stroke="none"/></a><path fill="#2e86ab" fill-rule="nonzero" stroke="#000000" stroke-width="0.5" stroke-linecap="butt" stroke-linejoin="miter" stroke-miterlimit="4" transform="translate(10.25 112.25)" d="M 0 0m 21 0l 21 15l -21 15l -21 -15Z "/><a transform="translate(10.25 112.25)" href="bead://earth-col0-pos1-active1" xlink:href="bead://earth-col0-pos1-active1"><rect width="42" height="30" fill="transparent" stroke="none"/></a><path fill="#e6e6e6" fill-rule="nonzero" stroke="#000000" stroke-width="0.5" stroke-linecap="butt" stroke-linejoin="miter" stroke-miterlimit="4" transform="translate(10.25 150.25)" d="M 0 0m 21 0l 21 15l -21 15l -21 -15Z "/><a transform="translate(10.25 150.25)" href="bead://earth-col0-pos2-active0" xlink:href="bead://earth-col0-pos2-active0"><rect width="42" height="30" fill="transparent" stroke="none"/></a><path fill="#e6e6e6" fill-rule="nonzero" stroke="#000000" stroke-width="0.5" stroke-linecap="butt" stroke-linejoin="miter" stroke-miterlimit="4" transform="translate(10.25 181.5)" d="M 0 0m 21 0l 21 15l -21 15l -21 -15Z "/><a transform="translate(10.25 181.5)" href="bead://earth-col0-pos3-active0" xlink:href="bead://earth-col0-pos3-active0"><rect width="42" height="30" fill="transparent" stroke="none"/></a><path fill="#000000" fill-rule="nonzero" transform="translate(0 75)" d="M 0 0v 5h 62.5v -5Z "/></g></svg>