<svg viewBox="0 0 300 150" width="300pt" height="150pt" xmlns="http://www.w3.org/2000/svg" xmlns:xlink="http://www.w3.org/1999/xlink" xmlns:h5="http://www.w3.org/1999/xhtml"><path fill="#ffffff" fill-rule="nonzero" d="M 0 0v 150h 300v -150Z "/><g transform="translate(125 -40)"><path fill="#eeeeee" fill-rule="nonzero" transform="translate(22 35)" d="M 0 0v 136h 6v -136Z "/><path fill="#2e86ab" fill-rule="nonzero" stroke="#000000" stroke-width="0.5" stroke-linecap="butt" stroke-linejoin="miter" stroke-miterlimit="4" transform="translate(8.2 35)" d="M 0 0m 16.8 0l 16.8 12l -16.8 12l -16.8 -12Z "/><a transform="translate(8.2 35)" href="bead://heaven-col0-active1" xlink:href="bead://heaven-col0-active1"><rect width="33.6" height="24" fill="transparent" stroke="none"/></a><path fill="#e6e6e6" fill-rule="nonzero" stroke="#000000" stroke-width="0.5" stroke-linecap="butt" stroke-linejoin="miter" stroke-miterlimit="4" transform="translate(8.2 72)" d="M 0 0m 16.8 0l 16.8 12l -16.8 12l -16.8 -12Z "/><a transform="translate(8.2 72)" href="bead://earth-col0-pos0-active0" xlink:href="bead://earth-col0-pos0-active0"><rect width="33.6" height="24" fill="transparent" stroke="none"/></a><path fill="#e6e6e6" fill-rule="nonzero" stroke="#000000" stroke-width="0.5" stroke-linecap="butt" stroke-linejoin="miter" stroke-miterlimit="4" transform="translate(8.2 97)" d="M 0 0m 16.8 0l 16.8 12l -16.8 12l -16.8 -12Z "/><a transform="translate(8.2 97)" href="bead://earth-col0-pos1-active0" xlink:href="bead://earth-col0-pos1-active0"><rect width="33.6" height="24" fill="transparent" stroke="none"/></a><path fill="#e6e6e6" fill-rule="nonzero" stroke="#000000" stroke-width="0.5" stroke-linecap="butt" stroke-linejoin="miter" stroke-miterlimit="4" transform="translate(8.2 122)" d="M 0 0m 16.8 0l 16.8 12l -16.8 12l -16.8 -12Z "/><a transform="translate(8.2 122)" href="bead://earth-col0-pos2-active0" xlink:href="bead://earth-col0-pos2-active0"><rect width="33.6" height="24" fill="transparent" stroke="none"/></a><path fill="#e6e6e6" fill-rule="nonzero" stroke="#000000" stroke-width="0.5" stroke-linecap="butt" stroke-linejoin="miter" stroke-miterlimit="4" transform="translate(8.2 147)" d="M 0 0m 16.8 0l 16.8 12l -16.8 12l -16.8 -12Z "/><a transform="translate(8.2 147)" href="bead://earth-col0-pos3-active0" xlink:href="bead://earth-col0-pos3-active0"><rect width="33.6" height="24" fill="transparent" stroke="none"/></a><path fill="#000000" fill-rule="nonzero" transform="translate(0 60)" d="M 0 0v 4h 50v -4Z "/></g></svg>