<svg viewBox="0 0 140 200" width="140pt" height="200pt" xmlns="http://www.w3.org/2000/svg" xmlns:xlink="http://www.w3.org/1999/xlink" xmlns:h5="http://www.w3.org/1999/xhtml"><path fill="#ffffff" fill-rule="nonzero" d="M 0 0v 200h 140v -200Z "/><g transform="translate(7 7)"><g transform="translate(38 33)"><path fill="#eeeeee" fill-rule="nonzero" transform="translate(11 10)" d="M 0 0v 72.5h 3v -72.5Z "/><path fill="#e6e6e6" fill-rule="nonzero" stroke="#000000" stroke-width="0.5" stroke-linecap="butt" stroke-linejoin="miter" stroke-miterlimit="4" transform="translate(4.1 10)" d="M 0 0m 8.4 0l 8.4 6l -8.4 6l -8.4 -6Z "/><a transform="translate(4.1 10)" href="bead://heaven-col1-active0" xlink:href="bead://heaven-col1-active0"><rect width="16.8" height="12" fill="transparent" stroke="none"/></a><path fill="#a23b72" fill-rule="nonzero" stroke="#000000" stroke-width="0.5" stroke-linecap="butt" stroke-linejoin="miter" stroke-miterlimit="4" transform="translate(4.1 33)" d="M 0 0m 8.4 0l 8.4 6l -8.4 6l -8.4 -6Z "/><a transform="translate(4.1 33)" href="bead://earth-col1-pos0-active1" xlink:href="bead://earth-col1-pos0-active1"><rect width="16.8" height="12" fill="transparent" stroke="none"/></a><path fill="#a23b72" fill-rule="nonzero" stroke="#000000" stroke-width="0.5" stroke-linecap="butt" stroke-linejoin="miter" stroke-miterlimit="4" transform="translate(4.1 45.5)" d="M 0 0m 8.4 0l 8.4 6l -8.4 6l -8.4 -6Z "/><a transform="translate(4.1 45.5)" href="bead://earth-col1-pos1-active1" xlink:href="bead://earth-col1-pos1-active1"><rect width="16.8" height="12" fill="transparent" stroke="none"/></a><path fill="#a23b72" fill-rule="nonzero" stroke="#000000" stroke-width="0.5" stroke-linecap="butt" stroke-linejoin="miter" stroke-miterlimit="4" transform="translate(4.1 58)" d="M 0 0m 8.4 0l 8.4 6l -8.4 6l -8.4 -6Z "/><a transform="translate(4.1 58)" href="bead://earth-col1-pos2-active1" xlink:href="bead://earth-col1-pos2-active1"><rect width="16.8" height="12" fill="transparent" stroke="none"/></a><path fill="#a23b72" fill-rule="nonzero" stroke="#000000" stroke-width="0.5" stroke-linecap="butt" stroke-linejoin="miter" stroke-miterlimit="4" transform="translate(4.1 70.5)" d="M 0 0m 8.4 0l 8.4 6l -8.4 6l -8.4 -6Z "/><a transform="translate(4.1 70.5)" href="bead://earth-col1-pos3-active1" xlink:href="bead://earth-col1-pos3-active1"><rect width="16.8" height="12" fill="transparent" stroke="none"/></a><path fill="#eeeeee" fill-rule="nonzero" transform="translate(36 10)" d="M 0 0v 80h 3v -80Z "/><path fill="#e6e6e6" fill-rule="nonzero" stroke="#000000" stroke-width="0.5" stroke-linecap="butt" stroke-linejoin="miter" stroke-miterlimit="4" transform="translate(29.1 10)" d="M 0 0m 8.4 0l 8.4 6l -8.4 6l -8.4 -6Z "/><a transform="translate(29.1 10)" href="bead://heaven-col0-active0" xlink:href="bead://heaven-col0-active0"><rect width="16.8" height="12" fill="transparent" stroke="none"/></a><path fill="#2e86ab" fill-rule="nonzero" stroke="#000000" stroke-width="0.5" stroke-linecap="butt" stroke-linejoin="miter" stroke-miterlimit="4" transform="translate(29.1 33)" d="M 0 0m 8.4 0l 8.4 6l -8.4 6l -8.4 -6Z "/><a transform="translate(29.1 33)" href="bead://earth-col0-pos0-active1" xlink:href="bead://earth-col0-pos0-active1"><rect width="16.8" height="12" fill="transparent" stroke="none"/></a><path fill="#2e86ab" fill-rule="nonzero" stroke="#000000" stroke-width="0.5" stroke-linecap="butt" stroke-linejoin="miter" stroke-miterlimit="4" transform="translate(29.1 45.5)" d="M 0 0m 8.4 0l 8.4 6l -8.4 6l -8.4 -6Z "/><a transform="translate(29.1 45.5)" href="bead://earth-col0-pos1-active1" xlink:href="bead://earth-col0-pos1-active1"><rect width="16.8" height="12" fill="transparent" stroke="none"/></a><path fill="#e6e6e6" fill-rule="nonzero" stroke="#000000" stroke-width="0.5" stroke-linecap="butt" stroke-linejoin="miter" stroke-miterlimit="4" transform="translate(29.1 65.5)" d="M 0 0m 8.4 0l 8.4 6l -8.4 6l -8.4 -6Z "/><a transform="translate(29.1 65.5)" href="bead://earth-col0-pos2-active0" xlink:href="bead://earth-col0-pos2-active0"><rect width="16.8" height="12" fill="transparent" stroke="none"/></a><path fill="#e6e6e6" fill-rule="nonzero" stroke="#000000" stroke-width="0.5" stroke-linecap="butt" stroke-linejoin="miter" stroke-miterlimit="4" transform="translate(29.1 78)" d="M 0 0m 8.4 0l 8.4 6l -8.4 6l -8.4 -6Z "/><a transform="translate(29.1 78)" href="bead://earth-col0-pos3-active0" xlink:href="bead://earth-col0-pos3-active0"><rect width="16.8" height="12" fill="transparent" stroke="none"/></a><path fill="#000000" fill-rule="nonzero" transform="translate(0 30)" d="M 0 0v 2h 50v -2Z "/></g></g><path fill="none" stroke="#000000" stroke-width="0" stroke-linecap="butt" stroke-linejoin="miter" stroke-miterlimit="4" transform="translate(69 183)" d="M 0 0v 2h 2v -2Z "/><a transform="translate(69 183)" href="crop-mark://top" xlink:href="crop-mark://top"><rect width="2" height="2" fill="transparent" stroke="none"/></a><path fill="none" stroke="#000000" stroke-width="0" stroke-linecap="butt" stroke-linejoin="miter" stroke-miterlimit="4" transform="translate(69 401)" d="M 0 0v 2h 2v -2Z "/><a transform="translate(69 401)" href="crop-mark://bottom" xlink:href="crop-mark://bottom"><rect width="2" height="2" fill="transparent" stroke="none"/></a><path fill="none" stroke="#000000" stroke-width="0" stroke-linecap="butt" stroke-linejoin="miter" stroke-miterlimit="4" transform="translate(-10 292)" d="M 0 0v 2h 2v -2Z "/><a transform="translate(-10 292)" href="crop-mark://left" xlink:href="crop-mark://left"><rect width="2" height="2" fill="transparent" stroke="none"/></a><path fill="none" stroke="#000000" stroke-width="0" stroke-linecap="butt" stroke-linejoin="miter" stroke-miterlimit="4" transform="translate(148 292)" d="M 0 0v 2h 2v -2Z "/><a transform="translate(148 292)" href="crop-mark://right" xlink:href="crop-mark://right"><rect width="2" height="2" fill="transparent" stroke="none"/></a><path fill="none" stroke="#000000" stroke-width="0" stroke-linecap="butt" stroke-linejoin="miter" stroke-miterlimit="4" transform="translate(69 292)" d="M 0 0v 2h 2v -2Z "/><a transform="translate(69 292)" href="crop-mark://center" xlink:href="crop-mark://center"><rect width="2" height="2" fill="transparent" stroke="none"/></a></svg>