<svg class="typst-doc" viewBox="0 0 250 120" width="250pt" height="120pt" xmlns="http://www.w3.org/2000/svg" xmlns:xlink="http://www.w3.org/1999/xlink" xmlns:h5="http://www.w3.org/1999/xhtml">
    <path class="typst-shape" fill="#ffffff" fill-rule="nonzero" d="M 0 0 L 0 120 L 250 120 L 250 0 Z "/>
    <g>
        <g transform="translate(87.5 0)">
            <g class="typst-group">
                <g>
                    <g transform="translate(0 0)">
                        <g class="typst-group">
                            <g>
                                <g transform="translate(11 10)">
                                    <path class="typst-shape" fill="#eeeeee" fill-rule="nonzero" d="M 0 0 L 0 80 L 3 80 L 3 0 Z "/>
                                </g>
                                <g transform="translate(6.5 10)">
                                    <g class="typst-group">
                                        <g>
                                            <g transform="translate(-0 -0)">
                                                <path class="typst-shape" fill="#e6e6e6" fill-rule="nonzero" stroke="#000000" stroke-width="0.5" stroke-linecap="butt" stroke-linejoin="miter" stroke-miterlimit="4" d="M 0 6 C 0 2.689296 2.689296 0 6 0 C 9.310704 0 12 2.689296 12 6 C 12 9.310704 9.310704 12 6 12 C 2.689296 12 0 9.310704 0 6 "/>
                                            </g>
                                        </g>
                                    </g>
                                </g>
                                <g transform="translate(6.5 33)">
                                    <g class="typst-group">
                                        <g>
                                            <g transform="translate(-0 -0)">
                                                <path class="typst-shape" fill="#2e86ab" fill-rule="nonzero" stroke="#000000" stroke-width="0.5" stroke-linecap="butt" stroke-linejoin="miter" stroke-miterlimit="4" d="M 0 6 C 0 2.689296 2.689296 0 6 0 C 9.310704 0 12 2.689296 12 6 C 12 9.310704 9.310704 12 6 12 C 2.689296 12 0 9.310704 0 6 "/>
                                            </g>
                                        </g>
                                    </g>
                                </g>
                                <g transform="translate(6.5 53)">
                                    <g class="typst-group">
                                        <g>
                                            <g transform="translate(-0 -0)">
                                                <path class="typst-shape" fill="#e6e6e6" fill-rule="nonzero" stroke="#000000" stroke-width="0.5" stroke-linecap="butt" stroke-linejoin="miter" stroke-miterlimit="4" d="M 0 6 C 0 2.689296 2.689296 0 6 0 C 9.310704 0 12 2.689296 12 6 C 12 9.310704 9.310704 12 6 12 C 2.689296 12 0 9.310704 0 6 "/>
                                            </g>
                                        </g>
                                    </g>
                                </g>
                                <g transform="translate(6.5 65.5)">
                                    <g class="typst-group">
                                        <g>
                                            <g transform="translate(-0 -0)">
                                                <path class="typst-shape" fill="#e6e6e6" fill-rule="nonzero" stroke="#000000" stroke-width="0.5" stroke-linecap="butt" stroke-linejoin="miter" stroke-miterlimit="4" d="M 0 6 C 0 2.689296 2.689296 0 6 0 C 9.310704 0 12 2.689296 12 6 C 12 9.310704 9.310704 12 6 12 C 2.689296 12 0 9.310704 0 6 "/>
                                            </g>
                                        </g>
                                    </g>
                                </g>
                                <g transform="translate(6.5 78)">
                                    <g class="typst-group">
                                        <g>
                                            <g transform="translate(-0 -0)">
                                                <path class="typst-shape" fill="#e6e6e6" fill-rule="nonzero" stroke="#000000" stroke-width="0.5" stroke-linecap="butt" stroke-linejoin="miter" stroke-miterlimit="4" d="M 0 6 C 0 2.689296 2.689296 0 6 0 C 9.310704 0 12 2.689296 12 6 C 12 9.310704 9.310704 12 6 12 C 2.689296 12 0 9.310704 0 6 "/>
                                            </g>
                                        </g>
                                    </g>
                                </g>
                                <g transform="translate(36 10)">
                                    <path class="typst-shape" fill="#eeeeee" fill-rule="nonzero" d="M 0 0 L 0 80 L 3 80 L 3 0 Z "/>
                                </g>
                                <g transform="translate(31.5 10)">
                                    <g class="typst-group">
                                        <g>
                                            <g transform="translate(-0 -0)">
                                                <path class="typst-shape" fill="#e6e6e6" fill-rule="nonzero" stroke="#000000" stroke-width="0.5" stroke-linecap="butt" stroke-linejoin="miter" stroke-miterlimit="4" d="M 0 6 C 0 2.689296 2.689296 0 6 0 C 9.310704 0 12 2.689296 12 6 C 12 9.310704 9.310704 12 6 12 C 2.689296 12 0 9.310704 0 6 "/>
                                            </g>
                                        </g>
                                    </g>
                                </g>
                                <g transform="translate(31.5 33)">
                                    <g class="typst-group">
                                        <g>
                                            <g transform="translate(-0 -0)">
                                                <path class="typst-shape" fill="#2e86ab" fill-rule="nonzero" stroke="#000000" stroke-width="0.5" stroke-linecap="butt" stroke-linejoin="miter" stroke-miterlimit="4" d="M 0 6 C 0 2.689296 2.689296 0 6 0 C 9.310704 0 12 2.689296 12 6 C 12 9.310704 9.310704 12 6 12 C 2.689296 12 0 9.310704 0 6 "/>
                                            </g>
                                        </g>
                                    </g>
                                </g>
                                <g transform="translate(31.5 45.5)">
                                    <g class="typst-group">
                                        <g>
                                            <g transform="translate(-0 -0)">
                                                <path class="typst-shape" fill="#2e86ab" fill-rule="nonzero" stroke="#000000" stroke-width="0.5" stroke-linecap="butt" stroke-linejoin="miter" stroke-miterlimit="4" d="M 0 6 C 0 2.689296 2.689296 0 6 0 C 9.310704 0 12 2.689296 12 6 C 12 9.310704 9.310704 12 6 12 C 2.689296 12 0 9.310704 0 6 "/>
                                            </g>
                                        </g>
                                    </g>
                                </g>
                                <g transform="translate(31.5 65.5)">
                                    <g class="typst-group">
                                        <g>
                                            <g transform="translate(-0 -0)">
                                                <path class="typst-shape" fill="#e6e6e6" fill-rule="nonzero" stroke="#000000" stroke-width="0.5" stroke-linecap="butt" stroke-linejoin="miter" stroke-miterlimit="4" d="M 0 6 C 0 2.689296 2.689296 0 6 0 C 9.310704 0 12 2.689296 12 6 C 12 9.310704 9.310704 12 6 12 C 2.689296 12 0 9.310704 0 6 "/>
                                            </g>
                                        </g>
                                    </g>
                                </g>
                                <g transform="translate(31.5 78)">
                                    <g class="typst-group">
                                        <g>
                                            <g transform="translate(-0 -0)">
                                                <path class="typst-shape" fill="#e6e6e6" fill-rule="nonzero" stroke="#000000" stroke-width="0.5" stroke-linecap="butt" stroke-linejoin="miter" stroke-miterlimit="4" d="M 0 6 C 0 2.689296 2.689296 0 6 0 C 9.310704 0 12 2.689296 12 6 C 12 9.310704 9.310704 12 6 12 C 2.689296 12 0 9.310704 0 6 "/>
                                            </g>
                                        </g>
                                    </g>
                                </g>
                                <g transform="translate(61 10)">
                                    <path class="typst-shape" fill="#eeeeee" fill-rule="nonzero" d="M 0 0 L 0 80 L 3 80 L 3 0 Z "/>
                                </g>
                                <g transform="translate(56.5 10)">
                                    <g class="typst-group">
                                        <g>
                                            <g transform="translate(-0 -0)">
                                                <path class="typst-shape" fill="#e6e6e6" fill-rule="nonzero" stroke="#000000" stroke-width="0.5" stroke-linecap="butt" stroke-linejoin="miter" stroke-miterlimit="4" d="M 0 6 C 0 2.689296 2.689296 0 6 0 C 9.310704 0 12 2.689296 12 6 C 12 9.310704 9.310704 12 6 12 C 2.689296 12 0 9.310704 0 6 "/>
                                            </g>
                                        </g>
                                    </g>
                                </g>
                                <g transform="translate(56.5 33)">
                                    <g class="typst-group">
                                        <g>
                                            <g transform="translate(-0 -0)">
                                                <path class="typst-shape" fill="#2e86ab" fill-rule="nonzero" stroke="#000000" stroke-width="0.5" stroke-linecap="butt" stroke-linejoin="miter" stroke-miterlimit="4" d="M 0 6 C 0 2.689296 2.689296 0 6 0 C 9.310704 0 12 2.689296 12 6 C 12 9.310704 9.310704 12 6 12 C 2.689296 12 0 9.310704 0 6 "/>
                                            </g>
                                        </g>
                                    </g>
                                </g>
                                <g transform="translate(56.5 45.5)">
                                    <g class="typst-group">
                                        <g>
                                            <g transform="translate(-0 -0)">
                                                <path class="typst-shape" fill="#2e86ab" fill-rule="nonzero" stroke="#000000" stroke-width="0.5" stroke-linecap="butt" stroke-linejoin="miter" stroke-miterlimit="4" d="M 0 6 C 0 2.689296 2.689296 0 6 0 C 9.310704 0 12 2.689296 12 6 C 12 9.310704 9.310704 12 6 12 C 2.689296 12 0 9.310704 0 6 "/>
                                            </g>
                                        </g>
                                    </g>
                                </g>
                                <g transform="translate(56.5 58)">
                                    <g class="typst-group">
                                        <g>
                                            <g transform="translate(-0 -0)">
                                                <path class="typst-shape" fill="#2e86ab" fill-rule="nonzero" stroke="#000000" stroke-width="0.5" stroke-linecap="butt" stroke-linejoin="miter" stroke-miterlimit="4" d="M 0 6 C 0 2.689296 2.689296 0 6 0 C 9.310704 0 12 2.689296 12 6 C 12 9.310704 9.310704 12 6 12 C 2.689296 12 0 9.310704 0 6 "/>
                                            </g>
                                        </g>
                                    </g>
                                </g>
                                <g transform="translate(56.5 78)">
                                    <g class="typst-group">
                                        <g>
                                            <g transform="translate(-0 -0)">
                                                <path class="typst-shape" fill="#e6e6e6" fill-rule="nonzero" stroke="#000000" stroke-width="0.5" stroke-linecap="butt" stroke-linejoin="miter" stroke-miterlimit="4" d="M 0 6 C 0 2.689296 2.689296 0 6 0 C 9.310704 0 12 2.689296 12 6 C 12 9.310704 9.310704 12 6 12 C 2.689296 12 0 9.310704 0 6 "/>
                                            </g>
                                        </g>
                                    </g>
                                </g>
                                <g transform="translate(0 30)">
                                    <path class="typst-shape" fill="#000000" fill-rule="nonzero" d="M 0 0 L 0 2 L 75 2 L 75 0 Z "/>
                                </g>
                            </g>
                        </g>
                    </g>
                </g>
            </g>
        </g>
    </g>
</svg>
