<!-- Simple abacus showing a number -->
<!-- Generated from: {
  "value": 123,
  "columns": 3,
  "showNumbers": true,
  "scaleFactor": 1,
  "animated": false
} -->
<svg width="75" height="160" viewBox="0 0 75 160" class="abacus-svg  " style="overflow:visible;display:block" xmlns="http://www.w3.org/2000/svg" xmlns:xlink="http://www.w3.org/1999/xlink" xmlns:h5="http://www.w3.org/1999/xhtml"><defs><style>
          /* CSS-based opacity system for hidden inactive beads */
          .abacus-bead {
            transition: opacity 0.2s ease-in-out;
          }

          /* Hidden inactive beads are invisible by default */
          .hide-inactive-mode .abacus-bead.hidden-inactive {
            opacity: 0;
          }

          /* Interactive abacus: When hovering over the abacus, hidden inactive beads become semi-transparent */
          .abacus-svg.hide-inactive-mode.interactive:hover .abacus-bead.hidden-inactive {
            opacity: 0.5;
          }

          /* Interactive abacus: When hovering over a specific hidden inactive bead, it becomes fully visible */
          .hide-inactive-mode.interactive .abacus-bead.hidden-inactive:hover {
            opacity: 1 !important;
          }

          /* Non-interactive abacus: Hidden inactive beads always stay at opacity 0 */
          .abacus-svg.hide-inactive-mode:not(.interactive) .abacus-bead.hidden-inactive {
            opacity: 0 !important;
          }
        </style></defs><rect x="11" y="0" width="3" height="160" fill="rgb(0, 0, 0, 0.1)" stroke="none"></rect><rect x="36" y="0" width="3" height="160" fill="rgb(0, 0, 0, 0.1)" stroke="none"></rect><rect x="61" y="0" width="3" height="160" fill="rgb(0, 0, 0, 0.1)" stroke="none"></rect><rect x="0" y="30" width="75" height="2" fill="black" stroke="none"></rect><g class="abacus-bead inactive " transform="translate(4.100000000000001, 10)" style="cursor:default;touch-action:none;transition:opacity 0.2s ease-in-out"><polygon points="8.399999999999999,0 16.799999999999997,6 8.399999999999999,12 0,6" fill="rgb(211, 211, 211)" stroke="#000" stroke-width="0.5"></polygon></g><g class="abacus-bead active " transform="translate(4.100000000000001, 33)" style="cursor:default;touch-action:none;transition:opacity 0.2s ease-in-out"><polygon points="8.399999999999999,0 16.799999999999997,6 8.399999999999999,12 0,6" fill="#F18F01" stroke="#000" stroke-width="0.5"></polygon></g><g class="abacus-bead inactive " transform="translate(4.100000000000001, 53)" style="cursor:default;touch-action:none;transition:opacity 0.2s ease-in-out"><polygon points="8.399999999999999,0 16.799999999999997,6 8.399999999999999,12 0,6" fill="rgb(211, 211, 211)" stroke="#000" stroke-width="0.5"></polygon></g><g class="abacus-bead inactive " transform="translate(4.100000000000001, 65.5)" style="cursor:default;touch-action:none;transition:opacity 0.2s ease-in-out"><polygon points="8.399999999999999,0 16.799999999999997,6 8.399999999999999,12 0,6" fill="rgb(211, 211, 211)" stroke="#000" stroke-width="0.5"></polygon></g><g class="abacus-bead inactive " transform="translate(4.100000000000001, 78)" style="cursor:default;touch-action:none;transition:opacity 0.2s ease-in-out"><polygon points="8.399999999999999,0 16.799999999999997,6 8.399999999999999,12 0,6" fill="rgb(211, 211, 211)" stroke="#000" stroke-width="0.5"></polygon></g><g class="abacus-bead inactive " transform="translate(29.1, 10)" style="cursor:default;touch-action:none;transition:opacity 0.2s ease-in-out"><polygon points="8.399999999999999,0 16.799999999999997,6 8.399999999999999,12 0,6" fill="rgb(211, 211, 211)" stroke="#000" stroke-width="0.5"></polygon></g><g class="abacus-bead active " transform="translate(29.1, 33)" style="cursor:default;touch-action:none;transition:opacity 0.2s ease-in-out"><polygon points="8.399999999999999,0 16.799999999999997,6 8.399999999999999,12 0,6" fill="#A23B72" stroke="#000" stroke-width="0.5"></polygon></g><g class="abacus-bead active " transform="translate(29.1, 45.5)" style="cursor:default;touch-action:none;transition:opacity 0.2s ease-in-out"><polygon points="8.399999999999999,0 16.799999999999997,6 8.399999999999999,12 0,6" fill="#A23B72" stroke="#000" stroke-width="0.5"></polygon></g><g class="abacus-bead inactive " transform="translate(29.1, 65.5)" style="cursor:default;touch-action:none;transition:opacity 0.2s ease-in-out"><polygon points="8.399999999999999,0 16.799999999999997,6 8.399999999999999,12 0,6" fill="rgb(211, 211, 211)" stroke="#000" stroke-width="0.5"></polygon></g><g class="abacus-bead inactive " transform="translate(29.1, 78)" style="cursor:default;touch-action:none;transition:opacity 0.2s ease-in-out"><polygon points="8.399999999999999,0 16.799999999999997,6 8.399999999999999,12 0,6" fill="rgb(211, 211, 211)" stroke="#000" stroke-width="0.5"></polygon></g><g class="abacus-bead inactive " transform="translate(54.1, 10)" style="cursor:default;touch-action:none;transition:opacity 0.2s ease-in-out"><polygon points="8.399999999999999,0 16.799999999999997,6 8.399999999999999,12 0,6" fill="rgb(211, 211, 211)" stroke="#000" stroke-width="0.5"></polygon></g><g class="abacus-bead active " transform="translate(54.1, 33)" style="cursor:default;touch-action:none;transition:opacity 0.2s ease-in-out"><polygon points="8.399999999999999,0 16.799999999999997,6 8.399999999999999,12 0,6" fill="#2E86AB" stroke="#000" stroke-width="0.5"></polygon></g><g class="abacus-bead active " transform="translate(54.1, 45.5)" style="cursor:default;touch-action:none;transition:opacity 0.2s ease-in-out"><polygon points="8.399999999999999,0 16.799999999999997,6 8.399999999999999,12 0,6" fill="#2E86AB" stroke="#000" stroke-width="0.5"></polygon></g><g class="abacus-bead active " transform="translate(54.1, 58)" style="cursor:default;touch-action:none;transition:opacity 0.2s ease-in-out"><polygon points="8.399999999999999,0 16.799999999999997,6 8.399999999999999,12 0,6" fill="#2E86AB" stroke="#000" stroke-width="0.5"></polygon></g><g class="abacus-bead inactive " transform="translate(54.1, 78)" style="cursor:default;touch-action:none;transition:opacity 0.2s ease-in-out"><polygon points="8.399999999999999,0 16.799999999999997,6 8.399999999999999,12 0,6" fill="rgb(211, 211, 211)" stroke="#000" stroke-width="0.5"></polygon></g><rect x="0.5" y="133" width="24" height="24" fill="#f5f5f5" stroke="#ccc" stroke-width="1" rx="3" style="cursor:default"></rect><rect x="25.5" y="133" width="24" height="24" fill="#f5f5f5" stroke="#ccc" stroke-width="1" rx="3" style="cursor:default"></rect><rect x="50.5" y="133" width="24" height="24" fill="#f5f5f5" stroke="#ccc" stroke-width="1" rx="3" style="cursor:default"></rect><text x="12.5" y="145" text-anchor="middle" dominant-baseline="middle" font-family="monospace" font-weight="bold" font-size="14" fill="#333">1</text><text x="37.5" y="145" text-anchor="middle" dominant-baseline="middle" font-family="monospace" font-weight="bold" font-size="14" fill="#333">2</text><text x="62.5" y="145" text-anchor="middle" dominant-baseline="middle" font-family="monospace" font-weight="bold" font-size="14" fill="#333">3</text></svg>